{
.appVersion = "895";
DisplayStrings = (
"\U00BC\U00BD\U00BE"
);
copyright = "Copyright (c) 2011 The Cabin Project Authors (www.impallari.com impallari@gmail.com)";
customParameters = (
{
name = licenseURL;
value = "http://scripts.sil.org/OFL";
},
{
name = description;
value = "Copyright (c) 2011 by Pablo Impallari. www.impallari.com Copyright (c) 2011 by Igino Marini. www.ikern.com All rights reserved.";
},
{
name = trademark;
value = "Cabin is a trademark of Pablo Impallari. www.impallari.com Igino Marini. www.ikern.com.";
},
{
name = license;
value = "This Font Software is licensed under the SIL Open Font License, Version 1.1. This license is available with a FAQ at: http://scripts.sil.org/OFL";
},
{
name = fsType;
value = 0;
},
{
name = "Use Typo Metrics";
value = 1;
},
{
name = vendorID;
value = IMPA;
},
{
name = "Disable Last Change";
value = 1;
},
{
name = glyphOrder;
value = (
.notdef,
.null,
CR,
space,
nbspace,
A,
B,
C,
D,
E,
F,
G,
H,
I,
J,
K,
L,
M,
N,
O,
P,
Q,
R,
S,
T,
U,
V,
W,
X,
Y,
Z,
a,
b,
c,
d,
e,
f,
g,
h,
i,
j,
k,
l,
m,
n,
o,
p,
q,
r,
s,
t,
u,
v,
w,
x,
y,
z,
Agrave,
agrave,
Aacute,
aacute,
Acircumflex,
acircumflex,
Atilde,
atilde,
Adieresis,
adieresis,
Amacron,
amacron,
Abreve,
abreve,
Aring,
aring,
Aringacute,
aringacute,
Adotbelow,
adotbelow,
Aogonek,
aogonek,
AE,
ae,
AEacute,
aeacute,
Cacute,
cacute,
Ccircumflex,
ccircumflex,
Ccaron,
ccaron,
Cdotaccent,
cdotaccent,
Ccedilla,
ccedilla,
Dcaron,
dcaron,
Dcroat,
dcroat,
Eth,
eth,
Egrave,
egrave,
Eacute,
eacute,
Ecircumflex,
ecircumflex,
Etilde,
etilde,
Ecaron,
ecaron,
Edieresis,
edieresis,
Emacron,
emacron,
Ebreve,
ebreve,
Edotaccent,
edotaccent,
Edotbelow,
edotbelow,
Eogonek,
eogonek,
Gcircumflex,
gcircumflex,
Gcaron,
gcaron,
Gbreve,
gbreve,
Gdotaccent,
gdotaccent,
Gcommaaccent,
gcommaaccent,
Hcircumflex,
hcircumflex,
Hbar,
hbar,
idotless,
Igrave,
igrave,
Iacute,
iacute,
Icircumflex,
icircumflex,
Itilde,
itilde,
Idieresis,
idieresis,
Imacron,
imacron,
Ibreve,
ibreve,
Idotaccent,
idotaccent,

glyphs = (
{
color = 4;
glyphname = .notdef;
layers = (
{
layerId = UUID0;
paths = (
{
closed = 1;
nodes = (
"553 0 LINE",
"553 700 LINE",
"50 700 LINE",
"50 0 LINE"
);
},
{
closed = 1;
nodes = (
"130 630 LINE",
"473 630 LINE",
"473 70 LINE",
"130 70 LINE"
);
}
);
width = 603;
},
{
layerId = "7C863538-AAB4-42AD-A9FE-7240E615272A";
paths = (
{
closed = 1;
nodes = (
"553 0 LINE",
"553 700 LINE",
"50 700 LINE",
"50 0 LINE"
);
},
{
closed = 1;
nodes = (
"130 630 LINE",
"473 630 LINE",
"473 70 LINE",
"130 70 LINE"
);
}
);
width = 603;
}
);
},
{
glyphname = A;
layers = (
{
anchors = (
{
name = bottom;
position = "{308, 0}";
},
{
name = ogonek;
position = "{554, 10}";
},
{
name = top;
position = "{308, 700}";
}
);
layerId = UUID0;
paths = (
{
closed = 1;
nodes = (
"107 0 LINE",
"174 189 LINE",
"442 189 LINE",
"509 0 LINE",
"609 0 LINE",
"358 700 LINE",
"258 700 LINE",
"7 0 LINE"
);
},
{
closed = 1;
nodes = (
"308 567 LINE",
"412 275 LINE",
"204 275 LINE"
);
}
);
width = 616;
},
{
anchors = (
{
name = bottom;
position = "{313, 0}";
},
{
name = ogonek;
position = "{562, 10}";
},
{
name = top;
position = "{313, 700}";
}
);
layerId = "7C863538-AAB4-42AD-A9FE-7240E615272A";
paths = (
{
closed = 1;
nodes = (
"136 0 LINE",
"196 169 LINE",
"429 169 LINE",
"489 0 LINE",
"622 0 LINE",
"373 700 LINE",
"252 700 LINE",
"3 0 LINE"
);
},
{
closed = 1;
nodes = (
"312 498 LINE",
"385 293 LINE",
"240 293 LINE"
);
}
);
width = 625;
},
{
anchors = (
{
name = bottom;
position = "{308, 0}";
},
{
name = ogonek;
position = "{554, 10}";
},
{
name = top;
position = "{308, 700}";
}
);
associatedMasterId = UUID0;
layerId = "CE7DA8FC-F9D8-4CA8-895E-D8679BFEF1F0";
name = "Regular Sep 7 16, 14:04";
paths = (
{
closed = 1;
nodes = (
"107 0 LINE",
"174 189 LINE",
"442 189 LINE",
"509 0 LINE",
"609 0 LINE",
"358 700 LINE",
"258 700 LINE",
"7 0 LINE"
);
},
{
closed = 1;
nodes = (
"308 567 LINE",
"412 275 LINE",
"204 275 LINE"
);
}
);
width = 616;
},
{
anchors = (
{
name = bottom;
position = "{313, 0}";
},
{
name = ogonek;
position = "{562, 10}";
},
{
name = top;
position = "{313, 700}";
}
);
associatedMasterId = "7C863538-AAB4-42AD-A9FE-7240E615272A";
layerId = "CD5E817D-54ED-444E-B7C3-DBC41A33A319";
name = "Bold Sep 7 16, 14:04";
paths = (
{
closed = 1;
nodes = (
"136 0 LINE",
"196 169 LINE",
"429 169 LINE",
"489 0 LINE",
"622 0 LINE",
"373 700 LINE",
"252 700 LINE",
"3 0 LINE"
);
},
{
closed = 1;
nodes = (
"312 498 LINE",
"385 293 LINE",
"240 293 LINE"
);
}
);
width = 625;
}
);
leftKerningGroup = A;
rightKerningGroup = A;
unicode = 0041;
},
{
color = 4;
glyphname = B;
layers = (
{
layerId = UUID0;
paths = (
{
closed = 1;
nodes = (
"348 0 LINE SMOOTH",
"477 0 OFFCURVE",
"567 66 OFFCURVE",
"567 199 CURVE SMOOTH",
"567 320 OFFCURVE",
"483 374 OFFCURVE",
"383 381 CURVE",
"383 375 LINE",
"461 385 OFFCURVE",
"502 451 OFFCURVE",
"502 531 CURVE SMOOTH",
"502 645 OFFCURVE",
"426 700 OFFCURVE",
"301 700 CURVE SMOOTH",
"80 700 LINE",
"80 0 LINE"
);
},
{
closed = 1;
nodes = (
"175 323 LINE",
"336 323 LINE SMOOTH",
"411 323 OFFCURVE",
"463 291 OFFCURVE",
"463 203 CURVE SMOOTH",
"463 124 OFFCURVE",
"413 86 OFFCURVE",
"336 86 CURVE SMOOTH",
"175 86 LINE"
);
},
{
closed = 1;
nodes = (
"175 615 LINE",
"289 615 LINE SMOOTH",
"357 615 OFFCURVE",
"404 594 OFFCURVE",
"404 512 CURVE SMOOTH",
"404 429 OFFCURVE",
"357 409 OFFCURVE",
"289 409 CURVE SMOOTH",
"175 409 LINE"
);
}
);
width = 597;
},
{
layerId = "7C863538-AAB4-42AD-A9FE-7240E615272A";
paths = (
{
closed = 1;
nodes = (
"363 0 LINE SMOOTH",
"487 0 OFFCURVE",
"597 72 OFFCURVE",
"597 196 CURVE SMOOTH",
"597 320 OFFCURVE",
"501 378 OFFCURVE",
"402 384 CURVE",
"402 368 LINE",
"490 384 OFFCURVE",
"534 448 OFFCURVE",
"534 529 CURVE SMOOTH",
"534 640 OFFCURVE",
"463 700 OFFCURVE",
"331 700 CURVE SMOOTH",
"77 700 LINE",
"77 0 LINE"
);
},
{
closed = 1;
nodes = (
"205 318 LINE",
"350 318 LINE SMOOTH",
"415 318 OFFCURVE",
"465 294 OFFCURVE",
"465 213 CURVE SMOOTH",
"465 134 OFFCURVE",
"420 109 OFFCURVE",
"350 109 CURVE SMOOTH",
"205 109 LINE"
);
},
{
closed = 1;
nodes = (
"205 591 LINE",
"322 591 LINE SMOOTH",
"379 591 OFFCURVE",
"415 574 OFFCURVE",
"415 501 CURVE SMOOTH",
"415 434 OFFCURVE",
"366 419 OFFCURVE",
"330 419 CURVE SMOOTH",
"205 419 LINE"
);
}
);
width = 626;
},
{
associatedMasterId = UUID0;
layerId = "03AC80BF-29AF-4696-B368-D84669897041";
name = "Regular Sep 7 16, 14:04";
paths = (
{
closed = 1;
nodes = (
"320 0 LINE SMOOTH",
"435 0 OFFCURVE",
"562 29 OFFCURVE",
"562 208 CURVE SMOOTH",
"562 283 OFFCURVE",
"536 338 OFFCURVE",
"445 373 CURVE",
"499 429 OFFCURVE",
"502 468 OFFCURVE",
"502 527 CURVE SMOOTH",
"502 675 OFFCURVE",
"402 700 OFFCURVE",
"238 700 CURVE SMOOTH",
"80 700 LINE",
"80 0 LINE"
);
},
{
closed = 1;
nodes = (
"175 323 LINE",
"323 323 LINE SMOOTH",
"397 323 OFFCURVE",
"463 301 OFFCURVE",
"463 199 CURVE SMOOTH",
"463 98 OFFCURVE",
"388 86 OFFCURVE",
"273 86 CURVE SMOOTH",
"175 86 LINE"
);
},
{
closed = 1;
nodes = (
"175 615 LINE",
"265 615 LINE SMOOTH",
"342 615 OFFCURVE",
"404 608 OFFCURVE",
"404 520 CURVE SMOOTH",
"404 415 OFFCURVE",
"349 409 OFFCURVE",
"293 409 CURVE SMOOTH",
"175 409 LINE"
);
}
);
width = 597;
},
{
associatedMasterId = "7C863538-AAB4-42AD-A9FE-7240E615272A";
layerId = "874F906E-7ABA-4444-9E3E-82CE4F5599DB";
name = "Bold Sep 7 16, 14:04";
paths = (
{
closed = 1;
nodes = (
"347 0 LINE SMOOTH",
"464 0 OFFCURVE",
"597 44 OFFCURVE",
"597 206 CURVE SMOOTH",
"597 295 OFFCURVE",
"556 343 OFFCURVE",
"475 374 CURVE",
"516 408 OFFCURVE",
"534 457 OFFCURVE",
"534 520 CURVE SMOOTH",
"534 675 OFFCURVE",
"427 700 OFFCURVE",
"266 700 CURVE SMOOTH",
"77 700 LINE",
"77 0 LINE"
);
},
{
closed = 1;
nodes = (
"205 318 LINE",
"338 318 LINE SMOOTH",
"410 318 OFFCURVE",
"465 294 OFFCURVE",
"465 213 CURVE SMOOTH",
"465 134 OFFCURVE",
"413 109 OFFCURVE",
"331 109 CURVE SMOOTH",
"205 109 LINE"
);
},
{
closed = 1;
nodes = (
"205 591 LINE",
"318 591 LINE SMOOTH",
"377 591 OFFCURVE",
"415 574 OFFCURVE",
"415 501 CURVE SMOOTH",
"415 434 OFFCURVE",
"366 419 OFFCURVE",
"330 419 CURVE SMOOTH",
"205 419 LINE"
);
}
);
width = 626;
}
);
leftKerningGroup = I;
leftMetricsKey = H;
unicode = 0042;
},
{
glyphname = C;
layers = (
{
anchors = (
{
name = bottom;
position = "{393, 0}";
},
{
name = top;
position = "{376, 700}";
}
);
layerId = UUID0;
paths = (
{
closed = 1;
nodes = (
"471 -14 OFFCURVE",
"533 3 OFFCURVE",
"583 26 CURVE",
"573 114 LINE",
"520 88 OFFCURVE",
"462 72 OFFCURVE",
"393 72 CURVE SMOOTH",
"229 72 OFFCURVE",
"143 195 OFFCURVE",
"143 350 CURVE SMOOTH",
"143 505 OFFCURVE",
"230 628 OFFCURVE",
"395 628 CURVE SMOOTH",
"462 628 OFFCURVE",
"523 609 OFFCURVE",
"573 585 CURVE",
"583 673 LINE",
"534 697 OFFCURVE",
"467 714 OFFCURVE",
"396 714 CURVE SMOOTH",
"190 714 OFFCURVE",
"39 572 OFFCURVE",
"39 350 CURVE SMOOTH",
"39 128 OFFCURVE",
"188 -14 OFFCURVE",
"392 -14 CURVE SMOOTH"
);
}
);
width = 616;
},
{
anchors = (
{
name = bottom;
position = "{394, 0}";
},
{
name = top;
position = "{373, 700}";
}
);
layerId = "7C863538-AAB4-42AD-A9FE-7240E615272A";
paths = (
{
closed = 1;
nodes = (
"462 -14 OFFCURVE",
"526 2 OFFCURVE",
"579 27 CURVE",
"565 149 LINE",
"511 125 OFFCURVE",
"461 109 OFFCURVE",
"394 109 CURVE SMOOTH",
"249 109 OFFCURVE",
"175 210 OFFCURVE",
"175 350 CURVE SMOOTH",
"175 490 OFFCURVE",
"250 591 OFFCURVE",
"397 591 CURVE SMOOTH",
"463 591 OFFCURVE",
"514 574 OFFCURVE",
"565 551 CURVE",
"579 673 LINE",
"534 696 OFFCURVE",
"472 714 OFFCURVE",
"398 714 CURVE SMOOTH",
"187 714 OFFCURVE",
"35 570 OFFCURVE",
"35 350 CURVE SMOOTH",
"35 130 OFFCURVE",
"181 -14 OFFCURVE",
"394 -14 CURVE SMOOTH"
);
}
);
width = 609;
},
{
associatedMasterId = UUID0;
layerId = "C18EE6DC-633D-41E1-A253-90C8CBF88A98";
name = "Regular Sep 7 16, 14:04";
paths = (
{
closed = 1;
nodes = (
"460 -14 OFFCURVE",
"532 3 OFFCURVE",
"583 26 CURVE",
"573 114 LINE",
"518 95 OFFCURVE",
"461 72 OFFCURVE",
"391 72 CURVE SMOOTH",
"228 72 OFFCURVE",
"143 195 OFFCURVE",
"143 350 CURVE SMOOTH",
"143 505 OFFCURVE",
"228 628 OFFCURVE",
"389 628 CURVE SMOOTH",
"461 628 OFFCURVE",
"518 604 OFFCURVE",
"573 585 CURVE",
"583 673 LINE",
"535 696 OFFCURVE",
"460 714 OFFCURVE",
"389 714 CURVE SMOOTH",
"187 714 OFFCURVE",
"39 572 OFFCURVE",
"39 350 CURVE SMOOTH",
"39 128 OFFCURVE",
"187 -14 OFFCURVE",
"390 -14 CURVE SMOOTH"
);
}
);
width = 616;
},
{
associatedMasterId = "7C863538-AAB4-42AD-A9FE-7240E615272A";
layerId = "8A384D28-507D-4559-BB71-F27231FB4BE6";
name = "Bold Sep 7 16, 14:04";
paths = (
{
closed = 1;
nodes = (
"453 -14 OFFCURVE",
"528 2 OFFCURVE",
"579 27 CURVE",
"565 149 LINE",
"507 126 OFFCURVE",
"453 109 OFFCURVE",
"380 109 CURVE SMOOTH",
"244 109 OFFCURVE",
"175 210 OFFCURVE",
"175 350 CURVE SMOOTH",
"175 490 OFFCURVE",
"244 591 OFFCURVE",
"380 591 CURVE SMOOTH",
"453 591 OFFCURVE",
"507 574 OFFCURVE",
"565 551 CURVE",
"579 673 LINE",
"528 698 OFFCURVE",
"453 714 OFFCURVE",
"380 714 CURVE SMOOTH",
"180 714 OFFCURVE",
"35 570 OFFCURVE",
"35 350 CURVE SMOOTH",
"35 130 OFFCURVE",
"180 -14 OFFCURVE",
"380 -14 CURVE"
);
}
);
width = 609;
visible = 1;
}
);
leftKerningGroup = O;
rightKerningGroup = C;
unicode = 0043;
},
{
glyphname = D;
layers = (
{
layerId = UUID0;
paths = (
{
closed = 1;
nodes = (
"339 0 LINE SMOOTH",
"542 0 OFFCURVE",
"687 129 OFFCURVE",
"687 350 CURVE SMOOTH",
"687 571 OFFCURVE",
"542 700 OFFCURVE",
"339 700 CURVE SMOOTH",
"80 700 LINE",
"80 0 LINE"
);
},
{
closed = 1;
nodes = (
"175 614 LINE",
"339 614 LINE SMOOTH",
"499 614 OFFCURVE",
"583 507 OFFCURVE",
"583 350 CURVE SMOOTH",
"583 193 OFFCURVE",
"499 86 OFFCURVE",
"339 86 CURVE SMOOTH",
"175 86 LINE"
);
}
);
width = 727;
},
{
layerId = "7C863538-AAB4-42AD-A9FE-7240E615272A";
paths = (
{
closed = 1;
nodes = (
"339 0 LINE SMOOTH",
"539 0 OFFCURVE",
"684 130 OFFCURVE",
"684 350 CURVE SMOOTH",
"684 570 OFFCURVE",
"539 700 OFFCURVE",
"339 700 CURVE SMOOTH",
"77 700 LINE",
"77 0 LINE"
);
},
{
closed = 1;
nodes = (
"205 577 LINE",
"339 577 LINE SMOOTH",
"475 577 OFFCURVE",
"544 490 OFFCURVE",
"544 350 CURVE SMOOTH",
"544 210 OFFCURVE",
"475 123 OFFCURVE",
"339 123 CURVE SMOOTH",
"205 123 LINE"
);
}
);
width = 720;
},
{
associatedMasterId = UUID0;
layerId = "20165BC8-972E-4D11-8594-1DACCCE03DAD";
name = "Regular Sep 7 16, 14:04";
paths = (
{
closed = 1;
nodes = (
"339 0 LINE SMOOTH",
"542 0 OFFCURVE",
"687 129 OFFCURVE",
"687 350 CURVE SMOOTH",
"687 571 OFFCURVE",
"542 700 OFFCURVE",
"339 700 CURVE SMOOTH",
"80 700 LINE",
"80 0 LINE"
);
},
{
closed = 1;
nodes = (
"175 614 LINE",
"339 614 LINE SMOOTH",
"499 614 OFFCURVE",
"583 507 OFFCURVE",
"583 350 CURVE SMOOTH",
"583 193 OFFCURVE",
"499 86 OFFCURVE",
"339 86 CURVE SMOOTH",
"175 86 LINE"
);
}
);
width = 727;
},
{
associatedMasterId = "7C863538-AAB4-42AD-A9FE-7240E615272A";
layerId = "0CD1B365-8845-4F30-8D31-56AB71C2AE76";
name = "Bold Sep 7 16, 14:04";
paths = (
{
closed = 1;
nodes = (
"339 0 LINE SMOOTH",
"539 0 OFFCURVE",
"684 130 OFFCURVE",
"684 350 CURVE SMOOTH",
"684 570 OFFCURVE",
"539 700 OFFCURVE",
"339 700 CURVE SMOOTH",
"77 700 LINE",
"77 0 LINE"
);
},
{
closed = 1;
nodes = (
"205 577 LINE",
"339 577 LINE SMOOTH",
"475 577 OFFCURVE",
"544 490 OFFCURVE",
"544 350 CURVE SMOOTH",
"544 210 OFFCURVE",
"475 123 OFFCURVE",
"339 123 CURVE SMOOTH",
"205 123 LINE"
);
}
);
width = 720;
}
);
leftKerningGroup = I;
rightKerningGroup = D;
unicode = 0044;
},
{
glyphname = E;
layers = (
{
anchors = (
{
name = bottom;
position = "{298, 0}";
},
{
name = ogonek;
position = "{499, 10}";
},
{
name = top;
position = "{294, 700}";
}
);
layerId = UUID0;
paths = (
{
closed = 1;
nodes = (
"516 0 LINE",
"516 86 LINE",
"175 86 LINE",
"175 323 LINE",
"439 323 LINE",
"439 409 LINE",
"175 409 LINE",
"175 614 LINE",
"507 614 LINE",
"507 700 LINE",
"80 700 LINE",
"80 0 LINE"
);
}
);
width = 554;
},
{
anchors = (
{
name = bottom;
position = "{306, 0}";
},
{
name = ogonek;
position = "{511, 10}";
},
{
name = top;
position = "{301, 700}";
}
);
layerId = "7C863538-AAB4-42AD-A9FE-7240E615272A";
paths = (
{
closed = 1;
nodes = (
"535 0 LINE",
"535 124 LINE",
"208 124 LINE",
"208 303 LINE",
"454 303 LINE",
"454 427 LINE",
"208 427 LINE",
"208 576 LINE",
"525 576 LINE",
"525 700 LINE",
"77 700 LINE",
"77 0 LINE"
);
}
);
width = 568;
},
{
anchors = (
{
name = bottom;
position = "{277, 0}";
},
{
name = ogonek;
position = "{499, 10}";
},
{
name = top;
position = "{277, 700}";
},
{
name = topleft;
position = "{20, 700}";
}
);
associatedMasterId = UUID0;
layerId = "6572534E-2564-493C-8287-B859A68B1265";
name = "Regular Sep 7 16, 14:04";
paths = (
{
closed = 1;
nodes = (
"516 0 LINE",
"516 86 LINE",
"175 86 LINE",
"175 323 LINE",
"439 323 LINE",
"439 409 LINE",
"175 409 LINE",
"175 614 LINE",
"507 614 LINE",
"507 700 LINE",
"80 700 LINE",
"80 0 LINE"
);
}
);
width = 554;
},
{
anchors = (
{
name = bottom;
position = "{284, 0}";
},
{
name = ogonek;
position = "{511, 10}";
},
{
name = top;
position = "{284, 700}";
},
{
name = topleft;
position = "{20, 700}";
}
);
associatedMasterId = "7C863538-AAB4-42AD-A9FE-7240E615272A";
layerId = "7A44D41B-0C99-4E6A-A9E7-F158AA67CFF5";
name = "Bold Sep 7 16, 14:04";
paths = (
{
closed = 1;
nodes = (
"535 0 LINE",
"535 124 LINE",
"208 124 LINE",
"208 303 LINE",
"454 303 LINE",
"454 427 LINE",
"208 427 LINE",
"208 576 LINE",
"525 576 LINE",
"525 700 LINE",
"77 700 LINE",
"77 0 LINE"
);
}
);
width = 568;
}
);
leftKerningGroup = E;
rightKerningGroup = E;
unicode = 0045;
},
{
glyphname = F;
layers = (
{
layerId = UUID0;
paths = (
{
closed = 1;
nodes = (
"175 0 LINE",
"175 323 LINE",
"431 323 LINE",
"431 409 LINE",
"175 409 LINE",
"175 614 LINE",
"507 614 LINE",
"507 700 LINE",
"80 700 LINE",
"80 0 LINE"
);
}
);
width = 523;
},
{
layerId = "7C863538-AAB4-42AD-A9FE-7240E615272A";
paths = (
{
closed = 1;
nodes = (
"205 0 LINE",
"205 303 LINE",
"439 303 LINE",
"439 427 LINE",
"205 427 LINE",
"205 576 LINE",
"508 576 LINE",
"508 700 LINE",
"77 700 LINE",
"77 0 LINE"
);
}
);
width = 525;
},
{
associatedMasterId = UUID0;
layerId = "62AB85F9-D82F-4A91-AB0B-AA8D9B0B4467";
name = "Regular Sep 7 16, 14:04";
paths = (
{
closed = 1;
nodes = (
"175 0 LINE",
"175 323 LINE",
"431 323 LINE",
"431 409 LINE",
"175 409 LINE",
"175 614 LINE",
"507 614 LINE",
"507 700 LINE",
"80 700 LINE",
"80 0 LINE"
);
}
);
width = 523;
},
{
associatedMasterId = "7C863538-AAB4-42AD-A9FE-7240E615272A";
layerId = "02F23E96-E931-4C2E-926A-E3A9274AAADD";
name = "Bold Sep 7 16, 14:04";
paths = (
{
closed = 1;
nodes = (
"205 0 LINE",
"205 303 LINE",
"439 303 LINE",
"439 427 LINE",
"205 427 LINE",
"205 576 LINE",
"508 576 LINE",
"508 700 LINE",
"77 700 LINE",
"77 0 LINE"
);
}
);
width = 525;
}
);
leftKerningGroup = I;
unicode = 0046;
},
{
glyphname = G;
layers = (
{
anchors = (
{
name = bottom;
position = "{396, 0}";
},
{
name = top;
position = "{403, 700}";
}
);
layerId = UUID0;
paths = (
{
closed = 1;
nodes = (
"483 -14 OFFCURVE",
"566 9 OFFCURVE",
"621 39 CURVE",
"621 351 LINE",
"416 351 LINE",
"416 265 LINE",
"526 265 LINE",
"526 91 LINE",
"489 76 OFFCURVE",
"439 72 OFFCURVE",
"409 72 CURVE SMOOTH",
"227 72 OFFCURVE",
"143 190 OFFCURVE",
"143 350 CURVE SMOOTH",
"143 505 OFFCURVE",
"225 628 OFFCURVE",
"404 628 CURVE SMOOTH",
"473 628 OFFCURVE",
"534 612 OFFCURVE",
"589 591 CURVE",
"598 674 LINE",
"547 696 OFFCURVE",
"476 714 OFFCURVE",
"401 714 CURVE SMOOTH",
"191 714 OFFCURVE",
"39 572 OFFCURVE",
"39 351 CURVE SMOOTH",
"39 128 OFFCURVE",
"188 -14 OFFCURVE",
"382 -14 CURVE SMOOTH"
);
}
);
width = 672;
},
{
anchors = (
{
name = bottom;
position = "{391, 0}";
},
{
name = top;
position = "{401, 700}";
}
);
layerId = "7C863538-AAB4-42AD-A9FE-7240E615272A";
paths = (
{
closed = 1;
nodes = (
"484 -14 OFFCURVE",
"568 10 OFFCURVE",
"617 39 CURVE",
"617 351 LINE",
"393 351 LINE",
"393 245 LINE",
"489 245 LINE",
"489 120 LINE",
"455 113 OFFCURVE",
"422 109 OFFCURVE",
"393 109 CURVE SMOOTH",
"248 109 OFFCURVE",
"175 210 OFFCURVE",
"175 353 CURVE SMOOTH",
"175 489 OFFCURVE",
"245 591 OFFCURVE",
"401 591 CURVE SMOOTH",
"469 591 OFFCURVE",
"530 574 OFFCURVE",
"580 551 CURVE",
"594 673 LINE",
"546 697 OFFCURVE",
"475 714 OFFCURVE",
"401 714 CURVE SMOOTH",
"186 714 OFFCURVE",
"35 570 OFFCURVE",
"35 351 CURVE SMOOTH",
"35 130 OFFCURVE",
"166 -14 OFFCURVE",
"388 -14 CURVE SMOOTH"
);
}
);
width = 664;
},
{
associatedMasterId = UUID0;
layerId = "BDE03F8A-8627-49DC-B543-247E591A9FAF";
name = "Regular Sep 7 16, 14:04";
paths = (
{
closed = 1;
nodes = (
"462 -14 OFFCURVE",
"566 10 OFFCURVE",
"621 39 CURVE",
"621 351 LINE",
"416 351 LINE",
"416 265 LINE",
"526 265 LINE",
"526 91 LINE",
"489 76 OFFCURVE",
"439 72 OFFCURVE",
"409 72 CURVE SMOOTH",
"227 72 OFFCURVE",
"143 190 OFFCURVE",
"143 350 CURVE SMOOTH",
"143 505 OFFCURVE",
"222 628 OFFCURVE",
"393 628 CURVE SMOOTH",
"457 628 OFFCURVE",
"531 611 OFFCURVE",
"589 591 CURVE",
"598 674 LINE",
"545 697 OFFCURVE",
"460 714 OFFCURVE",
"390 714 CURVE SMOOTH",
"186 714 OFFCURVE",
"39 572 OFFCURVE",
"39 351 CURVE SMOOTH",
"39 128 OFFCURVE",
"188 -14 OFFCURVE",
"382 -14 CURVE"
);
}
);
width = 672;
},
{
associatedMasterId = "7C863538-AAB4-42AD-A9FE-7240E615272A";
layerId = "401FEB8B-E2D8-4409-AE40-D8A8EF6CDAD1";
name = "Bold Sep 7 16, 14:04";
paths = (
{
closed = 1;
nodes = (
"457 -14 OFFCURVE",
"566 10 OFFCURVE",
"617 39 CURVE",
"617 351 LINE",
"412 351 LINE",
"412 245 LINE",
"489 245 LINE",
"489 120 LINE",
"455 113 OFFCURVE",
"422 109 OFFCURVE",
"393 109 CURVE SMOOTH",
"248 109 OFFCURVE",
"175 210 OFFCURVE",
"175 353 CURVE SMOOTH",
"175 489 OFFCURVE",
"241 591 OFFCURVE",
"387 591 CURVE SMOOTH",
"449 591 OFFCURVE",
"526 573 OFFCURVE",
"580 551 CURVE",
"594 673 LINE",
"543 698 OFFCURVE",
"452 714 OFFCURVE",
"384 714 CURVE SMOOTH",
"179 714 OFFCURVE",
"35 570 OFFCURVE",
"35 351 CURVE SMOOTH",
"35 130 OFFCURVE",
"181 -14 OFFCURVE",
"377 -14 CURVE"
);
}
);
width = 664;
visible = 1;
}
);
leftKerningGroup = O;
unicode = 0047;
},
{
glyphname = H;
layers = (
{
anchors = (
{
name = bottom;
position = "{353, 0}";
},
{
name = top;
position = "{353, 700}";
}
);
layerId = UUID0;
paths = (
{
closed = 1;
nodes = (
"175 0 LINE",
"175 321 LINE",
"531 321 LINE",
"531 0 LINE",
"626 0 LINE",
"626 700 LINE",
"531 700 LINE",
"531 411 LINE",
"175 411 LINE",
"175 700 LINE",
"80 700 LINE",
"80 0 LINE"
);
}
);
width = 706;
},
{
anchors = (
{
name = bottom;
position = "{365, 0}";
},
{
name = top;
position = "{365, 700}";
}
);
layerId = "7C863538-AAB4-42AD-A9FE-7240E615272A";
paths = (
{
closed = 1;
nodes = (
"205 0 LINE",
"205 303 LINE",
"525 303 LINE",
"525 0 LINE",
"653 0 LINE",
"653 700 LINE",
"525 700 LINE",
"525 423 LINE",
"205 423 LINE",
"205 700 LINE",
"77 700 LINE",
"77 0 LINE"
);
}
);
width = 730;
},
{
associatedMasterId = UUID0;
layerId = "135CE4C9-E666-471E-8D69-B4D1AB87DF32";
name = "Regular Sep 7 16, 14:04";
paths = (
{
closed = 1;
nodes = (
"175 0 LINE",
"175 321 LINE",
"571 321 LINE",
"571 0 LINE",
"666 0 LINE",
"666 700 LINE",
"571 700 LINE",
"571 411 LINE",
"175 411 LINE",
"175 700 LINE",
"80 700 LINE",
"80 0 LINE"
);
}
);
width = 746;
},
{
associatedMasterId = "7C863538-AAB4-42AD-A9FE-7240E615272A";
layerId = "8B90DC92-B609-4AF1-85A2-CB596AED2038";
name = "Bold Sep 7 16, 14:04";
paths = (
{
closed = 1;
nodes = (
"205 0 LINE",
"205 303 LINE",
"535 303 LINE",
"535 0 LINE",
"663 0 LINE",
"663 700 LINE",
"535 700 LINE",
"535 427 LINE",
"205 427 LINE",
"205 700 LINE",
"77 700 LINE",
"77 0 LINE"
);
}
);
width = 740;
}
);
leftKerningGroup = I;
rightKerningGroup = I;
unicode = 0048;
},
{
glyphname = I;
layers = (
{
anchors = (
{
name = bottom;
position = "{128, 0}";
},
{
name = ogonek;
position = "{229, 10}";
},
{
name = top;
position = "{128, 700}";
},
{
name = topleft;
position = "{20, 700}";
}
);
layerId = UUID0;
paths = (
{
closed = 1;
nodes = (
"175 0 LINE",
"175 700 LINE",
"80 700 LINE",
"80 0 LINE"
);
}
);
width = 255;
},
{
anchors = (
{
name = bottom;
position = "{141, 0}";
},
{
name = ogonek;
position = "{254, 10}";
},
{
name = top;
position = "{141, 700}";
},
{
name = topleft;
position = "{20, 700}";
}
);
layerId = "7C863538-AAB4-42AD-A9FE-7240E615272A";
paths = (
{
closed = 1;
nodes = (
"205 0 LINE",
"205 700 LINE",
"77 700 LINE",
"77 0 LINE"
);
}
);
width = 282;
},
{
anchors = (
{
name = bottom;
position = "{128, 0}";
},
{
name = ogonek;
position = "{229, 10}";
},
{
name = top;
position = "{128, 700}";
},
{
name = topleft;
position = "{20, 700}";
}
);
associatedMasterId = UUID0;
layerId = "525849ED-7B67-43BA-B88C-4FEAA2A33F2B";
name = "Regular Sep 7 16, 14:04";
paths = (
{
closed = 1;
nodes = (
"175 0 LINE",
"175 700 LINE",
"80 700 LINE",
"80 0 LINE"
);
}
);
width = 255;
},
{
anchors = (
{
name = bottom;
position = "{141, 0}";
},
{
name = ogonek;
position = "{254, 10}";
},
{
name = top;
position = "{141, 700}";
},
{
name = topleft;
position = "{20, 700}";
}
);
associatedMasterId = "7C863538-AAB4-42AD-A9FE-7240E615272A";
layerId = "A4761CCA-F82F-4BD9-80FB-ADDE81172851";
name = "Bold Sep 7 16, 14:04";
paths = (
{
closed = 1;
nodes = (
"205 0 LINE",
"205 700 LINE",
"77 700 LINE",
"77 0 LINE"
);
}
);
width = 282;
}
);
leftKerningGroup = I;
rightKerningGroup = I;
unicode = 0049;
},
{
glyphname = J;
layers = (
{
anchors = (
{
name = top;
position = "{128, 700}";
}
);
layerId = UUID0;
paths = (
{
closed = 1;
nodes = (
"9 -172 LINE SMOOTH",
"124 -172 OFFCURVE",
"175 -122 OFFCURVE",
"175 -32 CURVE SMOOTH",
"175 700 LINE",
"80 700 LINE",
"80 -3 LINE SMOOTH",
"80 -81 OFFCURVE",
"63 -116 OFFCURVE",
"-14 -116 CURVE SMOOTH",
"-17 -116 LINE",
"-7 -172 LINE"
);
}
);
width = 255;
},
{
anchors = (
{
name = top;
position = "{141, 700}";
}
);
layerId = "7C863538-AAB4-42AD-A9FE-7240E615272A";
paths = (
{
closed = 1;
nodes = (
"43 -172 LINE SMOOTH",
"143 -172 OFFCURVE",
"205 -124 OFFCURVE",
"205 -24 CURVE SMOOTH",
"205 700 LINE",
"77 700 LINE",
"77 4 LINE SMOOTH",
"77 -51 OFFCURVE",
"64 -76 OFFCURVE",
"24 -76 CURVE SMOOTH",
"-3 -76 LINE",
"7 -172 LINE"
);
}
);
width = 282;
},
{
associatedMasterId = UUID0;
layerId = "5F0F720F-D4C6-4761-B74D-F5C2A8A6F4D9";
name = "Regular Sep 7 16, 14:04";
paths = (
{
closed = 1;
nodes = (
"9 -172 LINE SMOOTH",
"124 -172 OFFCURVE",
"175 -122 OFFCURVE",
"175 -32 CURVE SMOOTH",
"175 700 LINE",
"80 700 LINE",
"80 -3 LINE SMOOTH",
"80 -81 OFFCURVE",
"63 -116 OFFCURVE",
"-14 -116 CURVE SMOOTH",
"-17 -116 LINE",
"-7 -172 LINE"
);
}
);
width = 255;
},
{
associatedMasterId = "7C863538-AAB4-42AD-A9FE-7240E615272A";
layerId = "85804647-F065-48D3-B57F-7015F58BA85C";
name = "Bold Sep 7 16, 14:04";
paths = (
{
closed = 1;
nodes = (
"43 -172 LINE SMOOTH",
"143 -172 OFFCURVE",
"205 -124 OFFCURVE",
"205 -24 CURVE SMOOTH",
"205 700 LINE",
"77 700 LINE",
"77 4 LINE SMOOTH",
"77 -51 OFFCURVE",
"64 -76 OFFCURVE",
"24 -76 CURVE SMOOTH",
"-3 -76 LINE",
"7 -172 LINE"
);
}
);
width = 282;
}
);
unicode = 004A;
},
{
glyphname = K;
layers = (
{
layerId = UUID0;
paths = (
{
closed = 1;
nodes = (
"581 0 LINE",
"317 373 LINE",
"578 700 LINE",
"473 700 LINE",
"214 371 LINE",
"473 0 LINE"
);
},
{
closed = 1;
nodes = (
"175 0 LINE",
"175 700 LINE",
"80 700 LINE",
"80 0 LINE"
);
}
);
width = 577;
},
{
layerId = "7C863538-AAB4-42AD-A9FE-7240E615272A";
paths = (
{
closed = 1;
nodes = (
"618 0 LINE",
"366 370 LINE",
"618 700 LINE",
"474 700 LINE",
"230 370 LINE",
"474 0 LINE"
);
},
{
closed = 1;
nodes = (
"205 0 LINE",
"205 700 LINE",
"77 700 LINE",
"77 0 LINE"
);
}
);
width = 621;
},
{
associatedMasterId = UUID0;
layerId = "5793FEEF-6FB1-45A8-A562-D1A12D4700F4";
name = "Regular Sep 7 16, 14:04";
paths = (
{
closed = 1;
nodes = (
"573 0 LINE",
"314 371 LINE",
"573 700 LINE",
"473 700 LINE",
"214 371 LINE",
"473 0 LINE"
);
},
{
closed = 1;
nodes = (
"175 0 LINE",
"175 700 LINE",
"80 700 LINE",
"80 0 LINE"
);
}
);
width = 577;
},
{
associatedMasterId = "7C863538-AAB4-42AD-A9FE-7240E615272A";
layerId = "0F9751A4-6C52-4A70-B363-963DF947A431";
name = "Bold Sep 7 16, 14:04";
paths = (
{
closed = 1;
nodes = (
"618 0 LINE",
"374 370 LINE",
"618 700 LINE",
"474 700 LINE",
"230 370 LINE",
"474 0 LINE"
);
},
{
closed = 1;
nodes = (
"205 0 LINE",
"205 700 LINE",
"77 700 LINE",
"77 0 LINE"
);
}
);
width = 621;
}
);
leftKerningGroup = I;
unicode = 004B;
},
{
glyphname = L;
layers = (
{
anchors = (
{
name = bottom;
position = "{251, 0}";
},
{
name = center;
position = "{251, 350}";
},
{
name = top;
position = "{128, 700}";
},
{
name = topright;
position = "{481, 700}";
}
);
layerId = UUID0;
paths = (
{
closed = 1;
nodes = (
"496 0 LINE",
"496 86 LINE",
"175 86 LINE",
"175 700 LINE",
"80 700 LINE",
"80 0 LINE"
);
}
);
width = 501;
},
{
anchors = (
{
name = bottom;
position = "{250, 0}";
},
{
name = center;
position = "{250, 350}";
},
{
name = top;
position = "{141, 700}";
},
{
name = topright;
position = "{480, 700}";
}
);
layerId = "7C863538-AAB4-42AD-A9FE-7240E615272A";
paths = (
{
closed = 1;
nodes = (
"493 0 LINE",
"493 124 LINE",
"205 124 LINE",
"205 700 LINE",
"77 700 LINE",
"77 0 LINE"
);
}
);
width = 500;
},
{
associatedMasterId = UUID0;
layerId = "AAA7357E-E947-4C67-BBD4-6C7E2B70345C";
name = "Regular Sep 7 16, 14:04";
paths = (
{
closed = 1;
nodes = (
"496 0 LINE",
"496 86 LINE",
"175 86 LINE",
"175 700 LINE",
"80 700 LINE",
"80 0 LINE"
);
}
);
width = 501;
},
{
associatedMasterId = "7C863538-AAB4-42AD-A9FE-7240E615272A";
layerId = "AFAC02C0-5375-4A68-84BF-B33DA7C5FF0B";
name = "Bold Sep 7 16, 14:04";
paths = (
{
closed = 1;
nodes = (
"493 0 LINE",
"493 124 LINE",
"205 124 LINE",
"205 700 LINE",
"77 700 LINE",
"77 0 LINE"
);
}
);
width = 500;
}
);
leftKerningGroup = I;
unicode = 004C;
},
{
glyphname = M;
layers = (
{
layerId = UUID0;
paths = (
{
closed = 1;
nodes = (
"148 0 LINE",
"214 529 LINE",
"408 166 LINE",
"598 529 LINE",
"664 0 LINE",
"764 0 LINE",
"671 700 LINE",
"589 700 LINE",
"407 353 LINE",
"223 700 LINE",
"142 700 LINE",
"48 0 LINE"
);
}
);
width = 812;
},
{
layerId = "7C863538-AAB4-42AD-A9FE-7240E615272A";
paths = (
{
closed = 1;
nodes = (
"177 0 LINE",
"237 468 LINE",
"417 147 LINE",
"596 469 LINE",
"656 0 LINE",
"789 0 LINE",
"692 700 LINE",
"587 700 LINE",
"417 381 LINE",
"246 700 LINE",
"141 700 LINE",
"44 0 LINE"
);
}
);
width = 833;
},
{
associatedMasterId = UUID0;
layerId = "49D65162-A28E-42EC-9100-F1EEFF603694";
name = "Regular Sep 7 16, 14:04";
paths = (
{
closed = 1;
nodes = (
"148 0 LINE",
"214 529 LINE",
"408 166 LINE",
"598 529 LINE",
"664 0 LINE",
"764 0 LINE",
"671 700 LINE",
"589 700 LINE",
"407 353 LINE",
"223 700 LINE",
"142 700 LINE",
"48 0 LINE"
);
}
);
width = 812;
},
{
associatedMasterId = "7C863538-AAB4-42AD-A9FE-7240E615272A";
layerId = "56A6EF91-75D8-405B-9360-7CBB9B2855F9";
name = "Bold Sep 7 16, 14:04";
paths = (
{
closed = 1;
nodes = (
"177 0 LINE",
"237 468 LINE",
"417 147 LINE",
"596 469 LINE",
"656 0 LINE",
"789 0 LINE",
"692 700 LINE",
"587 700 LINE",
"417 381 LINE",
"246 700 LINE",
"141 700 LINE",
"44 0 LINE"
);
}
);
width = 833;
}
);
unicode = 004D;
},
{
glyphname = N;
layers = (
{
anchors = (
{
name = bottom;
position = "{359, 0}";
},
{
name = top;
position = "{356, 700}";
}
);
layerId = UUID0;
paths = (
{
closed = 1;
nodes = (
"175 0 LINE",
"175 553 LINE",
"543 0 LINE",
"624 0 LINE",
"624 700 LINE",
"528 700 LINE",
"528 176 LINE",
"183 700 LINE",
"80 700 LINE",
"80 0 LINE"
);
}
);
width = 704;
},
{
anchors = (
{
name = bottom;
position = "{365, 0}";
},
{
name = top;
position = "{353, 700}";
}
);
layerId = "7C863538-AAB4-42AD-A9FE-7240E615272A";
paths = (
{
closed = 1;
nodes = (
"205 0 LINE",
"205 480 LINE",
"525 0 LINE",
"630 0 LINE",
"630 700 LINE",
"502 700 LINE",
"502 248 LINE",
"203 700 LINE",
"77 700 LINE",
"77 0 LINE"
);
}
);
width = 707;
},
{
anchors = (
{
name = bottom;
position = "{359, 0}";
},
{
name = top;
position = "{356, 700}";
}
);
associatedMasterId = UUID0;
layerId = "8B64B668-D02D-4D54-BFC8-07F2135EA705";
name = "Regular Sep 7 16, 14:04";
paths = (
{
closed = 1;
nodes = (
"175 0 LINE",
"175 553 LINE",
"543 0 LINE",
"624 0 LINE",
"624 700 LINE",
"528 700 LINE",
"528 176 LINE",
"183 700 LINE",
"80 700 LINE",
"80 0 LINE"
);
}
);
width = 704;
},
{
anchors = (
{
name = bottom;
position = "{360.53, 0}";
},
{
name = top;
position = "{357.517, 700}";
}
);
associatedMasterId = "7C863538-AAB4-42AD-A9FE-7240E615272A";
layerId = "F906FCDF-DE6F-43EF-AFFE-5D864AA333C7";
name = "Bold Sep 7 16, 14:04";
paths = (
{
closed = 1;
nodes = (
"205 0 LINE",
"205 480 LINE",
"525 0 LINE",
"630 0 LINE",
"630 700 LINE",
"502 700 LINE",
"502 248 LINE",
"203 700 LINE",
"77 700 LINE",
"77 0 LINE"
);
}
);
width = 707;
}
);
leftKerningGroup = I;
rightKerningGroup = I;
unicode = 004E;
},
{
glyphname = O;
layers = (
{
anchors = (
{
name = bottom;
position = "{384, 0}";
},
{
name = center;
position = "{384, 350}";
},
{
name = ogonek;
position = "{691, 10}";
},
{
name = top;
position = "{384, 700}";
},
{
name = topleft;
position = "{20, 700}";
},
{
name = topright;
position = "{563, 700}";
}
);
layerId = UUID0;
paths = (
{
closed = 1;
nodes = (
"584 -14 OFFCURVE",
"729 128 OFFCURVE",
"729 350 CURVE SMOOTH",
"729 572 OFFCURVE",
"584 714 OFFCURVE",
"384 714 CURVE SMOOTH",
"184 714 OFFCURVE",
"39 572 OFFCURVE",
"39 350 CURVE SMOOTH",
"39 128 OFFCURVE",
"184 -14 OFFCURVE",
"384 -14 CURVE"
);
},
{
closed = 1;
nodes = (
"224 72 OFFCURVE",
"143 195 OFFCURVE",
"143 350 CURVE SMOOTH",
"143 505 OFFCURVE",
"224 628 OFFCURVE",
"384 628 CURVE SMOOTH",
"544 628 OFFCURVE",
"625 505 OFFCURVE",
"625 350 CURVE SMOOTH",
"625 195 OFFCURVE",
"544 72 OFFCURVE",
"384 72 CURVE SMOOTH"
);
}
);
width = 768;
},
{
anchors = (
{
name = bottom;
position = "{380, 0}";
},
{
name = center;
position = "{380, 350}";
},
{
name = ogonek;
position = "{684, 10}";
},
{
name = top;
position = "{380, 700}";
},
{
name = topleft;
position = "{20, 700}";
},
{
name = topright;
position = "{574, 700}";
}
);
layerId = "7C863538-AAB4-42AD-A9FE-7240E615272A";
paths = (
{
closed = 1;
nodes = (
"580 -14 OFFCURVE",
"725 130 OFFCURVE",
"725 350 CURVE SMOOTH",
"725 570 OFFCURVE",
"580 714 OFFCURVE",
"380 714 CURVE SMOOTH",
"180 714 OFFCURVE",
"35 570 OFFCURVE",
"35 350 CURVE SMOOTH",
"35 130 OFFCURVE",
"180 -14 OFFCURVE",
"380 -14 CURVE"
);
},
{
closed = 1;
nodes = (
"244 109 OFFCURVE",
"175 210 OFFCURVE",
"175 350 CURVE SMOOTH",
"175 490 OFFCURVE",
"244 591 OFFCURVE",
"380 591 CURVE SMOOTH",
"516 591 OFFCURVE",
"585 490 OFFCURVE",
"585 350 CURVE SMOOTH",
"585 210 OFFCURVE",
"516 109 OFFCURVE",
"380 109 CURVE SMOOTH"
);
}
);
width = 760;
},
{
anchors = (
{
name = bottom;
position = "{384, 0}";
},
{
name = center;
position = "{384, 350}";
},
{
name = ogonek;
position = "{691, 10}";
},
{
name = top;
position = "{384, 700}";
},
{
name = topleft;
position = "{20, 700}";
},
{
name = topright;
position = "{563, 700}";
}
);
associatedMasterId = UUID0;
layerId = "7E45970F-A745-4B4E-B89A-68BA4D1F5874";
name = "Regular Sep 7 16, 14:04";
paths = (
{
closed = 1;
nodes = (
"584 -14 OFFCURVE",
"729 128 OFFCURVE",
"729 350 CURVE SMOOTH",
"729 572 OFFCURVE",
"584 714 OFFCURVE",
"384 714 CURVE SMOOTH",
"184 714 OFFCURVE",
"39 572 OFFCURVE",
"39 350 CURVE SMOOTH",
"39 128 OFFCURVE",
"184 -14 OFFCURVE",
"384 -14 CURVE"
);
},
{
closed = 1;
nodes = (
"224 72 OFFCURVE",
"143 195 OFFCURVE",
"143 350 CURVE SMOOTH",
"143 505 OFFCURVE",
"224 628 OFFCURVE",
"384 628 CURVE",
"544 628 OFFCURVE",
"625 505 OFFCURVE",
"625 350 CURVE SMOOTH",
"625 195 OFFCURVE",
"544 72 OFFCURVE",
"384 72 CURVE SMOOTH"
);
}
);
width = 768;
},
{
anchors = (
{
name = bottom;
position = "{380, 0}";
},
{
name = center;
position = "{380, 350}";
},
{
name = ogonek;
position = "{684, 10}";
},
{
name = top;
position = "{380, 700}";
},
{
name = topleft;
position = "{20, 700}";
},
{
name = topright;
position = "{574, 700}";
}
);
associatedMasterId = "7C863538-AAB4-42AD-A9FE-7240E615272A";
layerId = "E8905CB5-8511-4479-BCD6-8FDBCB1B5C03";
name = "Bold Sep 7 16, 14:04";
paths = (
{
closed = 1;
nodes = (
"580 -14 OFFCURVE",
"725 130 OFFCURVE",
"725 350 CURVE SMOOTH",
"725 570 OFFCURVE",
"580 714 OFFCURVE",
"380 714 CURVE SMOOTH",
"180 714 OFFCURVE",
"35 570 OFFCURVE",
"35 350 CURVE SMOOTH",
"35 130 OFFCURVE",
"180 -14 OFFCURVE",
"380 -14 CURVE"
);
},
{
closed = 1;
nodes = (
"244 109 OFFCURVE",
"175 210 OFFCURVE",
"175 350 CURVE SMOOTH",
"175 490 OFFCURVE",
"244 591 OFFCURVE",
"380 591 CURVE",
"516 591 OFFCURVE",
"585 490 OFFCURVE",
"585 350 CURVE SMOOTH",
"585 210 OFFCURVE",
"516 109 OFFCURVE",
"380 109 CURVE SMOOTH"
);
}
);
width = 760;
}
);
leftKerningGroup = O;
rightKerningGroup = O;
unicode = 004F;
},
{
color = 4;
glyphname = P;
layers = (
{
background = {
paths = (
{
closed = 1;
nodes = (
"330 245 LINE SMOOTH",
"423 245 OFFCURVE",
"546 300 OFFCURVE",
"546 482 CURVE SMOOTH",
"546 670 OFFCURVE",
"453 700 OFFCURVE",
"252 700 CURVE SMOOTH",
"64 700 LINE",
"64 0 LINE",
"164 0 LINE",
"164 245 LINE"
);
},
{
closed = 1;
nodes = (
"284 615 LINE SMOOTH",
"407 615 OFFCURVE",
"447 578 OFFCURVE",
"447 478 CURVE SMOOTH",
"447 384 OFFCURVE",
"409 330 OFFCURVE",
"312 330 CURVE SMOOTH",
"164 330 LINE",
"164 615 LINE"
);
}
);
};
layerId = UUID0;
paths = (
{
closed = 1;
nodes = (
"180 0 LINE",
"180 245 LINE",
"311 245 LINE SMOOTH",
"452 245 OFFCURVE",
"548 312 OFFCURVE",
"548 473 CURVE SMOOTH",
"548 637 OFFCURVE",
"452 700 OFFCURVE",
"311 700 CURVE SMOOTH",
"80 700 LINE",
"80 0 LINE"
);
},
{
closed = 1;
nodes = (
"180 615 LINE",
"297 615 LINE SMOOTH",
"403 615 OFFCURVE",
"449 569 OFFCURVE",
"449 472 CURVE SMOOTH",
"449 375 OFFCURVE",
"398 330 OFFCURVE",
"297 330 CURVE SMOOTH",
"180 330 LINE"
);
}
);
width = 572;
},
{
background = {
paths = (
{
closed = 1;
nodes = (
"264 230 LINE SMOOTH",
"480 230 OFFCURVE",
"575 288 OFFCURVE",
"575 478 CURVE SMOOTH",
"575 670 OFFCURVE",
"469 700 OFFCURVE",
"275 700 CURVE SMOOTH",
"77 700 LINE",
"77 0 LINE",
"205 0 LINE",
"205 230 LINE"
);
},
{
closed = 1;
nodes = (
"310 593 LINE SMOOTH",
"417 593 OFFCURVE",
"445 557 OFFCURVE",
"445 477 CURVE SMOOTH",
"445 382 OFFCURVE",
"406 350 OFFCURVE",
"313 350 CURVE SMOOTH",
"205 350 LINE",
"205 593 LINE"
);
}
);
};
layerId = "7C863538-AAB4-42AD-A9FE-7240E615272A";
paths = (
{
closed = 1;
nodes = (
"205 0 LINE",
"205 243 LINE",
"329 243 LINE SMOOTH",
"487 243 OFFCURVE",
"575 316 OFFCURVE",
"575 474 CURVE SMOOTH",
"575 630 OFFCURVE",
"487 700 OFFCURVE",
"326 700 CURVE SMOOTH",
"77 700 LINE",
"77 0 LINE"
);
},
{
closed = 1;
nodes = (
"205 593 LINE",
"311 593 LINE SMOOTH",
"401 593 OFFCURVE",
"445 556 OFFCURVE",
"445 472 CURVE SMOOTH",
"445 388 OFFCURVE",
"401 350 OFFCURVE",
"314 350 CURVE SMOOTH",
"205 350 LINE"
);
}
);
width = 596;
},
{
associatedMasterId = UUID0;
background = {
paths = (
{
closed = 1;
nodes = (
"330 245 LINE SMOOTH",
"423 245 OFFCURVE",
"546 300 OFFCURVE",
"546 482 CURVE SMOOTH",
"546 670 OFFCURVE",
"453 700 OFFCURVE",
"252 700 CURVE SMOOTH",
"64 700 LINE",
"64 0 LINE",
"164 0 LINE",
"164 245 LINE"
);
},
{
closed = 1;
nodes = (
"284 615 LINE SMOOTH",
"407 615 OFFCURVE",
"447 578 OFFCURVE",
"447 478 CURVE SMOOTH",
"447 384 OFFCURVE",
"409 330 OFFCURVE",
"312 330 CURVE SMOOTH",
"164 330 LINE",
"164 615 LINE"
);
}
);
};
layerId = "245AF583-0EB8-4E1A-920B-20FF58D64D55";
name = "Regular Sep 7 16, 14:04";
paths = (
{
closed = 1;
nodes = (
"180 0 LINE",
"180 245 LINE",
"332 245 LINE SMOOTH",
"425 245 OFFCURVE",
"548 300 OFFCURVE",
"548 482 CURVE SMOOTH",
"548 670 OFFCURVE",
"434 700 OFFCURVE",
"304 700 CURVE SMOOTH",
"80 700 LINE",
"80 0 LINE"
);
},
{
closed = 1;
nodes = (
"180 615 LINE",
"286 615 LINE SMOOTH",
"409 615 OFFCURVE",
"449 578 OFFCURVE",
"449 478 CURVE SMOOTH",
"449 384 OFFCURVE",
"411 330 OFFCURVE",
"314 330 CURVE SMOOTH",
"180 330 LINE"
);
}
);
width = 572;
visible = 1;
},
{
associatedMasterId = "7C863538-AAB4-42AD-A9FE-7240E615272A";
background = {
paths = (
{
closed = 1;
nodes = (
"264 230 LINE SMOOTH",
"480 230 OFFCURVE",
"575 288 OFFCURVE",
"575 478 CURVE SMOOTH",
"575 670 OFFCURVE",
"469 700 OFFCURVE",
"275 700 CURVE SMOOTH",
"77 700 LINE",
"77 0 LINE",
"205 0 LINE",
"205 230 LINE"
);
},
{
closed = 1;
nodes = (
"310 593 LINE SMOOTH",
"417 593 OFFCURVE",
"445 557 OFFCURVE",
"445 477 CURVE SMOOTH",
"445 382 OFFCURVE",
"406 350 OFFCURVE",
"313 350 CURVE SMOOTH",
"205 350 LINE",
"205 593 LINE"
);
}
);
};
layerId = "70BF247B-CFAA-4243-8112-0DF3AA9DD639";
name = "Bold Sep 7 16, 14:04";
paths = (
{
closed = 1;
nodes = (
"205 0 LINE",
"205 230 LINE",
"330 230 LINE SMOOTH",
"429 230 OFFCURVE",
"575 277 OFFCURVE",
"575 478 CURVE SMOOTH",
"575 670 OFFCURVE",
"469 700 OFFCURVE",
"275 700 CURVE SMOOTH",
"77 700 LINE",
"77 0 LINE"
);
},
{
closed = 1;
nodes = (
"205 593 LINE",
"310 593 LINE SMOOTH",
"417 593 OFFCURVE",
"445 557 OFFCURVE",
"445 477 CURVE SMOOTH",
"445 382 OFFCURVE",
"406 350 OFFCURVE",
"313 350 CURVE SMOOTH",
"205 350 LINE"
);
}
);
width = 596;
}
);
leftKerningGroup = I;
unicode = 0050;
},
{
glyphname = Q;
layers = (
{
layerId = UUID0;
paths = (
{
closed = 1;
nodes = (
"462 -14 OFFCURVE",
"532 8 OFFCURVE",
"600 57 CURVE",
"665 3 LINE",
"715 62 LINE",
"655 111 LINE",
"706 187 OFFCURVE",
"729 263 OFFCURVE",
"729 350 CURVE SMOOTH",
"729 572 OFFCURVE",
"584 714 OFFCURVE",
"384 714 CURVE SMOOTH",
"184 714 OFFCURVE",
"39 572 OFFCURVE",
"39 350 CURVE SMOOTH",
"39 128 OFFCURVE",
"184 -14 OFFCURVE",
"384 -14 CURVE SMOOTH"
);
},
{
closed = 1;
nodes = (
"222 72 OFFCURVE",
"143 194 OFFCURVE",
"143 350 CURVE SMOOTH",
"143 506 OFFCURVE",
"222 628 OFFCURVE",
"384 628 CURVE",
"546 628 OFFCURVE",
"635 506 OFFCURVE",
"635 350 CURVE SMOOTH",
"635 294 OFFCURVE",
"631 233 OFFCURVE",
"587 164 CURVE",
"482 257 LINE",
"432 196 LINE",
"535 112 LINE",
"490 79 OFFCURVE",
"429 72 OFFCURVE",
"384 72 CURVE SMOOTH"
);
}
);
width = 768;
},
{
layerId = "7C863538-AAB4-42AD-A9FE-7240E615272A";
paths = (
{
closed = 1;
nodes = (
"457 -14 OFFCURVE",
"527 7 OFFCURVE",
"582 47 CURVE",
"651 -10 LINE",
"725 79 LINE",
"663 130 LINE",
"702 189 OFFCURVE",
"725 264 OFFCURVE",
"725 350 CURVE SMOOTH",
"725 570 OFFCURVE",
"580 714 OFFCURVE",
"380 714 CURVE SMOOTH",
"180 714 OFFCURVE",
"35 570 OFFCURVE",
"35 350 CURVE SMOOTH",
"35 130 OFFCURVE",
"180 -14 OFFCURVE",
"380 -14 CURVE SMOOTH"
);
},
{
closed = 1;
nodes = (
"244 109 OFFCURVE",
"175 210 OFFCURVE",
"175 350 CURVE SMOOTH",
"175 490 OFFCURVE",
"244 591 OFFCURVE",
"380 591 CURVE",
"516 591 OFFCURVE",
"585 490 OFFCURVE",
"585 350 CURVE SMOOTH",
"585 300 OFFCURVE",
"576 255 OFFCURVE",
"558 218 CURVE",
"470 292 LINE",
"396 203 LINE",
"480 132 LINE",
"452 117 OFFCURVE",
"419 109 OFFCURVE",
"380 109 CURVE SMOOTH"
);
}
);
width = 760;
},
{
associatedMasterId = UUID0;
layerId = "13B6650E-EE8C-44A1-B9A7-471E487220D1";
name = "Regular Sep 7 16, 14:04";
paths = (
{
closed = 1;
nodes = (
"462 -14 OFFCURVE",
"532 8 OFFCURVE",
"600 57 CURVE",
"665 3 LINE",
"715 62 LINE",
"655 111 LINE",
"706 187 OFFCURVE",
"729 263 OFFCURVE",
"729 350 CURVE SMOOTH",
"729 572 OFFCURVE",
"584 714 OFFCURVE",
"384 714 CURVE SMOOTH",
"184 714 OFFCURVE",
"39 572 OFFCURVE",
"39 350 CURVE SMOOTH",
"39 128 OFFCURVE",
"184 -14 OFFCURVE",
"384 -14 CURVE SMOOTH"
);
},
{
closed = 1;
nodes = (
"222 72 OFFCURVE",
"143 194 OFFCURVE",
"143 350 CURVE SMOOTH",
"143 506 OFFCURVE",
"222 628 OFFCURVE",
"384 628 CURVE",
"546 628 OFFCURVE",
"635 506 OFFCURVE",
"635 350 CURVE SMOOTH",
"635 294 OFFCURVE",
"631 233 OFFCURVE",
"587 164 CURVE",
"482 257 LINE",
"432 196 LINE",
"535 112 LINE",
"490 79 OFFCURVE",
"429 72 OFFCURVE",
"384 72 CURVE SMOOTH"
);
}
);
width = 768;
},
{
associatedMasterId = "7C863538-AAB4-42AD-A9FE-7240E615272A";
layerId = "07DFF14C-DB06-4784-9037-7332FF84B373";
name = "Bold Sep 7 16, 14:04";
paths = (
{
closed = 1;
nodes = (
"457 -14 OFFCURVE",
"527 7 OFFCURVE",
"582 47 CURVE",
"651 -10 LINE",
"725 79 LINE",
"663 130 LINE",
"702 189 OFFCURVE",
"725 264 OFFCURVE",
"725 350 CURVE SMOOTH",
"725 570 OFFCURVE",
"580 714 OFFCURVE",
"380 714 CURVE SMOOTH",
"180 714 OFFCURVE",
"35 570 OFFCURVE",
"35 350 CURVE SMOOTH",
"35 130 OFFCURVE",
"180 -14 OFFCURVE",
"380 -14 CURVE SMOOTH"
);
},
{
closed = 1;
nodes = (
"244 109 OFFCURVE",
"175 210 OFFCURVE",
"175 350 CURVE SMOOTH",
"175 490 OFFCURVE",
"244 591 OFFCURVE",
"380 591 CURVE",
"516 591 OFFCURVE",
"585 490 OFFCURVE",
"585 350 CURVE SMOOTH",
"585 300 OFFCURVE",
"576 255 OFFCURVE",
"558 218 CURVE",
"470 292 LINE",
"396 203 LINE",
"480 132 LINE",
"452 117 OFFCURVE",
"419 109 OFFCURVE",
"380 109 CURVE SMOOTH"
);
}
);
width = 760;
}
);
leftKerningGroup = O;
rightKerningGroup = O;
unicode = 0051;
},
{
glyphname = R;
layers = (
{
anchors = (
{
name = bottom;
position = "{331, 0}";
},
{
name = top;
position = "{307, 700}";
}
);
layerId = UUID0;
paths = (
{
closed = 1;
nodes = (
"180 0 LINE",
"180 273 LINE",
"327 273 LINE",
"482 0 LINE",
"584 0 LINE",
"425 291 LINE",
"505 328 OFFCURVE",
"549 391 OFFCURVE",
"549 487 CURVE SMOOTH",
"549 635 OFFCURVE",
"453 700 OFFCURVE",
"307 700 CURVE SMOOTH",
"80 700 LINE",
"80 0 LINE"
);
},
{
closed = 1;
nodes = (
"180 623 LINE",
"306 623 LINE SMOOTH",
"401 623 OFFCURVE",
"450 573 OFFCURVE",
"450 487 CURVE SMOOTH",
"450 401 OFFCURVE",
"401 348 OFFCURVE",
"306 348 CURVE SMOOTH",
"180 348 LINE"
);
}
);
width = 603;
},
{
anchors = (
{
name = bottom;
position = "{343, 0}";
},
{
name = top;
position = "{319, 700}";
}
);
layerId = "7C863538-AAB4-42AD-A9FE-7240E615272A";
paths = (
{
closed = 1;
nodes = (
"205 0 LINE",
"205 260 LINE",
"335 260 LINE",
"480 0 LINE",
"613 0 LINE",
"455 294 LINE",
"526 329 OFFCURVE",
"574 385 OFFCURVE",
"574 488 CURVE SMOOTH",
"574 632 OFFCURVE",
"478 700 OFFCURVE",
"333 700 CURVE SMOOTH",
"77 700 LINE",
"77 0 LINE"
);
},
{
closed = 1;
nodes = (
"205 593 LINE",
"304 593 LINE SMOOTH",
"404 593 OFFCURVE",
"440 551 OFFCURVE",
"440 481 CURVE SMOOTH",
"440 415 OFFCURVE",
"404 367 OFFCURVE",
"299 367 CURVE SMOOTH",
"205 367 LINE"
);
}
);
width = 626;
},
{
anchors = (
{
name = bottom;
position = "{330.398, 0}";
},
{
name = top;
position = "{307.28, 700}";
}
);
associatedMasterId = UUID0;
layerId = "312694A0-52E8-402E-A029-2652740DDAE5";
name = "Regular Sep 7 16, 14:04";
paths = (
{
closed = 1;
nodes = (
"180 0 LINE",
"180 273 LINE",
"327 273 LINE",
"482 0 LINE",
"584 0 LINE",
"421 298 LINE",
"502 336 OFFCURVE",
"549 409 OFFCURVE",
"549 495 CURVE SMOOTH",
"549 652 OFFCURVE",
"453 700 OFFCURVE",
"307 700 CURVE SMOOTH",
"80 700 LINE",
"80 0 LINE"
);
},
{
closed = 1;
nodes = (
"180 623 LINE",
"306 623 LINE SMOOTH",
"401 623 OFFCURVE",
"450 576 OFFCURVE",
"450 495 CURVE SMOOTH",
"450 397 OFFCURVE",
"383 365 OFFCURVE",
"331 365 CURVE SMOOTH",
"180 365 LINE"
);
}
);
width = 603;
},
{
anchors = (
{
name = bottom;
position = "{343, 0}";
},
{
name = top;
position = "{319, 700}";
}
);
associatedMasterId = "7C863538-AAB4-42AD-A9FE-7240E615272A";
layerId = "2E03E743-B312-4B57-81AB-DEEF8235C446";
name = "Bold Sep 7 16, 14:04";
paths = (
{
closed = 1;
nodes = (
"205 0 LINE",
"205 260 LINE",
"335 260 LINE",
"480 0 LINE",
"613 0 LINE",
"455 294 LINE",
"521 335 OFFCURVE",
"574 390 OFFCURVE",
"574 498 CURVE SMOOTH",
"574 650 OFFCURVE",
"468 700 OFFCURVE",
"333 700 CURVE SMOOTH",
"77 700 LINE",
"77 0 LINE"
);
},
{
closed = 1;
nodes = (
"205 593 LINE",
"304 593 LINE SMOOTH",
"414 593 OFFCURVE",
"440 554 OFFCURVE",
"440 489 CURVE SMOOTH",
"440 426 OFFCURVE",
"415 380 OFFCURVE",
"299 380 CURVE SMOOTH",
"205 380 LINE"
);
}
);
width = 626;
visible = 1;
}
);
leftKerningGroup = I;
unicode = 0052;
},
{
glyphname = S;
layers = (
{
anchors = (
{
name = bottom;
position = "{291, 0}";
},
{
name = top;
position = "{303, 700}";
}
);
layerId = UUID0;
paths = (
{
closed = 1;
nodes = (
"463 -14 OFFCURVE",
"553 61 OFFCURVE",
"553 181 CURVE SMOOTH",
"553 301 OFFCURVE",
"471 351 OFFCURVE",
"319 400 CURVE SMOOTH",
"213 434 OFFCURVE",
"159 458 OFFCURVE",
"159 530 CURVE SMOOTH",
"159 599 OFFCURVE",
"219 628 OFFCURVE",
"301 628 CURVE SMOOTH",
"376 628 OFFCURVE",
"445 600 OFFCURVE",
"517 565 CURVE",
"527 666 LINE",
"477 688 OFFCURVE",
"397 714 OFFCURVE",
"305 714 CURVE SMOOTH",
"143 714 OFFCURVE",
"55 636 OFFCURVE",
"55 525 CURVE SMOOTH",
"55 397 OFFCURVE",
"154 356 OFFCURVE",
"268 321 CURVE SMOOTH",
"382 286 OFFCURVE",
"449 255 OFFCURVE",
"449 174 CURVE SMOOTH",
"449 104 OFFCURVE",
"392 72 OFFCURVE",
"302 72 CURVE SMOOTH",
"211 72 OFFCURVE",
"118 112 OFFCURVE",
"64 142 CURVE",
"51 31 LINE",
"100 8 OFFCURVE",
"193 -14 OFFCURVE",
"280 -14 CURVE SMOOTH"
);
}
);
width = 584;
},
{
anchors = (
{
name = bottom;
position = "{288, 0}";
},
{
name = top;
position = "{299, 700}";
}
);
layerId = "7C863538-AAB4-42AD-A9FE-7240E615272A";
paths = (
{
closed = 1;
nodes = (
"516 -14 OFFCURVE",
"551 110 OFFCURVE",
"551 190 CURVE SMOOTH",
"551 310 OFFCURVE",
"471 365 OFFCURVE",
"319 413 CURVE SMOOTH",
"231 441 OFFCURVE",
"178 459 OFFCURVE",
"178 518 CURVE SMOOTH",
"178 567 OFFCURVE",
"220 592 OFFCURVE",
"295 592 CURVE SMOOTH",
"366 592 OFFCURVE",
"432 573 OFFCURVE",
"511 538 CURVE",
"524 669 LINE",
"469 691 OFFCURVE",
"388 714 OFFCURVE",
"303 714 CURVE SMOOTH",
"134 714 OFFCURVE",
"48 630 OFFCURVE",
"48 514 CURVE SMOOTH",
"48 396 OFFCURVE",
"133 349 OFFCURVE",
"245 310 CURVE SMOOTH",
"357 271 OFFCURVE",
"408 253 OFFCURVE",
"408 190 CURVE SMOOTH",
"408 135 OFFCURVE",
"363 109 OFFCURVE",
"295 109 CURVE SMOOTH",
"213 109 OFFCURVE",
"133 139 OFFCURVE",
"63 173 CURVE",
"48 37 LINE",
"93 15 OFFCURVE",
"195 -14 OFFCURVE",
"280 -14 CURVE SMOOTH"
);
}
);
width = 580;
},
{
associatedMasterId = UUID0;
layerId = "9088D6E4-E2BE-4E5B-92E5-7E926331F2E4";
name = "Regular Sep 7 16, 14:04";
paths = (
{
closed = 1;
nodes = (
"522 -14 OFFCURVE",
"553 107 OFFCURVE",
"553 181 CURVE SMOOTH",
"553 333 OFFCURVE",
"418 370 OFFCURVE",
"295 408 CURVE SMOOTH",
"211 434 OFFCURVE",
"144 460 OFFCURVE",
"144 525 CURVE SMOOTH",
"144 598 OFFCURVE",
"229 628 OFFCURVE",
"301 628 CURVE SMOOTH",
"371 628 OFFCURVE",
"434 599 OFFCURVE",
"502 565 CURVE",
"512 666 LINE",
"472 688 OFFCURVE",
"383 714 OFFCURVE",
"292 714 CURVE SMOOTH",
"100 714 OFFCURVE",
"40 599 OFFCURVE",
"40 512 CURVE SMOOTH",
"40 392 OFFCURVE",
"152 358 OFFCURVE",
"268 321 CURVE SMOOTH",
"369 289 OFFCURVE",
"449 259 OFFCURVE",
"449 180 CURVE SMOOTH",
"449 101 OFFCURVE",
"368 72 OFFCURVE",
"282 72 CURVE SMOOTH",
"187 72 OFFCURVE",
"110 108 OFFCURVE",
"64 142 CURVE",
"51 31 LINE",
"94 8 OFFCURVE",
"177 -14 OFFCURVE",
"280 -14 CURVE"
);
}
);
width = 584;
},
{
associatedMasterId = "7C863538-AAB4-42AD-A9FE-7240E615272A";
layerId = "E4F97DED-0297-4675-ABAC-493D79B44458";
name = "Bold Sep 7 16, 14:04";
paths = (
{
closed = 1;
nodes = (
"516 -14 OFFCURVE",
"551 110 OFFCURVE",
"551 190 CURVE SMOOTH",
"551 344 OFFCURVE",
"418 384 OFFCURVE",
"309 417 CURVE SMOOTH",
"233 440 OFFCURVE",
"168 462 OFFCURVE",
"168 518 CURVE SMOOTH",
"168 578 OFFCURVE",
"242 592 OFFCURVE",
"296 592 CURVE SMOOTH",
"363 592 OFFCURVE",
"426 570 OFFCURVE",
"501 529 CURVE",
"514 660 LINE",
"478 684 OFFCURVE",
"387 714 OFFCURVE",
"291 714 CURVE SMOOTH",
"102 714 OFFCURVE",
"38 597 OFFCURVE",
"38 504 CURVE SMOOTH",
"38 379 OFFCURVE",
"146 344 OFFCURVE",
"245 310 CURVE SMOOTH",
"330 281 OFFCURVE",
"408 256 OFFCURVE",
"408 185 CURVE SMOOTH",
"408 128 OFFCURVE",
"358 109 OFFCURVE",
"283 109 CURVE SMOOTH",
"178 109 OFFCURVE",
"101 146 OFFCURVE",
"63 183 CURVE",
"48 37 LINE",
"88 11 OFFCURVE",
"174 -14 OFFCURVE",
"280 -14 CURVE"
);
}
);
width = 580;
visible = 1;
}
);
leftKerningGroup = S;
rightKerningGroup = S;
unicode = 0053;
},
{
glyphname = T;
layers = (
{
layerId = UUID0;
paths = (
{
closed = 1;
nodes = (
"314 0 LINE",
"314 614 LINE",
"518 614 LINE",
"518 700 LINE",
"15 700 LINE",
"15 614 LINE",
"219 614 LINE",
"219 0 LINE"
);
}
);
width = 533;
},
{
layerId = "7C863538-AAB4-42AD-A9FE-7240E615272A";
paths = (
{
closed = 1;
nodes = (
"341 0 LINE",
"341 576 LINE",
"539 576 LINE",
"539 700 LINE",
"15 700 LINE",
"15 576 LINE",
"213 576 LINE",
"213 0 LINE"
);
}
);
width = 554;
},
{
associatedMasterId = UUID0;
layerId = "26BB27D7-6CFD-44EF-A975-1A8731FAA91A";
name = "Regular Sep 7 16, 14:04";
paths = (
{
closed = 1;
nodes = (
"314 0 LINE",
"314 614 LINE",
"518 614 LINE",
"518 700 LINE",
"15 700 LINE",
"15 614 LINE",
"219 614 LINE",
"219 0 LINE"
);
}
);
width = 533;
},
{
associatedMasterId = "7C863538-AAB4-42AD-A9FE-7240E615272A";
layerId = "C841B6D7-0C98-4BBA-89BD-E87621AF261C";
name = "Bold Sep 7 16, 14:04";
paths = (
{
closed = 1;
nodes = (
"341 0 LINE",
"341 576 LINE",
"539 576 LINE",
"539 700 LINE",
"15 700 LINE",
"15 576 LINE",
"213 576 LINE",
"213 0 LINE"
);
}
);
width = 554;
}
);
unicode = 0054;
},
{
glyphname = U;
layers = (
{
anchors = (
{
name = bottom;
position = "{362, 0}";
},
{
name = ogonek;
position = "{652, 10}";
},
{
name = top;
position = "{362, 700}";
},
{
name = topright;
position = "{675, 700}";
}
);
layerId = UUID0;
paths = (
{
closed = 1;
nodes = (
"559 -14 OFFCURVE",
"652 105 OFFCURVE",
"652 297 CURVE SMOOTH",
"652 700 LINE",
"557 700 LINE",
"557 343 LINE SMOOTH",
"557 206 OFFCURVE",
"528 72 OFFCURVE",
"362 72 CURVE SMOOTH",
"196 72 OFFCURVE",
"167 205 OFFCURVE",
"167 343 CURVE SMOOTH",
"167 700 LINE",
"72 700 LINE",
"72 297 LINE SMOOTH",
"72 105 OFFCURVE",
"165 -14 OFFCURVE",
"362 -14 CURVE"
);
}
);
width = 724;
},
{
anchors = (
{
name = bottom;
position = "{359, 0}";
},
{
name = ogonek;
position = "{646, 10}";
},
{
name = top;
position = "{359, 700}";
},
{
name = topright;
position = "{677, 700}";
}
);
layerId = "7C863538-AAB4-42AD-A9FE-7240E615272A";
paths = (
{
closed = 1;
nodes = (
"556 -14 OFFCURVE",
"649 110 OFFCURVE",
"649 300 CURVE SMOOTH",
"649 700 LINE",
"521 700 LINE",
"521 343 LINE SMOOTH",
"521 213 OFFCURVE",
"494 109 OFFCURVE",
"359 109 CURVE SMOOTH",
"224 109 OFFCURVE",
"197 213 OFFCURVE",
"197 343 CURVE SMOOTH",
"197 700 LINE",
"69 700 LINE",
"69 300 LINE SMOOTH",
"69 110 OFFCURVE",
"162 -14 OFFCURVE",
"359 -14 CURVE"
);
}
);
width = 718;
},
{
anchors = (
{
name = bottom;
position = "{362, 0}";
},
{
name = ogonek;
position = "{652, 10}";
},
{
name = top;
position = "{362, 700}";
},
{
name = topright;
position = "{675, 700}";
}
);
associatedMasterId = UUID0;
layerId = "3DCFFD75-67B2-418C-9FAE-DFA4A2F89D1B";
name = "Regular Sep 7 16, 14:04";
paths = (
{
closed = 1;
nodes = (
"559 -14 OFFCURVE",
"652 105 OFFCURVE",
"652 297 CURVE SMOOTH",
"652 700 LINE",
"557 700 LINE",
"557 343 LINE SMOOTH",
"557 206 OFFCURVE",
"528 72 OFFCURVE",
"362 72 CURVE SMOOTH",
"196 72 OFFCURVE",
"167 205 OFFCURVE",
"167 343 CURVE SMOOTH",
"167 700 LINE",
"72 700 LINE",
"72 297 LINE SMOOTH",
"72 105 OFFCURVE",
"165 -14 OFFCURVE",
"362 -14 CURVE"
);
}
);
width = 724;
},
{
anchors = (
{
name = bottom;
position = "{359, 0}";
},
{
name = ogonek;
position = "{646, 10}";
},
{
name = top;
position = "{359, 700}";
},
{
name = topright;
position = "{677, 700}";
}
);
associatedMasterId = "7C863538-AAB4-42AD-A9FE-7240E615272A";
layerId = "F0F444DB-4F37-4D13-8FA9-769768339B1F";
name = "Bold Sep 7 16, 14:04";
paths = (
{
closed = 1;
nodes = (
"556 -14 OFFCURVE",
"649 110 OFFCURVE",
"649 300 CURVE SMOOTH",
"649 700 LINE",
"521 700 LINE",
"521 343 LINE SMOOTH",
"521 213 OFFCURVE",
"494 109 OFFCURVE",
"359 109 CURVE SMOOTH",
"224 109 OFFCURVE",
"197 213 OFFCURVE",
"197 343 CURVE SMOOTH",
"197 700 LINE",
"69 700 LINE",
"69 300 LINE SMOOTH",
"69 110 OFFCURVE",
"162 -14 OFFCURVE",
"359 -14 CURVE"
);
}
);
width = 718;
}
);
leftKerningGroup = U;
rightKerningGroup = U;
unicode = 0055;
},
{
glyphname = V;
layers = (
{
layerId = UUID0;
paths = (
{
closed = 1;
nodes = (
"372 0 LINE",
"640 700 LINE",
"540 700 LINE",
"323 109 LINE",
"104 700 LINE",
"4 700 LINE",
"272 0 LINE"
);
}
);
width = 644;
},
{
layerId = "7C863538-AAB4-42AD-A9FE-7240E615272A";
paths = (
{
closed = 1;
nodes = (
"408 0 LINE",
"654 700 LINE",
"522 700 LINE",
"329 169 LINE",
"133 700 LINE",
"0 700 LINE",
"252 0 LINE"
);
}
);
width = 657;
},
{
associatedMasterId = UUID0;
layerId = "E46751F5-4893-461D-A028-132E874418C4";
name = "Regular Sep 7 16, 14:04";
paths = (
{
closed = 1;
nodes = (
"372 0 LINE",
"640 700 LINE",
"540 700 LINE",
"323 109 LINE",
"104 700 LINE",
"4 700 LINE",
"272 0 LINE"
);
}
);
width = 644;
},
{
associatedMasterId = "7C863538-AAB4-42AD-A9FE-7240E615272A";
layerId = "02D8091B-BECB-4B6B-9B3D-4B5F9A1C586C";
name = "Bold Sep 7 16, 14:04";
paths = (
{
closed = 1;
nodes = (
"408 0 LINE",
"654 700 LINE",
"522 700 LINE",
"329 169 LINE",
"133 700 LINE",
"0 700 LINE",
"252 0 LINE"
);
}
);
width = 657;
}
);
unicode = 0056;
},
{
glyphname = W;
layers = (
{
anchors = (
{
name = bottom;
position = "{486, 0}";
},
{
name = top;
position = "{486, 700}";
}
);
layerId = UUID0;
paths = (
{
closed = 1;
nodes = (
"315 0 LINE",
"486 574 LINE",
"651 0 LINE",
"756 0 LINE",
"961 700 LINE",
"861 700 LINE",
"707 109 LINE",
"530 686 LINE",
"444 686 LINE",
"269 108 LINE",
"114 700 LINE",
"14 700 LINE",
"210 0 LINE"
);
}
);
width = 971;
},
{
anchors = (
{
name = bottom;
position = "{482, 0}";
},
{
name = top;
position = "{482, 700}";
}
);
layerId = "7C863538-AAB4-42AD-A9FE-7240E615272A";
paths = (
{
closed = 1;
nodes = (
"328 0 LINE",
"483 467 LINE",
"639 0 LINE",
"752 0 LINE",
"957 700 LINE",
"824 700 LINE",
"690 216 LINE",
"528 700 LINE",
"439 700 LINE",
"283 203 LINE",
"143 700 LINE",
"10 700 LINE",
"207 0 LINE"
);
}
);
width = 963;
},
{
associatedMasterId = UUID0;
layerId = "15B005E7-89F3-4F5B-A88F-458BC40F4DAB";
name = "Regular Sep 7 16, 14:04";
paths = (
{
closed = 1;
nodes = (
"315 0 LINE",
"486 574 LINE",
"651 0 LINE",
"756 0 LINE",
"961 700 LINE",
"861 700 LINE",
"707 109 LINE",
"530 686 LINE",
"444 686 LINE",
"269 108 LINE",
"114 700 LINE",
"14 700 LINE",
"210 0 LINE"
);
}
);
width = 971;
},
{
associatedMasterId = "7C863538-AAB4-42AD-A9FE-7240E615272A";
layerId = "2D140B85-53E4-48DE-A0C6-41EC5FFC8280";
name = "Bold Sep 7 16, 14:04";
paths = (
{
closed = 1;
nodes = (
"328 0 LINE",
"483 467 LINE",
"639 0 LINE",
"752 0 LINE",
"957 700 LINE",
"824 700 LINE",
"690 216 LINE",
"528 700 LINE",
"439 700 LINE",
"283 203 LINE",
"143 700 LINE",
"10 700 LINE",
"207 0 LINE"
);
}
);
width = 963;
}
);
unicode = 0057;
},
{
glyphname = X;
layers = (
{
layerId = UUID0;
paths = (
{
closed = 1;
nodes = (
"109 0 LINE",
"292 286 LINE",
"494 0 LINE",
"594 0 LINE",
"343 361 LINE",
"593 700 LINE",
"493 700 LINE",
"299 427 LINE",
"119 700 LINE",
"9 700 LINE",
"244 349 LINE",
"9 0 LINE"
);
}
);
width = 599;
},
{
layerId = "7C863538-AAB4-42AD-A9FE-7240E615272A";
paths = (
{
closed = 1;
nodes = (
"146 0 LINE",
"311 257 LINE",
"481 0 LINE",
"629 0 LINE",
"385 363 LINE",
"615 700 LINE",
"468 700 LINE",
"320 454 LINE",
"158 700 LINE",
"10 700 LINE",
"246 349 LINE",
"-1 0 LINE"
);
}
);
width = 627;
},
{
associatedMasterId = UUID0;
layerId = "9A26F85A-1D85-4C84-A16C-AC14CA16C314";
name = "Regular Sep 7 16, 14:04";
paths = (
{
closed = 1;
nodes = (
"109 0 LINE",
"292 286 LINE",
"494 0 LINE",
"594 0 LINE",
"343 361 LINE",
"593 700 LINE",
"493 700 LINE",
"299 427 LINE",
"119 700 LINE",
"9 700 LINE",
"244 349 LINE",
"9 0 LINE"
);
}
);
width = 599;
},
{
associatedMasterId = "7C863538-AAB4-42AD-A9FE-7240E615272A";
layerId = "C2074FD6-C490-466A-9504-7B1CBCDE32C0";
name = "Bold Sep 7 16, 14:04";
paths = (
{
closed = 1;
nodes = (
"146 0 LINE",
"311 257 LINE",
"481 0 LINE",
"629 0 LINE",
"385 363 LINE",
"615 700 LINE",
"468 700 LINE",
"320 454 LINE",
"158 700 LINE",
"10 700 LINE",
"246 349 LINE",
"-1 0 LINE"
);
}
);
width = 627;
}
);
unicode = 0058;
},
{
glyphname = Y;
layers = (
{
anchors = (
{
name = bottom;
position = "{284, 0}";
},
{
name = top;
position = "{283, 700}";
}
);
layerId = UUID0;
paths = (
{
closed = 1;
nodes = (
"331 0 LINE",
"331 303 LINE",
"577 700 LINE",
"469 700 LINE",
"261 360 LINE",
"305 360 LINE",
"97 700 LINE",
"-11 700 LINE",
"236 303 LINE",
"236 0 LINE"
);
}
);
width = 567;
},
{
anchors = (
{
name = bottom;
position = "{302, 0}";
},
{
name = top;
position = "{302, 700}";
}
);
layerId = "7C863538-AAB4-42AD-A9FE-7240E615272A";
paths = (
{
closed = 1;
nodes = (
"366 0 LINE",
"366 283 LINE",
"612 700 LINE",
"472 700 LINE",
"272 345 LINE",
"332 345 LINE",
"132 700 LINE",
"-8 700 LINE",
"238 283 LINE",
"238 0 LINE"
);
}
);
width = 604;
},
{
anchors = (
{
name = bottom;
position = "{284, 0}";
},
{
name = top;
position = "{284, 700}";
},
{
name = topleft;
position = "{20, 700}";
}
);
associatedMasterId = UUID0;
layerId = "45E95D6C-B4F4-4435-B478-AA219F39B314";
name = "Regular Sep 7 16, 14:04";
paths = (
{
closed = 1;
nodes = (
"333 0 LINE",
"333 323 LINE",
"569 700 LINE",
"469 700 LINE",
"283 409 LINE",
"97 700 LINE",
"-3 700 LINE",
"234 323 LINE",
"234 0 LINE"
);
}
);
width = 567;
},
{
anchors = (
{
name = bottom;
position = "{299, 0}";
},
{
name = top;
position = "{299, 700}";
},
{
name = topleft;
position = "{20, 700}";
}
);
associatedMasterId = "7C863538-AAB4-42AD-A9FE-7240E615272A";
layerId = "915DC1E4-493E-4641-BB04-1106E73E69A6";
name = "Bold Sep 7 16, 14:04";
paths = (
{
closed = 1;
nodes = (
"363 0 LINE",
"363 310 LINE",
"605 700 LINE",
"469 700 LINE",
"299 424 LINE",
"129 700 LINE",
"-7 700 LINE",
"235 310 LINE",
"235 0 LINE"
);
}
);
width = 598;
}
);
leftKerningGroup = Y;
rightKerningGroup = Y;
unicode = 0059;
},
{
glyphname = Z;
layers = (
{
anchors = (
{
name = bottom;
position = "{253, 0}";
},
{
name = top;
position = "{298, 700}";
}
);
layerId = UUID0;
paths = (
{
closed = 1;
nodes = (
"537 0 LINE",
"537 86 LINE",
"165 86 LINE",
"542 700 LINE",
"54 700 LINE",
"54 614 LINE",
"385 614 LINE",
"9 0 LINE"
);
}
);
width = 549;
},
{
anchors = (
{
name = bottom;
position = "{252.539, 0}";
},
{
name = top;
position = "{297, 700}";
}
);
layerId = "7C863538-AAB4-42AD-A9FE-7240E615272A";
paths = (
{
closed = 1;
nodes = (
"536 0 LINE",
"536 124 LINE",
"219 124 LINE",
"541 700 LINE",
"53 700 LINE",
"53 576 LINE",
"330 576 LINE",
"8 0 LINE"
);
}
);
width = 548;
},
{
anchors = (
{
name = bottom;
position = "{253, 0}";
},
{
name = top;
position = "{298, 700}";
}
);
associatedMasterId = UUID0;
layerId = "8D13FBE0-6E10-4DC9-A063-9AD3B61EF9C0";
name = "Regular Sep 7 16, 14:04";
paths = (
{
closed = 1;
nodes = (
"497 0 LINE",
"497 86 LINE",
"165 86 LINE",
"542 700 LINE",
"54 700 LINE",
"54 614 LINE",
"385 614 LINE",
"9 0 LINE"
);
}
);
width = 549;
},
{
anchors = (
{
name = bottom;
position = "{252.539, 0}";
},
{
name = top;
position = "{297.457, 700}";
}
);
associatedMasterId = "7C863538-AAB4-42AD-A9FE-7240E615272A";
layerId = "AE6F5C73-928E-4B13-9EA3-5D0250EB54C2";
name = "Bold Sep 7 16, 14:04";
paths = (
{
closed = 1;
nodes = (
"496 0 LINE",
"496 124 LINE",
"219 124 LINE",
"541 700 LINE",
"53 700 LINE",
"53 576 LINE",
"330 576 LINE",
"8 0 LINE"
);
}
);
width = 548;
}
);
leftKerningGroup = Z;
rightKerningGroup = Z;
unicode = 005A;
},
{
glyphname = a;
layers = (
{
anchors = (
{
name = bottom;
position = "{240, 0}";
},
{
name = ogonek;
position = "{432, 10}";
},
{
name = top;
position = "{234, 490}";
}
);
layerId = UUID0;
paths = (
{
closed = 1;
nodes = (
"238 -10 OFFCURVE",
"288 19 OFFCURVE",
"325 62 CURVE",
"345 16 OFFCURVE",
"364 -10 OFFCURVE",
"451 -10 CURVE SMOOTH",
"458 -10 LINE",
"472 62 LINE",
"463 62 LINE SMOOTH",
"411 62 OFFCURVE",
"407 95 OFFCURVE",
"407 165 CURVE SMOOTH",
"407 265 LINE SMOOTH",
"407 442 OFFCURVE",
"358 500 OFFCURVE",
"234 500 CURVE SMOOTH",
"169 500 OFFCURVE",
"107 479 OFFCURVE",
"68 449 CURVE",
"81 376 LINE",
"133 412 OFFCURVE",
"173 420 OFFCURVE",
"210 420 CURVE SMOOTH",
"279 420 OFFCURVE",
"317 400 OFFCURVE",
"317 307 CURVE",
"192 305 OFFCURVE",
"24 270 OFFCURVE",
"24 132 CURVE SMOOTH",
"24 50 OFFCURVE",
"84 -10 OFFCURVE",
"175 -10 CURVE SMOOTH"
);
},
{
closed = 1;
nodes = (
"147 62 OFFCURVE",
"116 84 OFFCURVE",
"116 137 CURVE SMOOTH",
"116 210 OFFCURVE",
"174 240 OFFCURVE",
"317 245 CURVE",
"317 128 LINE",
"288 88 OFFCURVE",
"240 62 OFFCURVE",
"192 62 CURVE SMOOTH"
);
}
);
width = 480;
},
{
anchors = (
{
name = bottom;
position = "{249, 0}";
},
{
name = ogonek;
position = "{448, 10}";
},
{
name = top;
position = "{246, 500}";
}
);
layerId = "7C863538-AAB4-42AD-A9FE-7240E615272A";
paths = (
{
closed = 1;
nodes = (
"226 -10 OFFCURVE",
"286 11 OFFCURVE",
"319 48 CURVE",
"338 13 OFFCURVE",
"375 -10 OFFCURVE",
"431 -10 CURVE SMOOTH",
"476 -10 LINE",
"487 92 LINE",
"471 92 LINE SMOOTH",
"435 92 OFFCURVE",
"427 97 OFFCURVE",
"427 172 CURVE SMOOTH",
"427 307 LINE SMOOTH",
"427 452 OFFCURVE",
"358 508 OFFCURVE",
"246 508 CURVE SMOOTH",
"184 508 OFFCURVE",
"124 493 OFFCURVE",
"64 464 CURVE",
"75 363 LINE",
"128 389 OFFCURVE",
"167 401 OFFCURVE",
"212 401 CURVE SMOOTH",
"276 401 OFFCURVE",
"299 376 OFFCURVE",
"302 319 CURVE",
"208 316 OFFCURVE",
"21 281 OFFCURVE",
"21 140 CURVE SMOOTH",
"21 45 OFFCURVE",
"86 -10 OFFCURVE",
"166 -10 CURVE SMOOTH"
);
},
{
closed = 1;
nodes = (
"171 85 OFFCURVE",
"151 104 OFFCURVE",
"151 145 CURVE SMOOTH",
"151 204 OFFCURVE",
"233 232 OFFCURVE",
"303 235 CURVE",
"303 121 LINE",
"277 96 OFFCURVE",
"240 85 OFFCURVE",
"218 85 CURVE SMOOTH"
);
}
);
width = 498;
},
{
anchors = (
{
name = bottom;
position = "{240, 0}";
},
{
name = ogonek;
position = "{432, 10}";
},
{
name = top;
position = "{240, 490}";
}
);
associatedMasterId = UUID0;
layerId = "A8C2F480-0067-4F38-8F08-67524F8C581C";
name = "Regular Sep 7 16, 14:04";
paths = (
{
closed = 1;
nodes = (
"238 -10 OFFCURVE",
"288 19 OFFCURVE",
"325 62 CURVE",
"345 16 OFFCURVE",
"364 -10 OFFCURVE",
"451 -10 CURVE SMOOTH",
"458 -10 LINE",
"472 62 LINE",
"463 62 LINE SMOOTH",
"411 62 OFFCURVE",
"407 95 OFFCURVE",
"407 165 CURVE SMOOTH",
"407 265 LINE SMOOTH",
"407 442 OFFCURVE",
"358 500 OFFCURVE",
"234 500 CURVE SMOOTH",
"169 500 OFFCURVE",
"107 479 OFFCURVE",
"68 449 CURVE",
"81 376 LINE",
"133 412 OFFCURVE",
"173 420 OFFCURVE",
"210 420 CURVE SMOOTH",
"279 420 OFFCURVE",
"317 400 OFFCURVE",
"317 307 CURVE",
"192 305 OFFCURVE",
"24 270 OFFCURVE",
"24 132 CURVE SMOOTH",
"24 50 OFFCURVE",
"84 -10 OFFCURVE",
"175 -10 CURVE SMOOTH"
);
},
{
closed = 1;
nodes = (
"147 62 OFFCURVE",
"116 84 OFFCURVE",
"116 137 CURVE SMOOTH",
"116 210 OFFCURVE",
"174 240 OFFCURVE",
"317 245 CURVE",
"317 128 LINE",
"288 88 OFFCURVE",
"240 62 OFFCURVE",
"192 62 CURVE SMOOTH"
);
}
);
width = 480;
},
{
anchors = (
{
name = bottom;
position = "{249, 0}";
},
{
name = ogonek;
position = "{448, 10}";
},
{
name = top;
position = "{249, 500}";
}
);
associatedMasterId = "7C863538-AAB4-42AD-A9FE-7240E615272A";
layerId = "D897701B-7DC5-4624-95F5-601DCEB0BFCD";
name = "Bold Sep 7 16, 14:04";
paths = (
{
closed = 1;
nodes = (
"226 -10 OFFCURVE",
"286 11 OFFCURVE",
"319 48 CURVE",
"338 13 OFFCURVE",
"375 -10 OFFCURVE",
"431 -10 CURVE SMOOTH",
"476 -10 LINE",
"487 92 LINE",
"471 92 LINE SMOOTH",
"435 92 OFFCURVE",
"427 97 OFFCURVE",
"427 172 CURVE SMOOTH",
"427 307 LINE SMOOTH",
"427 452 OFFCURVE",
"358 508 OFFCURVE",
"246 508 CURVE SMOOTH",
"184 508 OFFCURVE",
"124 493 OFFCURVE",
"64 464 CURVE",
"75 363 LINE",
"128 389 OFFCURVE",
"167 401 OFFCURVE",
"212 401 CURVE SMOOTH",
"276 401 OFFCURVE",
"299 376 OFFCURVE",
"302 319 CURVE",
"208 316 OFFCURVE",
"21 281 OFFCURVE",
"21 140 CURVE SMOOTH",
"21 45 OFFCURVE",
"86 -10 OFFCURVE",
"166 -10 CURVE SMOOTH"
);
},
{
closed = 1;
nodes = (
"171 85 OFFCURVE",
"151 104 OFFCURVE",
"151 145 CURVE SMOOTH",
"151 204 OFFCURVE",
"233 232 OFFCURVE",
"303 235 CURVE",
"303 121 LINE",
"277 96 OFFCURVE",
"240 85 OFFCURVE",
"218 85 CURVE SMOOTH"
);
}
);
width = 498;
}
);
leftKerningGroup = a;
rightKerningGroup = a;
unicode = 0061;
},
{
color = 4;
glyphname = b;
layers = (
{
layerId = UUID0;
paths = (
{
closed = 1;
nodes = (
"426 -10 OFFCURVE",
"523 102 OFFCURVE",
"523 245 CURVE SMOOTH",
"523 379 OFFCURVE",
"439 500 OFFCURVE",
"302 500 CURVE SMOOTH",
"231 500 OFFCURVE",
"164 462 OFFCURVE",
"131 408 CURVE",
"150 394 LINE",
"150 750 LINE",
"60 750 LINE",
"60 0 LINE",
"140 0 LINE",
"157 104 LINE",
"135 88 LINE",
"160 23 OFFCURVE",
"233 -10 OFFCURVE",
"302 -10 CURVE SMOOTH"
);
},
{
closed = 1;
nodes = (
"214 70 OFFCURVE",
"145 122 OFFCURVE",
"145 245 CURVE SMOOTH",
"145 363 OFFCURVE",
"214 420 OFFCURVE",
"291 420 CURVE SMOOTH",
"377 420 OFFCURVE",
"431 345 OFFCURVE",
"431 245 CURVE SMOOTH",
"431 149 OFFCURVE",
"377 70 OFFCURVE",
"291 70 CURVE SMOOTH"
);
}
);
width = 555;
},
{
layerId = "7C863538-AAB4-42AD-A9FE-7240E615272A";
paths = (
{
closed = 1;
nodes = (
"465 -10 OFFCURVE",
"543 109 OFFCURVE",
"543 249 CURVE SMOOTH",
"543 389 OFFCURVE",
"465 508 OFFCURVE",
"318 508 CURVE SMOOTH",
"248 508 OFFCURVE",
"195 481 OFFCURVE",
"151 436 CURVE",
"181 417 LINE",
"181 750 LINE",
"57 750 LINE",
"57 0 LINE",
"173 0 LINE",
"179 85 LINE",
"142 59 LINE",
"190 16 OFFCURVE",
"242 -10 OFFCURVE",
"318 -10 CURVE SMOOTH"
);
},
{
closed = 1;
nodes = (
"213 92 OFFCURVE",
"175 156 OFFCURVE",
"175 249 CURVE SMOOTH",
"175 342 OFFCURVE",
"213 406 OFFCURVE",
"300 406 CURVE SMOOTH",
"374 406 OFFCURVE",
"416 342 OFFCURVE",
"416 249 CURVE SMOOTH",
"416 156 OFFCURVE",
"374 92 OFFCURVE",
"300 92 CURVE SMOOTH"
);
}
);
width = 571;
},
{
associatedMasterId = UUID0;
layerId = "A3D91B1D-814B-4AFB-844B-25A91C0F52B2";
name = "Regular Sep 7 16, 14:04";
paths = (
{
closed = 1;
nodes = (
"426 -10 OFFCURVE",
"523 102 OFFCURVE",
"523 245 CURVE SMOOTH",
"523 379 OFFCURVE",
"439 500 OFFCURVE",
"302 500 CURVE SMOOTH",
"258 500 OFFCURVE",
"192 488 OFFCURVE",
"150 437 CURVE",
"150 750 LINE",
"60 750 LINE",
"60 0 LINE",
"140 0 LINE",
"150 62 LINE",
"187 14 OFFCURVE",
"257 -10 OFFCURVE",
"301 -10 CURVE SMOOTH"
);
},
{
closed = 1;
nodes = (
"219 70 OFFCURVE",
"145 122 OFFCURVE",
"145 245 CURVE SMOOTH",
"145 363 OFFCURVE",
"219 420 OFFCURVE",
"291 420 CURVE SMOOTH",
"377 420 OFFCURVE",
"431 345 OFFCURVE",
"431 245 CURVE SMOOTH",
"431 149 OFFCURVE",
"377 70 OFFCURVE",
"291 70 CURVE SMOOTH"
);
}
);
width = 555;
},
{
associatedMasterId = "7C863538-AAB4-42AD-A9FE-7240E615272A";
layerId = "5568EE20-7872-4EA6-A4D6-D8B3E18D13AF";
name = "Bold Sep 7 16, 14:04";
paths = (
{
closed = 1;
nodes = (
"458 -10 OFFCURVE",
"543 109 OFFCURVE",
"543 249 CURVE SMOOTH",
"543 389 OFFCURVE",
"458 508 OFFCURVE",
"298 508 CURVE SMOOTH",
"246 508 OFFCURVE",
"213 496 OFFCURVE",
"181 475 CURVE",
"181 750 LINE",
"57 750 LINE",
"57 0 LINE",
"173 0 LINE",
"175 28 LINE",
"210 4 OFFCURVE",
"243 -10 OFFCURVE",
"298 -10 CURVE SMOOTH"
);
},
{
closed = 1;
nodes = (
"210 92 OFFCURVE",
"175 156 OFFCURVE",
"175 249 CURVE SMOOTH",
"175 342 OFFCURVE",
"210 406 OFFCURVE",
"290 406 CURVE SMOOTH",
"370 406 OFFCURVE",
"416 342 OFFCURVE",
"416 249 CURVE SMOOTH",
"416 156 OFFCURVE",
"370 92 OFFCURVE",
"290 92 CURVE SMOOTH"
);
}
);
width = 571;
visible = 1;
}
);
leftKerningGroup = h;
rightKerningGroup = b;
unicode = 0062;
},
{
glyphname = c;
layers = (
{
anchors = (
{
name = bottom;
position = "{288, 0}";
},
{
name = top;
position = "{272, 490}";
}
);
layerId = UUID0;
paths = (
{
closed = 1;
nodes = (
"343 -10 OFFCURVE",
"399 8 OFFCURVE",
"426 27 CURVE",
"414 99 LINE",
"376 80 OFFCURVE",
"334 69 OFFCURVE",
"289 69 CURVE SMOOTH",
"178 69 OFFCURVE",
"125 139 OFFCURVE",
"125 246 CURVE SMOOTH",
"125 355 OFFCURVE",
"183 420 OFFCURVE",
"291 420 CURVE SMOOTH",
"335 420 OFFCURVE",
"376 409 OFFCURVE",
"413 392 CURVE",
"427 471 LINE",
"391 489 OFFCURVE",
"344 500 OFFCURVE",
"293 500 CURVE SMOOTH",
"114 500 OFFCURVE",
"33 388 OFFCURVE",
"33 242 CURVE SMOOTH",
"33 102 OFFCURVE",
"120 -10 OFFCURVE",
"286 -10 CURVE SMOOTH"
);
}
);
width = 454;
},
{
anchors = (
{
name = bottom;
position = "{303, 0}";
},
{
name = top;
position = "{271, 500}";
}
);
layerId = "7C863538-AAB4-42AD-A9FE-7240E615272A";
paths = (
{
closed = 1;
nodes = (
"344 -10 OFFCURVE",
"398 1 OFFCURVE",
"430 20 CURVE",
"419 125 LINE",
"383 104 OFFCURVE",
"344 92 OFFCURVE",
"305 92 CURVE SMOOTH",
"213 92 OFFCURVE",
"155 160 OFFCURVE",
"155 249 CURVE SMOOTH",
"155 342 OFFCURVE",
"210 406 OFFCURVE",
"306 406 CURVE SMOOTH",
"348 406 OFFCURVE",
"387 395 OFFCURVE",
"418 378 CURVE",
"428 478 LINE",
"396 496 OFFCURVE",
"351 508 OFFCURVE",
"295 508 CURVE SMOOTH",
"116 508 OFFCURVE",
"28 391 OFFCURVE",
"28 249 CURVE SMOOTH",
"28 107 OFFCURVE",
"121 -10 OFFCURVE",
"300 -10 CURVE SMOOTH"
);
}
);
width = 455;
},
{
associatedMasterId = UUID0;
layerId = "4217E9DC-BD9A-4C17-AB54-9CC835F9CAF7";
name = "Regular Sep 7 16, 14:04";
paths = (
{
closed = 1;
nodes = (
"356 -10 OFFCURVE",
"397 8 OFFCURVE",
"426 27 CURVE",
"414 99 LINE",
"375 80 OFFCURVE",
"332 69 OFFCURVE",
"286 69 CURVE SMOOTH",
"177 69 OFFCURVE",
"125 139 OFFCURVE",
"125 246 CURVE SMOOTH",
"125 355 OFFCURVE",
"177 420 OFFCURVE",
"286 420 CURVE SMOOTH",
"332 420 OFFCURVE",
"374 409 OFFCURVE",
"413 390 CURVE",
"427 471 LINE",
"398 487 OFFCURVE",
"350 500 OFFCURVE",
"276 500 CURVE SMOOTH",
"113 500 OFFCURVE",
"33 389 OFFCURVE",
"33 246 CURVE SMOOTH",
"33 109 OFFCURVE",
"114 -10 OFFCURVE",
"277 -10 CURVE"
);
}
);
width = 454;
},
{
associatedMasterId = "7C863538-AAB4-42AD-A9FE-7240E615272A";
layerId = "5D6F1FAE-6F2E-4886-A768-B03801F9D6CA";
name = "Bold Sep 7 16, 14:04";
paths = (
{
closed = 1;
nodes = (
"351 -10 OFFCURVE",
"389 7 OFFCURVE",
"421 27 CURVE",
"410 133 LINE",
"369 106 OFFCURVE",
"329 92 OFFCURVE",
"281 92 CURVE SMOOTH",
"201 92 OFFCURVE",
"155 156 OFFCURVE",
"155 249 CURVE SMOOTH",
"155 342 OFFCURVE",
"201 406 OFFCURVE",
"281 406 CURVE SMOOTH",
"329 406 OFFCURVE",
"369 392 OFFCURVE",
"410 365 CURVE",
"421 471 LINE",
"389 491 OFFCURVE",
"351 508 OFFCURVE",
"271 508 CURVE SMOOTH",
"111 508 OFFCURVE",
"28 389 OFFCURVE",
"28 249 CURVE SMOOTH",
"28 109 OFFCURVE",
"111 -10 OFFCURVE",
"271 -10 CURVE"
);
}
);
width = 448;
visible = 1;
}
);
leftKerningGroup = o;
rightKerningGroup = c;
unicode = 0063;
},
{
color = 4;
glyphname = d;
layers = (
{
anchors = (
{
name = bottom;
position = "{278, 0}";
},
{
name = center;
position = "{395, 627}";
},
{
name = top;
position = "{278, 490}";
},
{
name = topright;
position = "{535, 490}";
}
);
layerId = UUID0;
paths = (
{
closed = 1;
nodes = (
"325 -10 OFFCURVE",
"392 23 OFFCURVE",
"421 88 CURVE",
"398 104 LINE",
"415 0 LINE",
"495 0 LINE",
"495 750 LINE",
"405 750 LINE",
"405 395 LINE",
"424 408 LINE",
"386 474 OFFCURVE",
"320 500 OFFCURVE",
"255 500 CURVE SMOOTH",
"118 500 OFFCURVE",
"32 379 OFFCURVE",
"32 244 CURVE SMOOTH",
"32 102 OFFCURVE",
"130 -10 OFFCURVE",
"255 -10 CURVE SMOOTH"
);
},
{
closed = 1;
nodes = (
"179 70 OFFCURVE",
"124 149 OFFCURVE",
"124 244 CURVE SMOOTH",
"124 345 OFFCURVE",
"179 420 OFFCURVE",
"271 420 CURVE SMOOTH",
"339 420 OFFCURVE",
"415 360 OFFCURVE",
"415 244 CURVE SMOOTH",
"415 119 OFFCURVE",
"339 70 OFFCURVE",
"271 70 CURVE SMOOTH"
);
}
);
width = 555;
},
{
anchors = (
{
name = bottom;
position = "{286, 0}";
},
{
name = center;
position = "{420, 639}";
},
{
name = top;
position = "{286, 500}";
},
{
name = topright;
position = "{551, 500}";
}
);
layerId = "7C863538-AAB4-42AD-A9FE-7240E615272A";
paths = (
{
closed = 1;
nodes = (
"336 -10 OFFCURVE",
"380 16 OFFCURVE",
"427 59 CURVE",
"391 85 LINE",
"397 0 LINE",
"514 0 LINE",
"514 750 LINE",
"390 750 LINE",
"390 417 LINE",
"420 443 LINE",
"381 481 OFFCURVE",
"333 508 OFFCURVE",
"260 508 CURVE SMOOTH",
"108 508 OFFCURVE",
"28 389 OFFCURVE",
"28 249 CURVE SMOOTH",
"28 109 OFFCURVE",
"108 -10 OFFCURVE",
"260 -10 CURVE SMOOTH"
);
},
{
closed = 1;
nodes = (
"200 92 OFFCURVE",
"155 156 OFFCURVE",
"155 249 CURVE SMOOTH",
"155 342 OFFCURVE",
"200 406 OFFCURVE",
"278 406 CURVE SMOOTH",
"360 406 OFFCURVE",
"396 342 OFFCURVE",
"396 249 CURVE SMOOTH",
"396 156 OFFCURVE",
"360 92 OFFCURVE",
"278 92 CURVE SMOOTH"
);
}
);
width = 571;
},
{
anchors = (
{
name = bottom;
position = "{278, 0}";
},
{
name = center;
position = "{395, 627}";
},
{
name = top;
position = "{278, 490}";
},
{
name = topright;
position = "{535, 490}";
}
);
associatedMasterId = UUID0;
layerId = "4C0BDCFF-CB6F-40AF-A3C1-5091FF562E27";
name = "Regular Sep 7 16, 14:04";
paths = (
{
closed = 1;
nodes = (
"299 -10 OFFCURVE",
"368 14 OFFCURVE",
"405 62 CURVE",
"415 0 LINE",
"495 0 LINE",
"495 750 LINE",
"405 750 LINE",
"405 438 LINE",
"363 489 OFFCURVE",
"299 500 OFFCURVE",
"255 500 CURVE SMOOTH",
"118 500 OFFCURVE",
"32 379 OFFCURVE",
"32 245 CURVE SMOOTH",
"32 102 OFFCURVE",
"130 -10 OFFCURVE",
"255 -10 CURVE SMOOTH"
);
},
{
closed = 1;
nodes = (
"176 70 OFFCURVE",
"124 149 OFFCURVE",
"124 245 CURVE SMOOTH",
"124 345 OFFCURVE",
"176 420 OFFCURVE",
"262 420 CURVE",
"334 420 OFFCURVE",
"415 360 OFFCURVE",
"415 242 CURVE SMOOTH",
"415 119 OFFCURVE",
"334 70 OFFCURVE",
"262 70 CURVE SMOOTH"
);
}
);
width = 555;
visible = 1;
},
{
anchors = (
{
name = bottom;
position = "{286, 0}";
},
{
name = center;
position = "{420, 639}";
},
{
name = top;
position = "{286, 500}";
},
{
name = topright;
position = "{551, 500}";
}
);
associatedMasterId = "7C863538-AAB4-42AD-A9FE-7240E615272A";
layerId = "05375EDB-2E85-4753-8CDA-F2A37F5592C1";
name = "Bold Sep 7 16, 14:04";
paths = (
{
closed = 1;
nodes = (
"327 -10 OFFCURVE",
"360 4 OFFCURVE",
"395 28 CURVE",
"397 0 LINE",
"514 0 LINE",
"514 750 LINE",
"390 750 LINE",
"390 475 LINE",
"358 496 OFFCURVE",
"324 508 OFFCURVE",
"273 508 CURVE SMOOTH",
"113 508 OFFCURVE",
"28 389 OFFCURVE",
"28 249 CURVE SMOOTH",
"28 109 OFFCURVE",
"113 -10 OFFCURVE",
"273 -10 CURVE SMOOTH"
);
},
{
closed = 1;
nodes = (
"201 92 OFFCURVE",
"155 156 OFFCURVE",
"155 249 CURVE SMOOTH",
"155 342 OFFCURVE",
"201 406 OFFCURVE",
"281 406 CURVE",
"361 406 OFFCURVE",
"396 342 OFFCURVE",
"396 249 CURVE SMOOTH",
"396 156 OFFCURVE",
"361 92 OFFCURVE",
"281 92 CURVE SMOOTH"
);
}
);
width = 571;
}
);
leftKerningGroup = o;
unicode = 0064;
},
{
glyphname = e;
layers = (
{
anchors = (
{
name = bottom;
position = "{256, 0}";
},
{
name = ogonek;
position = "{461, 10}";
},
{
name = top;
position = "{270, 490}";
}
);
layerId = UUID0;
paths = (
{
closed = 1;
nodes = (
"367 -10 OFFCURVE",
"422 11 OFFCURVE",
"460 28 CURVE",
"448 99 LINE",
"404 79 OFFCURVE",
"352 70 OFFCURVE",
"307 70 CURVE SMOOTH",
"214 70 OFFCURVE",
"136 109 OFFCURVE",
"123 245 CURVE",
"478 245 LINE",
"481 262 OFFCURVE",
"482 279 OFFCURVE",
"482 293 CURVE SMOOTH",
"482 425 OFFCURVE",
"393 500 OFFCURVE",
"271 500 CURVE SMOOTH",
"119 500 OFFCURVE",
"31 386 OFFCURVE",
"31 249 CURVE SMOOTH",
"31 108 OFFCURVE",
"123 -10 OFFCURVE",
"296 -10 CURVE SMOOTH"
);
},
{
closed = 1;
nodes = (
"149 378 OFFCURVE",
"189 420 OFFCURVE",
"269 420 CURVE SMOOTH",
"351 420 OFFCURVE",
"389 376 OFFCURVE",
"389 307 CURVE",
"131 307 LINE"
);
}
);
width = 512;
},
{
anchors = (
{
name = bottom;
position = "{258, 0}";
},
{
name = ogonek;
position = "{463, 10}";
},
{
name = top;
position = "{258, 500}";
}
);
layerId = "7C863538-AAB4-42AD-A9FE-7240E615272A";
paths = (
{
closed = 1;
nodes = (
"370 -10 OFFCURVE",
"428 8 OFFCURVE",
"466 28 CURVE",
"460 133 LINE",
"419 111 OFFCURVE",
"353 92 OFFCURVE",
"306 92 CURVE SMOOTH",
"240 92 OFFCURVE",
"171 130 OFFCURVE",
"157 223 CURVE",
"480 223 LINE",
"485 247 OFFCURVE",
"488 269 OFFCURVE",
"488 291 CURVE SMOOTH",
"488 423 OFFCURVE",
"394 508 OFFCURVE",
"268 508 CURVE SMOOTH",
"114 508 OFFCURVE",
"28 388 OFFCURVE",
"28 249 CURVE SMOOTH",
"28 109 OFFCURVE",
"118 -10 OFFCURVE",
"299 -10 CURVE SMOOTH"
);
},
{
closed = 1;
nodes = (
"172 364 OFFCURVE",
"208 406 OFFCURVE",
"272 406 CURVE SMOOTH",
"339 406 OFFCURVE",
"362 352 OFFCURVE",
"362 307 CURVE",
"160 307 LINE"
);
}
);
width = 515;
},
{
anchors = (
{
name = bottom;
position = "{256, 0}";
},
{
name = ogonek;
position = "{461, 10}";
},
{
name = top;
position = "{270, 490}";
}
);
associatedMasterId = UUID0;
layerId = "5CC4A1CF-B128-4CC1-AE68-3A7D22E9DA70";
name = "Regular Sep 7 16, 14:04";
paths = (
{
closed = 1;
nodes = (
"367 -10 OFFCURVE",
"422 11 OFFCURVE",
"460 28 CURVE",
"448 99 LINE",
"404 79 OFFCURVE",
"352 70 OFFCURVE",
"307 70 CURVE SMOOTH",
"214 70 OFFCURVE",
"136 109 OFFCURVE",
"123 245 CURVE",
"478 245 LINE",
"481 262 OFFCURVE",
"482 279 OFFCURVE",
"482 293 CURVE SMOOTH",
"482 425 OFFCURVE",
"393 500 OFFCURVE",
"271 500 CURVE SMOOTH",
"119 500 OFFCURVE",
"31 386 OFFCURVE",
"31 249 CURVE SMOOTH",
"31 108 OFFCURVE",
"123 -10 OFFCURVE",
"296 -10 CURVE SMOOTH"
);
},
{
closed = 1;
nodes = (
"149 378 OFFCURVE",
"189 420 OFFCURVE",
"269 420 CURVE SMOOTH",
"351 420 OFFCURVE",
"389 376 OFFCURVE",
"389 307 CURVE",
"131 307 LINE"
);
}
);
width = 512;
},
{
anchors = (
{
name = bottom;
position = "{258, 0}";
},
{
name = ogonek;
position = "{463, 10}";
},
{
name = top;
position = "{258, 500}";
}
);
associatedMasterId = "7C863538-AAB4-42AD-A9FE-7240E615272A";
layerId = "13AF994F-A7AF-4055-A4B2-3FCDC4549100";
name = "Bold Sep 7 16, 14:04";
paths = (
{
closed = 1;
nodes = (
"370 -10 OFFCURVE",
"428 8 OFFCURVE",
"466 28 CURVE",
"460 133 LINE",
"419 111 OFFCURVE",
"353 92 OFFCURVE",
"306 92 CURVE SMOOTH",
"240 92 OFFCURVE",
"171 130 OFFCURVE",
"157 223 CURVE",
"480 223 LINE",
"485 247 OFFCURVE",
"488 269 OFFCURVE",
"488 291 CURVE SMOOTH",
"488 423 OFFCURVE",
"394 508 OFFCURVE",
"268 508 CURVE SMOOTH",
"114 508 OFFCURVE",
"28 388 OFFCURVE",
"28 249 CURVE SMOOTH",
"28 109 OFFCURVE",
"118 -10 OFFCURVE",
"299 -10 CURVE SMOOTH"
);
},
{
closed = 1;
nodes = (
"172 364 OFFCURVE",
"208 406 OFFCURVE",
"272 406 CURVE SMOOTH",
"339 406 OFFCURVE",
"362 352 OFFCURVE",
"362 307 CURVE",
"160 307 LINE"
);
}
);
width = 515;
}
);
leftKerningGroup = o;
rightKerningGroup = e;
unicode = 0065;
},
{
glyphname = f;
layers = (
{
layerId = UUID0;
paths = (
{
closed = 1;
nodes = (
"185 0 LINE",
"185 420 LINE",
"317 420 LINE",
"317 490 LINE",
"185 490 LINE",
"185 550 LINE SMOOTH",
"185 650 OFFCURVE",
"190 670 OFFCURVE",
"237 670 CURVE SMOOTH",
"256 670 OFFCURVE",
"275 668 OFFCURVE",
"297 661 CURVE",
"311 737 LINE",
"287 745 OFFCURVE",
"266 750 OFFCURVE",
"209 750 CURVE SMOOTH",
"134 750 OFFCURVE",
"95 693 OFFCURVE",
"95 614 CURVE SMOOTH",
"95 490 LINE",
"22 490 LINE",
"10 420 LINE",
"95 420 LINE",
"95 0 LINE"
);
}
);
width = 331;
},
{
layerId = "7C863538-AAB4-42AD-A9FE-7240E615272A";
paths = (
{
closed = 1;
nodes = (
"212 0 LINE",
"212 398 LINE",
"322 398 LINE",
"322 500 LINE",
"212 500 LINE",
"212 568 LINE SMOOTH",
"212 629 OFFCURVE",
"220 646 OFFCURVE",
"257 646 CURVE SMOOTH",
"265 646 OFFCURVE",
"288 646 OFFCURVE",
"310 641 CURVE",
"321 744 LINE",
"288 747 OFFCURVE",
"274 750 OFFCURVE",
"208 750 CURVE SMOOTH",
"127 750 OFFCURVE",
"88 684 OFFCURVE",
"88 619 CURVE SMOOTH",
"88 500 LINE",
"28 500 LINE",
"17 398 LINE",
"88 398 LINE",
"88 0 LINE"
);
}
);
width = 340;
},
{
associatedMasterId = UUID0;
layerId = "52556548-7290-4183-9595-F6B144694D7C";
name = "Regular Sep 7 16, 14:04";
paths = (
{
closed = 1;
nodes = (
"185 0 LINE",
"185 420 LINE",
"317 420 LINE",
"317 490 LINE",
"185 490 LINE",
"185 550 LINE SMOOTH",
"185 650 OFFCURVE",
"190 670 OFFCURVE",
"237 670 CURVE SMOOTH",
"256 670 OFFCURVE",
"275 668 OFFCURVE",
"297 661 CURVE",
"311 737 LINE",
"287 745 OFFCURVE",
"266 750 OFFCURVE",
"209 750 CURVE SMOOTH",
"134 750 OFFCURVE",
"95 693 OFFCURVE",
"95 614 CURVE SMOOTH",
"95 490 LINE",
"22 490 LINE",
"10 420 LINE",
"95 420 LINE",
"95 0 LINE"
);
}
);
width = 331;
},
{
associatedMasterId = "7C863538-AAB4-42AD-A9FE-7240E615272A";
layerId = "93900890-79C9-44E9-874D-0BC4B2D861EC";
name = "Bold Sep 7 16, 14:04";
paths = (
{
closed = 1;
nodes = (
"212 0 LINE",
"212 398 LINE",
"322 398 LINE",
"322 500 LINE",
"212 500 LINE",
"212 568 LINE SMOOTH",
"212 629 OFFCURVE",
"220 646 OFFCURVE",
"257 646 CURVE SMOOTH",
"265 646 OFFCURVE",
"288 646 OFFCURVE",
"310 641 CURVE",
"321 744 LINE",
"288 747 OFFCURVE",
"274 750 OFFCURVE",
"208 750 CURVE SMOOTH",
"127 750 OFFCURVE",
"88 684 OFFCURVE",
"88 619 CURVE SMOOTH",
"88 500 LINE",
"28 500 LINE",
"17 398 LINE",
"88 398 LINE",
"88 0 LINE"
);
}
);
width = 340;
}
);
leftKerningGroup = f;
unicode = 0066;
},
{
glyphname = g;
layers = (
{
anchors = (
{
name = bottom;
position = "{257, -242}";
},
{
name = top;
position = "{249, 490}";
}
);
layerId = UUID0;
paths = (
{
closed = 1;
nodes = (
"417 -250 OFFCURVE",
"501 -175 OFFCURVE",
"501 -96 CURVE SMOOTH",
"501 0 OFFCURVE",
"378 27 OFFCURVE",
"301 40 CURVE SMOOTH",
"185 60 OFFCURVE",
"149 67 OFFCURVE",
"149 92 CURVE SMOOTH",
"149 104 OFFCURVE",
"159 114 OFFCURVE",
"173 122 CURVE",
"194 116 OFFCURVE",
"220 113 OFFCURVE",
"243 113 CURVE SMOOTH",
"371 113 OFFCURVE",
"441 209 OFFCURVE",
"441 308 CURVE SMOOTH",
"441 344 OFFCURVE",
"432 382 OFFCURVE",
"396 425 CURVE",
"417 430 OFFCURVE",
"447 432 OFFCURVE",
"454 432 CURVE SMOOTH",
"477 432 LINE",
"488 492 LINE",
"480 492 LINE SMOOTH",
"431 492 OFFCURVE",
"391 480 OFFCURVE",
"361 464 CURVE",
"321 489 OFFCURVE",
"282 500 OFFCURVE",
"236 500 CURVE SMOOTH",
"106 500 OFFCURVE",
"36 411 OFFCURVE",
"36 303 CURVE SMOOTH",
"36 253 OFFCURVE",
"51 194 OFFCURVE",
"121 143 CURVE",
"74 121 OFFCURVE",
"63 87 OFFCURVE",
"63 70 CURVE SMOOTH",
"63 55 OFFCURVE",
"71 28 OFFCURVE",
"113 8 CURVE",
"36 -19 OFFCURVE",
"26 -75 OFFCURVE",
"26 -102 CURVE SMOOTH",
"26 -167 OFFCURVE",
"85 -250 OFFCURVE",
"255 -250 CURVE SMOOTH"
);
},
{
closed = 1;
nodes = (
"165 -180 OFFCURVE",
"112 -145 OFFCURVE",
"112 -100 CURVE SMOOTH",
"112 -65 OFFCURVE",
"145 -28 OFFCURVE",
"190 -14 CURVE",
"202 -16 OFFCURVE",
"277 -26 OFFCURVE",
"279 -26 CURVE SMOOTH",
"368 -42 OFFCURVE",
"410 -67 OFFCURVE",
"410 -102 CURVE SMOOTH",
"410 -140 OFFCURVE",
"359 -180 OFFCURVE",
"259 -180 CURVE SMOOTH"
);
},
{
closed = 1;
nodes = (
"170 182 OFFCURVE",
"122 229 OFFCURVE",
"122 306 CURVE SMOOTH",
"122 377 OFFCURVE",
"162 428 OFFCURVE",
"237 428 CURVE SMOOTH",
"306 428 OFFCURVE",
"355 386 OFFCURVE",
"355 309 CURVE SMOOTH",
"355 238 OFFCURVE",
"314 182 OFFCURVE",
"239 182 CURVE SMOOTH"
);
}
);
width = 498;
},
{
anchors = (
{
name = bottom;
position = "{257, -242}";
},
{
name = top;
position = "{237, 500}";
}
);
layerId = "7C863538-AAB4-42AD-A9FE-7240E615272A";
paths = (
{
closed = 1;
nodes = (
"414 -250 OFFCURVE",
"499 -186 OFFCURVE",
"499 -89 CURVE SMOOTH",
"499 32 OFFCURVE",
"369 53 OFFCURVE",
"298 62 CURVE SMOOTH",
"216 72 OFFCURVE",
"173 79 OFFCURVE",
"173 103 CURVE SMOOTH",
"173 110 OFFCURVE",
"177 116 OFFCURVE",
"184 119 CURVE",
"201 116 OFFCURVE",
"218 114 OFFCURVE",
"237 114 CURVE SMOOTH",
"368 114 OFFCURVE",
"439 204 OFFCURVE",
"439 311 CURVE SMOOTH",
"439 351 OFFCURVE",
"429 390 OFFCURVE",
"409 421 CURVE",
"420 422 OFFCURVE",
"431 422 OFFCURVE",
"437 422 CURVE SMOOTH",
"482 422 LINE",
"490 500 LINE",
"458 500 LINE SMOOTH",
"411 500 OFFCURVE",
"371 489 OFFCURVE",
"351 478 CURVE",
"321 497 OFFCURVE",
"282 508 OFFCURVE",
"237 508 CURVE SMOOTH",
"106 508 OFFCURVE",
"34 418 OFFCURVE",
"34 311 CURVE SMOOTH",
"34 245 OFFCURVE",
"61 186 OFFCURVE",
"111 150 CURVE",
"78 134 OFFCURVE",
"61 113 OFFCURVE",
"61 82 CURVE SMOOTH",
"61 49 OFFCURVE",
"79 27 OFFCURVE",
"106 10 CURVE",
"53 -18 OFFCURVE",
"24 -54 OFFCURVE",
"24 -102 CURVE SMOOTH",
"24 -176 OFFCURVE",
"94 -250 OFFCURVE",
"260 -250 CURVE SMOOTH"
);
},
{
closed = 1;
nodes = (
"173 -162 OFFCURVE",
"127 -134 OFFCURVE",
"127 -90 CURVE SMOOTH",
"127 -52 OFFCURVE",
"160 -33 OFFCURVE",
"196 -21 CURVE",
"218 -25 OFFCURVE",
"238 -28 OFFCURVE",
"256 -30 CURVE SMOOTH",
"319 -37 OFFCURVE",
"389 -46 OFFCURVE",
"389 -94 CURVE SMOOTH",
"389 -137 OFFCURVE",
"331 -162 OFFCURVE",
"254 -162 CURVE SMOOTH"
);
},
{
closed = 1;
nodes = (
"176 205 OFFCURVE",
"145 247 OFFCURVE",
"145 311 CURVE SMOOTH",
"145 375 OFFCURVE",
"176 417 OFFCURVE",
"237 417 CURVE SMOOTH",
"297 417 OFFCURVE",
"328 375 OFFCURVE",
"328 311 CURVE SMOOTH",
"328 247 OFFCURVE",
"297 205 OFFCURVE",
"237 205 CURVE SMOOTH"
);
}
);
width = 501;
},
{
associatedMasterId = UUID0;
layerId = "10600B78-6B12-49DD-9AA4-236CFA6F5A17";
name = "Regular Sep 7 16, 14:04";
paths = (
{
closed = 1;
nodes = (
"417 -250 OFFCURVE",
"501 -175 OFFCURVE",
"501 -96 CURVE SMOOTH",
"501 0 OFFCURVE",
"378 27 OFFCURVE",
"301 40 CURVE SMOOTH",
"185 60 OFFCURVE",
"149 67 OFFCURVE",
"149 92 CURVE SMOOTH",
"149 104 OFFCURVE",
"159 114 OFFCURVE",
"173 122 CURVE",
"194 116 OFFCURVE",
"220 113 OFFCURVE",
"243 113 CURVE SMOOTH",
"371 113 OFFCURVE",
"441 209 OFFCURVE",
"441 308 CURVE SMOOTH",
"441 344 OFFCURVE",
"432 382 OFFCURVE",
"396 425 CURVE",
"417 430 OFFCURVE",
"447 432 OFFCURVE",
"454 432 CURVE SMOOTH",
"477 432 LINE",
"488 492 LINE",
"480 492 LINE SMOOTH",
"431 492 OFFCURVE",
"391 480 OFFCURVE",
"361 464 CURVE",
"321 489 OFFCURVE",
"282 500 OFFCURVE",
"236 500 CURVE SMOOTH",
"106 500 OFFCURVE",
"36 411 OFFCURVE",
"36 303 CURVE SMOOTH",
"36 253 OFFCURVE",
"51 194 OFFCURVE",
"121 143 CURVE",
"74 121 OFFCURVE",
"63 87 OFFCURVE",
"63 70 CURVE SMOOTH",
"63 55 OFFCURVE",
"71 28 OFFCURVE",
"113 8 CURVE",
"36 -19 OFFCURVE",
"26 -75 OFFCURVE",
"26 -102 CURVE SMOOTH",
"26 -167 OFFCURVE",
"85 -250 OFFCURVE",
"255 -250 CURVE SMOOTH"
);
},
{
closed = 1;
nodes = (
"165 -180 OFFCURVE",
"112 -145 OFFCURVE",
"112 -100 CURVE SMOOTH",
"112 -65 OFFCURVE",
"145 -28 OFFCURVE",
"190 -14 CURVE",
"202 -16 OFFCURVE",
"277 -26 OFFCURVE",
"279 -26 CURVE SMOOTH",
"368 -42 OFFCURVE",
"410 -67 OFFCURVE",
"410 -102 CURVE SMOOTH",
"410 -140 OFFCURVE",
"359 -180 OFFCURVE",
"259 -180 CURVE SMOOTH"
);
},
{
closed = 1;
nodes = (
"170 182 OFFCURVE",
"122 229 OFFCURVE",
"122 306 CURVE SMOOTH",
"122 377 OFFCURVE",
"162 428 OFFCURVE",
"237 428 CURVE",
"306 428 OFFCURVE",
"355 386 OFFCURVE",
"355 309 CURVE SMOOTH",
"355 238 OFFCURVE",
"314 182 OFFCURVE",
"239 182 CURVE SMOOTH"
);
}
);
width = 498;
},
{
associatedMasterId = "7C863538-AAB4-42AD-A9FE-7240E615272A";
layerId = "ED657422-E3A8-49B8-8BEF-31B29C859B96";
name = "Bold Sep 7 16, 14:04";
paths = (
{
closed = 1;
nodes = (
"414 -250 OFFCURVE",
"499 -186 OFFCURVE",
"499 -89 CURVE SMOOTH",
"499 32 OFFCURVE",
"369 53 OFFCURVE",
"298 62 CURVE SMOOTH",
"216 72 OFFCURVE",
"173 79 OFFCURVE",
"173 103 CURVE SMOOTH",
"173 110 OFFCURVE",
"177 116 OFFCURVE",
"184 119 CURVE",
"201 116 OFFCURVE",
"218 114 OFFCURVE",
"237 114 CURVE SMOOTH",
"368 114 OFFCURVE",
"439 204 OFFCURVE",
"439 311 CURVE SMOOTH",
"439 351 OFFCURVE",
"429 390 OFFCURVE",
"409 421 CURVE",
"420 422 OFFCURVE",
"431 422 OFFCURVE",
"437 422 CURVE SMOOTH",
"482 422 LINE",
"490 500 LINE",
"458 500 LINE SMOOTH",
"411 500 OFFCURVE",
"371 489 OFFCURVE",
"351 478 CURVE",
"321 497 OFFCURVE",
"282 508 OFFCURVE",
"237 508 CURVE SMOOTH",
"106 508 OFFCURVE",
"34 418 OFFCURVE",
"34 311 CURVE SMOOTH",
"34 245 OFFCURVE",
"61 186 OFFCURVE",
"111 150 CURVE",
"78 134 OFFCURVE",
"61 113 OFFCURVE",
"61 82 CURVE SMOOTH",
"61 49 OFFCURVE",
"79 27 OFFCURVE",
"106 10 CURVE",
"53 -18 OFFCURVE",
"24 -54 OFFCURVE",
"24 -102 CURVE SMOOTH",
"24 -176 OFFCURVE",
"94 -250 OFFCURVE",
"260 -250 CURVE"
);
},
{
closed = 1;
nodes = (
"173 -162 OFFCURVE",
"127 -134 OFFCURVE",
"127 -90 CURVE SMOOTH",
"127 -52 OFFCURVE",
"160 -33 OFFCURVE",
"196 -21 CURVE",
"218 -25 OFFCURVE",
"238 -28 OFFCURVE",
"256 -30 CURVE SMOOTH",
"319 -37 OFFCURVE",
"389 -46 OFFCURVE",
"389 -94 CURVE SMOOTH",
"389 -137 OFFCURVE",
"331 -162 OFFCURVE",
"254 -162 CURVE SMOOTH"
);
},
{
closed = 1;
nodes = (
"176 205 OFFCURVE",
"145 247 OFFCURVE",
"145 311 CURVE SMOOTH",
"145 375 OFFCURVE",
"176 417 OFFCURVE",
"237 417 CURVE",
"297 417 OFFCURVE",
"328 375 OFFCURVE",
"328 311 CURVE SMOOTH",
"328 247 OFFCURVE",
"297 205 OFFCURVE",
"237 205 CURVE SMOOTH"
);
}
);
width = 501;
}
);
unicode = 0067;
},
{
color = 4;
glyphname = h;
layers = (
{
anchors = (
{
name = bottom;
position = "{274, 0}";
},
{
name = top;
position = "{106, 750}";
}
);
layerId = UUID0;
paths = (
{
closed = 1;
nodes = (
"151 0 LINE",
"151 356 LINE",
"179 400 OFFCURVE",
"219 420 OFFCURVE",
"279 420 CURVE SMOOTH",
"366 420 OFFCURVE",
"396 378 OFFCURVE",
"396 262 CURVE SMOOTH",
"396 0 LINE",
"486 0 LINE",
"486 262 LINE SMOOTH",
"486 403 OFFCURVE",
"436 500 OFFCURVE",
"302 500 CURVE SMOOTH",
"234 500 OFFCURVE",
"187 480 OFFCURVE",
"151 437 CURVE",
"151 750 LINE",
"60 750 LINE",
"60 0 LINE"
);
}
);
width = 542;
},
{
anchors = (
{
name = bottom;
position = "{276, 0}";
},
{
name = top;
position = "{119, 750}";
}
);
layerId = "7C863538-AAB4-42AD-A9FE-7240E615272A";
paths = (
{
closed = 1;
nodes = (
"181 0 LINE",
"181 363 LINE",
"205 390 OFFCURVE",
"235 406 OFFCURVE",
"278 406 CURVE SMOOTH",
"346 406 OFFCURVE",
"374 362 OFFCURVE",
"374 269 CURVE SMOOTH",
"374 0 LINE",
"498 0 LINE",
"498 278 LINE SMOOTH",
"498 414 OFFCURVE",
"442 508 OFFCURVE",
"310 508 CURVE SMOOTH",
"256 508 OFFCURVE",
"216 490 OFFCURVE",
"181 468 CURVE",
"181 750 LINE",
"57 750 LINE",
"57 0 LINE"
);
}
);
width = 551;
},
{
associatedMasterId = UUID0;
layerId = "933059AD-9A67-4E1C-8727-2BA29B2E8C76";
name = "Regular Sep 7 16, 14:04";
paths = (
{
closed = 1;
nodes = (
"151 0 LINE",
"151 356 LINE",
"179 400 OFFCURVE",
"219 420 OFFCURVE",
"279 420 CURVE SMOOTH",
"366 420 OFFCURVE",
"396 378 OFFCURVE",
"396 262 CURVE SMOOTH",
"396 0 LINE",
"486 0 LINE",
"486 262 LINE SMOOTH",
"486 403 OFFCURVE",
"434 500 OFFCURVE",
"293 500 CURVE SMOOTH",
"229 500 OFFCURVE",
"185 480 OFFCURVE",
"151 437 CURVE",
"151 750 LINE",
"60 750 LINE",
"60 0 LINE"
);
}
);
width = 542;
},
{
associatedMasterId = "7C863538-AAB4-42AD-A9FE-7240E615272A";
layerId = "39DAAE68-1FC2-4800-B543-42D8C01BAC56";
name = "Bold Sep 7 16, 14:04";
paths = (
{
closed = 1;
nodes = (
"181 0 LINE",
"181 363 LINE",
"204 390 OFFCURVE",
"233 406 OFFCURVE",
"275 406 CURVE SMOOTH",
"345 406 OFFCURVE",
"374 362 OFFCURVE",
"374 269 CURVE SMOOTH",
"374 0 LINE",
"498 0 LINE",
"498 269 LINE SMOOTH",
"498 410 OFFCURVE",
"441 508 OFFCURVE",
"285 508 CURVE SMOOTH",
"248 508 OFFCURVE",
"210 493 OFFCURVE",
"181 474 CURVE",
"181 750 LINE",
"57 750 LINE",
"57 0 LINE"
);
}
);
width = 551;
visible = 1;
}
);
leftKerningGroup = h;
rightKerningGroup = n;
unicode = 0068;
},
{
glyphname = i;
layers = (
{
layerId = UUID0;
paths = (
{
closed = 1;
nodes = (
"151 0 LINE",
"151 490 LINE",
"61 490 LINE",
"61 0 LINE"
);
},
{
closed = 1;
nodes = (
"151 600 LINE",
"151 700 LINE",
"61 700 LINE",
"61 600 LINE"
);
}
);
width = 212;
},
{
layerId = "7C863538-AAB4-42AD-A9FE-7240E615272A";
paths = (
{
closed = 1;
nodes = (
"182 0 LINE",
"182 500 LINE",
"58 500 LINE",
"58 0 LINE"
);
},
{
closed = 1;
nodes = (
"182 576 LINE",
"182 700 LINE",
"58 700 LINE",
"58 576 LINE"
);
}
);
width = 240;
},
{
associatedMasterId = UUID0;
layerId = "12E17AF9-D4A3-4A75-A62D-0C67C9C5A029";
name = "Regular Sep 7 16, 14:04";
paths = (
{
closed = 1;
nodes = (
"151 0 LINE",
"151 490 LINE",
"61 490 LINE",
"61 0 LINE"
);
},
{
closed = 1;
nodes = (
"151 600 LINE",
"151 700 LINE",
"61 700 LINE",
"61 600 LINE"
);
}
);
width = 212;
},
{
associatedMasterId = "7C863538-AAB4-42AD-A9FE-7240E615272A";
layerId = "E7A3299C-0599-4CE8-9ED3-17F4FC573C6A";
name = "Bold Sep 7 16, 14:04";
paths = (
{
closed = 1;
nodes = (
"182 0 LINE",
"182 500 LINE",
"58 500 LINE",
"58 0 LINE"
);
},
{
closed = 1;
nodes = (
"182 576 LINE",
"182 700 LINE",
"58 700 LINE",
"58 576 LINE"
);
}
);
width = 240;
}
);
leftKerningGroup = i;
rightKerningGroup = i;
unicode = 0069;
},
{
glyphname = j;
layers = (
{
layerId = UUID0;
paths = (
{
closed = 1;
nodes = (
"28 -237 LINE SMOOTH",
"79 -229 OFFCURVE",
"151 -201 OFFCURVE",
"151 -107 CURVE SMOOTH",
"151 490 LINE",
"61 490 LINE",
"61 -73 LINE SMOOTH",
"61 -152 OFFCURVE",
"47 -167 OFFCURVE",
"-12 -173 CURVE",
"-2 -242 LINE"
);
},
{
closed = 1;
nodes = (
"151 600 LINE",
"151 700 LINE",
"61 700 LINE",
"61 600 LINE"
);
}
);
width = 212;
},
{
layerId = "7C863538-AAB4-42AD-A9FE-7240E615272A";
paths = (
{
closed = 1;
nodes = (
"54 -242 LINE SMOOTH",
"143 -242 OFFCURVE",
"182 -183 OFFCURVE",
"182 -111 CURVE SMOOTH",
"182 500 LINE",
"58 500 LINE",
"58 -60 LINE SMOOTH",
"58 -139 OFFCURVE",
"51 -140 OFFCURVE",
"-2 -140 CURVE",
"9 -242 LINE"
);
},
{
closed = 1;
nodes = (
"182 576 LINE",
"182 700 LINE",
"58 700 LINE",
"58 576 LINE"
);
}
);
width = 240;
},
{
associatedMasterId = UUID0;
layerId = "D102FDAD-EBEC-495F-BB65-F50DE64B9F2E";
name = "Regular Sep 7 16, 14:04";
paths = (
{
closed = 1;
nodes = (
"28 -237 LINE SMOOTH",
"79 -229 OFFCURVE",
"151 -201 OFFCURVE",
"151 -107 CURVE SMOOTH",
"151 490 LINE",
"61 490 LINE",
"61 -73 LINE SMOOTH",
"61 -152 OFFCURVE",
"47 -167 OFFCURVE",
"-12 -173 CURVE",
"-2 -242 LINE"
);
},
{
closed = 1;
nodes = (
"151 600 LINE",
"151 700 LINE",
"61 700 LINE",
"61 600 LINE"
);
}
);
width = 212;
},
{
associatedMasterId = "7C863538-AAB4-42AD-A9FE-7240E615272A";
layerId = "FE9FA0DB-3A9B-4F9D-A04A-B89EB9088044";
name = "Bold Sep 7 16, 14:04";
paths = (
{
closed = 1;
nodes = (
"54 -242 LINE SMOOTH",
"143 -242 OFFCURVE",
"182 -183 OFFCURVE",
"182 -111 CURVE SMOOTH",
"182 500 LINE",
"58 500 LINE",
"58 -60 LINE SMOOTH",
"58 -139 OFFCURVE",
"51 -140 OFFCURVE",
"-2 -140 CURVE",
"9 -242 LINE"
);
},
{
closed = 1;
nodes = (
"182 576 LINE",
"182 700 LINE",
"58 700 LINE",
"58 576 LINE"
);
}
);
width = 240;
}
);
leftKerningGroup = i;
rightKerningGroup = i;
unicode = 006A;
},
{
glyphname = k;
layers = (
{
layerId = UUID0;
paths = (
{
closed = 1;
nodes = (
"150 0 LINE",
"150 249 LINE",
"335 0 LINE",
"445 0 LINE",
"238 264 LINE",
"440 490 LINE",
"330 490 LINE",
"150 269 LINE",
"150 750 LINE",
"60 750 LINE",
"60 0 LINE"
);
}
);
width = 448;
},
{
layerId = "7C863538-AAB4-42AD-A9FE-7240E615272A";
paths = (
{
closed = 1;
nodes = (
"181 0 LINE",
"181 222 LINE",
"340 0 LINE",
"480 0 LINE",
"297 260 LINE",
"480 500 LINE",
"340 500 LINE",
"181 295 LINE",
"181 750 LINE",
"57 750 LINE",
"57 0 LINE"
);
}
);
width = 485;
},
{
associatedMasterId = UUID0;
layerId = "B00F4088-8043-4CF4-A9A0-F64753F2B983";
name = "Regular Sep 7 16, 14:04";
paths = (
{
closed = 1;
nodes = (
"150 0 LINE",
"150 249 LINE",
"335 0 LINE",
"445 0 LINE",
"238 264 LINE",
"440 490 LINE",
"330 490 LINE",
"150 269 LINE",
"150 750 LINE",
"60 750 LINE",
"60 0 LINE"
);
}
);
width = 448;
},
{
associatedMasterId = "7C863538-AAB4-42AD-A9FE-7240E615272A";
layerId = "5726C71C-D26D-4ECC-B735-0F99493AFFC2";
name = "Bold Sep 7 16, 14:04";
paths = (
{
closed = 1;
nodes = (
"181 0 LINE",
"181 222 LINE",
"340 0 LINE",
"480 0 LINE",
"297 260 LINE",
"480 500 LINE",
"340 500 LINE",
"181 295 LINE",
"181 750 LINE",
"57 750 LINE",
"57 0 LINE"
);
}
);
width = 485;
}
);
leftKerningGroup = h;
unicode = 006B;
},
{
glyphname = l;
layers = (
{
anchors = (
{
name = bottom;
position = "{118, 0}";
},
{
name = center;
position = "{105, 414}";
},
{
name = top;
position = "{105, 750}";
},
{
name = topright;
position = "{216, 490}";
}
);
layerId = UUID0;
paths = (
{
closed = 1;
nodes = (
"216 -10 LINE",
"229 62 LINE",
"160 62 OFFCURVE",
"150 76 OFFCURVE",
"150 160 CURVE SMOOTH",
"150 750 LINE",
"60 750 LINE",
"60 108 LINE SMOOTH",
"60 49 OFFCURVE",
"92 -10 OFFCURVE",
"187 -10 CURVE SMOOTH"
);
}
);
width = 236;
},
{
anchors = (
{
name = bottom;
position = "{132, 0}";
},
{
name = center;
position = "{132, 410}";
},
{
name = top;
position = "{120, 750}";
},
{
name = topright;
position = "{243, 500}";
}
);
layerId = "7C863538-AAB4-42AD-A9FE-7240E615272A";
paths = (
{
closed = 1;
nodes = (
"231 -10 LINE",
"242 92 LINE",
"193 92 OFFCURVE",
"182 92 OFFCURVE",
"182 172 CURVE SMOOTH",
"182 750 LINE",
"58 750 LINE",
"58 121 LINE SMOOTH",
"58 49 OFFCURVE",
"97 -10 OFFCURVE",
"186 -10 CURVE SMOOTH"
);
}
);
width = 263;
},
{
associatedMasterId = UUID0;
layerId = "65DC449E-7008-47D1-9AA4-833BD8140EBB";
name = "Regular Sep 7 16, 14:04";
paths = (
{
closed = 1;
nodes = (
"216 -10 LINE",
"229 62 LINE",
"160 62 OFFCURVE",
"150 76 OFFCURVE",
"150 160 CURVE SMOOTH",
"150 750 LINE",
"60 750 LINE",
"60 108 LINE SMOOTH",
"60 49 OFFCURVE",
"92 -10 OFFCURVE",
"187 -10 CURVE SMOOTH"
);
}
);
width = 236;
},
{
associatedMasterId = "7C863538-AAB4-42AD-A9FE-7240E615272A";
layerId = "C490BC82-38DF-4B77-AB69-867128F31CF6";
name = "Bold Sep 7 16, 14:04";
paths = (
{
closed = 1;
nodes = (
"231 -10 LINE",
"242 92 LINE",
"193 92 OFFCURVE",
"182 92 OFFCURVE",
"182 172 CURVE SMOOTH",
"182 750 LINE",
"58 750 LINE",
"58 121 LINE SMOOTH",
"58 49 OFFCURVE",
"97 -10 OFFCURVE",
"186 -10 CURVE SMOOTH"
);
}
);
width = 263;
}
);
unicode = 006C;
},
{
color = 4;
glyphname = m;
layers = (
{
layerId = UUID0;
paths = (
{
closed = 1;
nodes = (
"151 0 LINE",
"151 356 LINE",
"176 400 OFFCURVE",
"225 420 OFFCURVE",
"281 420 CURVE SMOOTH",
"349 420 OFFCURVE",
"396 390 OFFCURVE",
"396 270 CURVE SMOOTH",
"396 0 LINE",
"486 0 LINE",
"486 284 LINE SMOOTH",
"486 339 OFFCURVE",
"501 420 OFFCURVE",
"616 420 CURVE SMOOTH",
"697 420 OFFCURVE",
"731 380 OFFCURVE",
"731 288 CURVE SMOOTH",
"731 0 LINE",
"821 0 LINE",
"821 289 LINE SMOOTH",
"821 433 OFFCURVE",
"756 500 OFFCURVE",
"633 500 CURVE SMOOTH",
"542 500 OFFCURVE",
"486 463 OFFCURVE",
"454 402 CURVE",
"419 477 OFFCURVE",
"359 500 OFFCURVE",
"296 500 CURVE SMOOTH",
"241 500 OFFCURVE",
"192 484 OFFCURVE",
"141 438 CURVE",
"131 490 LINE",
"61 490 LINE",
"61 0 LINE"
);
}
);
width = 877;
},
{
layerId = "7C863538-AAB4-42AD-A9FE-7240E615272A";
paths = (
{
closed = 1;
nodes = (
"182 0 LINE",
"182 365 LINE",
"204 391 OFFCURVE",
"234 406 OFFCURVE",
"274 406 CURVE SMOOTH",
"344 406 OFFCURVE",
"374 377 OFFCURVE",
"374 269 CURVE SMOOTH",
"374 0 LINE",
"497 0 LINE",
"497 309 LINE SMOOTH",
"497 360 OFFCURVE",
"514 406 OFFCURVE",
"596 406 CURVE SMOOTH",
"665 406 OFFCURVE",
"689 361 OFFCURVE",
"689 269 CURVE SMOOTH",
"689 0 LINE",
"813 0 LINE",
"813 279 LINE SMOOTH",
"813 413 OFFCURVE",
"749 508 OFFCURVE",
"614 508 CURVE SMOOTH",
"533 508 OFFCURVE",
"478 484 OFFCURVE",
"448 432 CURVE",
"414 484 OFFCURVE",
"366 508 OFFCURVE",
"300 508 CURVE SMOOTH",
"241 508 OFFCURVE",
"200 484 OFFCURVE",
"168 457 CURVE",
"160 500 LINE",
"58 500 LINE",
"58 0 LINE"
);
}
);
width = 866;
},
{
associatedMasterId = UUID0;
layerId = "18E61ACA-0FBA-4268-A6A6-16E0BE32696B";
name = "Regular Sep 7 16, 14:04";
paths = (
{
closed = 1;
nodes = (
"151 0 LINE",
"151 356 LINE",
"176 400 OFFCURVE",
"225 420 OFFCURVE",
"281 420 CURVE SMOOTH",
"349 420 OFFCURVE",
"396 390 OFFCURVE",
"396 270 CURVE SMOOTH",
"396 0 LINE",
"486 0 LINE",
"486 284 LINE SMOOTH",
"486 339 OFFCURVE",
"501 420 OFFCURVE",
"616 420 CURVE SMOOTH",
"697 420 OFFCURVE",
"731 380 OFFCURVE",
"731 288 CURVE SMOOTH",
"731 0 LINE",
"821 0 LINE",
"821 289 LINE SMOOTH",
"821 433 OFFCURVE",
"756 500 OFFCURVE",
"633 500 CURVE SMOOTH",
"542 500 OFFCURVE",
"486 463 OFFCURVE",
"454 402 CURVE",
"409 484 OFFCURVE",
"345 500 OFFCURVE",
"288 500 CURVE SMOOTH",
"236 500 OFFCURVE",
"197 488 OFFCURVE",
"141 438 CURVE",
"131 490 LINE",
"61 490 LINE",
"61 0 LINE"
);
}
);
width = 877;
},
{
associatedMasterId = "7C863538-AAB4-42AD-A9FE-7240E615272A";
layerId = "E6851467-D50D-4B15-9DA6-C7AE83183405";
name = "Bold Sep 7 16, 14:04";
paths = (
{
closed = 1;
nodes = (
"182 0 LINE",
"182 365 LINE",
"204 391 OFFCURVE",
"234 406 OFFCURVE",
"274 406 CURVE SMOOTH",
"344 406 OFFCURVE",
"374 377 OFFCURVE",
"374 269 CURVE SMOOTH",
"374 0 LINE",
"497 0 LINE",
"497 309 LINE SMOOTH",
"497 360 OFFCURVE",
"514 406 OFFCURVE",
"596 406 CURVE SMOOTH",
"665 406 OFFCURVE",
"689 361 OFFCURVE",
"689 269 CURVE SMOOTH",
"689 0 LINE",
"813 0 LINE",
"813 269 LINE SMOOTH",
"813 409 OFFCURVE",
"749 508 OFFCURVE",
"614 508 CURVE SMOOTH",
"524 508 OFFCURVE",
"465 464 OFFCURVE",
"448 432 CURVE",
"413 484 OFFCURVE",
"353 508 OFFCURVE",
"295 508 CURVE SMOOTH",
"242 508 OFFCURVE",
"196 485 OFFCURVE",
"167 461 CURVE",
"160 500 LINE",
"58 500 LINE",
"58 0 LINE"
);
}
);
width = 866;
}
);
leftKerningGroup = n;
rightKerningGroup = n;
unicode = 006D;
},
{
color = 4;
glyphname = n;
layers = (
{
anchors = (
{
name = bottom;
position = "{282, 0}";
},
{
name = top;
position = "{294, 490}";
}
);
layerId = UUID0;
paths = (
{
closed = 1;
nodes = (
"151 0 LINE",
"151 356 LINE",
"176 400 OFFCURVE",
"229 420 OFFCURVE",
"285 420 CURVE SMOOTH",
"378 420 OFFCURVE",
"413 374 OFFCURVE",
"413 270 CURVE SMOOTH",
"413 0 LINE",
"503 0 LINE",
"503 270 LINE SMOOTH",
"503 411 OFFCURVE",
"446 500 OFFCURVE",
"303 500 CURVE SMOOTH",
"251 500 OFFCURVE",
"197 488 OFFCURVE",
"141 438 CURVE",
"131 490 LINE",
"61 490 LINE",
"61 0 LINE"
);
}
);
width = 559;
},
{
anchors = (
{
name = bottom;
position = "{279, 0}";
},
{
name = top;
position = "{293, 490}";
}
);
layerId = "7C863538-AAB4-42AD-A9FE-7240E615272A";
paths = (
{
closed = 1;
nodes = (
"182 0 LINE",
"182 363 LINE",
"205 390 OFFCURVE",
"234 406 OFFCURVE",
"276 406 CURVE SMOOTH",
"346 406 OFFCURVE",
"375 362 OFFCURVE",
"375 269 CURVE SMOOTH",
"375 0 LINE",
"499 0 LINE",
"499 279 LINE SMOOTH",
"499 414 OFFCURVE",
"438 508 OFFCURVE",
"310 508 CURVE SMOOTH",
"255 508 OFFCURVE",
"211 489 OFFCURVE",
"176 465 CURVE",
"174 500 LINE",
"58 500 LINE",
"58 0 LINE"
);
}
);
width = 552;
},
{
anchors = (
{
name = bottom;
position = "{280, 0}";
},
{
name = top;
position = "{280, 490}";
}
);
associatedMasterId = UUID0;
layerId = "700CA5E5-71F8-4195-B00B-CEDC85FE5DA4";
name = "Regular Sep 7 16, 14:04";
paths = (
{
closed = 1;
nodes = (
"151 0 LINE",
"151 356 LINE",
"176 400 OFFCURVE",
"229 420 OFFCURVE",
"285 420 CURVE SMOOTH",
"378 420 OFFCURVE",
"413 374 OFFCURVE",
"413 270 CURVE SMOOTH",
"413 0 LINE",
"503 0 LINE",
"503 270 LINE SMOOTH",
"503 411 OFFCURVE",
"446 500 OFFCURVE",
"303 500 CURVE SMOOTH",
"251 500 OFFCURVE",
"197 488 OFFCURVE",
"141 438 CURVE",
"131 490 LINE",
"61 490 LINE",
"61 0 LINE"
);
}
);
width = 559;
},
{
anchors = (
{
name = bottom;
position = "{276.494, 0}";
},
{
name = top;
position = "{276.494, 490}";
}
);
associatedMasterId = "7C863538-AAB4-42AD-A9FE-7240E615272A";
layerId = "E3BDE350-1459-4772-A3E3-441314472B55";
name = "Bold Sep 7 16, 14:04";
paths = (
{
closed = 1;
nodes = (
"182 0 LINE",
"182 363 LINE",
"205 390 OFFCURVE",
"234 406 OFFCURVE",
"276 406 CURVE SMOOTH",
"346 406 OFFCURVE",
"375 362 OFFCURVE",
"375 269 CURVE SMOOTH",
"375 0 LINE",
"499 0 LINE",
"499 269 LINE SMOOTH",
"499 410 OFFCURVE",
"442 508 OFFCURVE",
"286 508 CURVE SMOOTH",
"247 508 OFFCURVE",
"205 491 OFFCURVE",
"176 470 CURVE",
"174 500 LINE",
"58 500 LINE",
"58 0 LINE"
);
}
);
width = 552;
visible = 1;
}
);
leftKerningGroup = n;
rightKerningGroup = n;
unicode = 006E;
},
{
glyphname = o;
layers = (
{
anchors = (
{
name = bottom;
position = "{275, 0}";
},
{
name = center;
position = "{275, 245}";
},
{
name = ogonek;
position = "{495, 10}";
},
{
name = top;
position = "{275, 490}";
},
{
name = topright;
position = "{419, 490}";
}
);
layerId = UUID0;
paths = (
{
closed = 1;
nodes = (
"428 -10 OFFCURVE",
"518 103 OFFCURVE",
"518 245 CURVE SMOOTH",
"518 387 OFFCURVE",
"428 500 OFFCURVE",
"275 500 CURVE SMOOTH",
"121 500 OFFCURVE",
"32 387 OFFCURVE",
"32 245 CURVE SMOOTH",
"32 103 OFFCURVE",
"121 -10 OFFCURVE",
"275 -10 CURVE SMOOTH"
);
},
{
closed = 1;
nodes = (
"178 70 OFFCURVE",
"124 135 OFFCURVE",
"124 245 CURVE SMOOTH",
"124 355 OFFCURVE",
"178 420 OFFCURVE",
"275 420 CURVE SMOOTH",
"372 420 OFFCURVE",
"426 355 OFFCURVE",
"426 245 CURVE SMOOTH",
"426 135 OFFCURVE",
"372 70 OFFCURVE",
"275 70 CURVE SMOOTH"
);
}
);
width = 550;
},
{
anchors = (
{
name = bottom;
position = "{285, 0}";
},
{
name = center;
position = "{285, 250}";
},
{
name = ogonek;
position = "{510, 10}";
},
{
name = top;
position = "{285, 500}";
},
{
name = topright;
position = "{452, 500}";
}
);
layerId = "7C863538-AAB4-42AD-A9FE-7240E615272A";
paths = (
{
closed = 1;
nodes = (
"448 -10 OFFCURVE",
"542 109 OFFCURVE",
"542 249 CURVE SMOOTH",
"542 390 OFFCURVE",
"448 510 OFFCURVE",
"285 510 CURVE SMOOTH",
"122 510 OFFCURVE",
"28 390 OFFCURVE",
"28 249 CURVE SMOOTH",
"28 109 OFFCURVE",
"122 -10 OFFCURVE",
"285 -10 CURVE SMOOTH"
);
},
{
closed = 1;
nodes = (
"202 92 OFFCURVE",
"155 156 OFFCURVE",
"155 249 CURVE SMOOTH",
"155 343 OFFCURVE",
"202 408 OFFCURVE",
"285 408 CURVE SMOOTH",
"368 408 OFFCURVE",
"415 343 OFFCURVE",
"415 249 CURVE SMOOTH",
"415 156 OFFCURVE",
"368 92 OFFCURVE",
"285 92 CURVE SMOOTH"
);
}
);
width = 570;
},
{
anchors = (
{
name = bottom;
position = "{275, 0}";
},
{
name = center;
position = "{275, 245}";
},
{
name = ogonek;
position = "{495, 10}";
},
{
name = top;
position = "{275, 490}";
},
{
name = topright;
position = "{419, 490}";
}
);
associatedMasterId = UUID0;
layerId = "1885EDF5-9B55-4063-93E8-570E647F6085";
name = "Regular Sep 7 16, 14:04";
paths = (
{
closed = 1;
nodes = (
"428 -10 OFFCURVE",
"518 103 OFFCURVE",
"518 245 CURVE SMOOTH",
"518 387 OFFCURVE",
"428 500 OFFCURVE",
"275 500 CURVE SMOOTH",
"121 500 OFFCURVE",
"32 387 OFFCURVE",
"32 245 CURVE SMOOTH",
"32 103 OFFCURVE",
"121 -10 OFFCURVE",
"275 -10 CURVE"
);
},
{
closed = 1;
nodes = (
"178 70 OFFCURVE",
"124 135 OFFCURVE",
"124 245 CURVE SMOOTH",
"124 355 OFFCURVE",
"178 420 OFFCURVE",
"275 420 CURVE",
"372 420 OFFCURVE",
"426 355 OFFCURVE",
"426 245 CURVE SMOOTH",
"426 135 OFFCURVE",
"372 70 OFFCURVE",
"275 70 CURVE SMOOTH"
);
}
);
width = 550;
},
{
anchors = (
{
name = bottom;
position = "{281, 0}";
},
{
name = center;
position = "{281, 250}";
},
{
name = ogonek;
position = "{506, 10}";
},
{
name = top;
position = "{281, 500}";
},
{
name = topright;
position = "{448, 500}";
}
);
associatedMasterId = "7C863538-AAB4-42AD-A9FE-7240E615272A";
layerId = "82A2DEE3-2C7B-400D-9B6B-8EDB1FF0FCA8";
name = "Bold Sep 7 16, 14:04";
paths = (
{
closed = 1;
nodes = (
"441 -10 OFFCURVE",
"534 109 OFFCURVE",
"534 249 CURVE SMOOTH",
"534 389 OFFCURVE",
"441 508 OFFCURVE",
"281 508 CURVE SMOOTH",
"121 508 OFFCURVE",
"28 389 OFFCURVE",
"28 249 CURVE SMOOTH",
"28 109 OFFCURVE",
"121 -10 OFFCURVE",
"281 -10 CURVE"
);
},
{
closed = 1;
nodes = (
"201 92 OFFCURVE",
"155 156 OFFCURVE",
"155 249 CURVE SMOOTH",
"155 342 OFFCURVE",
"201 406 OFFCURVE",
"281 406 CURVE",
"361 406 OFFCURVE",
"407 342 OFFCURVE",
"407 249 CURVE SMOOTH",
"407 156 OFFCURVE",
"361 92 OFFCURVE",
"281 92 CURVE SMOOTH"
);
}
);
width = 562;
}
);
leftKerningGroup = o;
rightKerningGroup = o;
unicode = 006F;
},
{
color = 4;
glyphname = p;
layers = (
{
layerId = UUID0;
paths = (
{
closed = 1;
nodes = (
"151 -242 LINE",
"151 105 LINE",
"136 87 LINE",
"164 22 OFFCURVE",
"232 -10 OFFCURVE",
"310 -10 CURVE SMOOTH",
"452 -10 OFFCURVE",
"524 102 OFFCURVE",
"524 245 CURVE SMOOTH",
"524 388 OFFCURVE",
"444 500 OFFCURVE",
"310 500 CURVE SMOOTH",
"222 500 OFFCURVE",
"163 460 OFFCURVE",
"122 396 CURVE",
"147 378 LINE",
"131 490 LINE",
"61 490 LINE",
"61 -242 LINE"
);
},
{
closed = 1;
nodes = (
"212 70 OFFCURVE",
"146 122 OFFCURVE",
"146 245 CURVE SMOOTH",
"146 363 OFFCURVE",
"212 420 OFFCURVE",
"293 420 CURVE SMOOTH",
"380 420 OFFCURVE",
"432 355 OFFCURVE",
"432 245 CURVE SMOOTH",
"432 135 OFFCURVE",
"380 70 OFFCURVE",
"293 70 CURVE SMOOTH"
);
}
);
width = 557;
},
{
layerId = "7C863538-AAB4-42AD-A9FE-7240E615272A";
paths = (
{
closed = 1;
nodes = (
"182 -242 LINE",
"182 82 LINE",
"150 57 LINE",
"200 10 OFFCURVE",
"241 -10 OFFCURVE",
"319 -10 CURVE SMOOTH",
"466 -10 OFFCURVE",
"544 109 OFFCURVE",
"544 249 CURVE SMOOTH",
"544 389 OFFCURVE",
"466 508 OFFCURVE",
"319 508 CURVE SMOOTH",
"241 508 OFFCURVE",
"191 477 OFFCURVE",
"145 430 CURVE",
"195 417 LINE",
"166 500 LINE",
"58 500 LINE",
"58 -242 LINE"
);
},
{
closed = 1;
nodes = (
"214 92 OFFCURVE",
"176 156 OFFCURVE",
"176 249 CURVE SMOOTH",
"176 342 OFFCURVE",
"214 406 OFFCURVE",
"300 406 CURVE SMOOTH",
"374 406 OFFCURVE",
"417 342 OFFCURVE",
"417 249 CURVE SMOOTH",
"417 156 OFFCURVE",
"374 92 OFFCURVE",
"300 92 CURVE SMOOTH"
);
}
);
width = 572;
},
{
associatedMasterId = UUID0;
layerId = "AC08C7BB-9E2A-4FF1-BE44-94C8F6AFC75C";
name = "Regular Sep 7 16, 14:04";
paths = (
{
closed = 1;
nodes = (
"151 -242 LINE",
"151 62 LINE",
"188 14 OFFCURVE",
"261 -10 OFFCURVE",
"305 -10 CURVE SMOOTH",
"450 -10 OFFCURVE",
"524 102 OFFCURVE",
"524 245 CURVE SMOOTH",
"524 379 OFFCURVE",
"443 500 OFFCURVE",
"306 500 CURVE SMOOTH",
"226 500 OFFCURVE",
"183 471 OFFCURVE",
"141 420 CURVE",
"131 490 LINE",
"61 490 LINE",
"61 -242 LINE"
);
},
{
closed = 1;
nodes = (
"223 70 OFFCURVE",
"146 122 OFFCURVE",
"146 245 CURVE SMOOTH",
"146 363 OFFCURVE",
"223 420 OFFCURVE",
"295 420 CURVE",
"381 420 OFFCURVE",
"432 345 OFFCURVE",
"432 245 CURVE SMOOTH",
"432 149 OFFCURVE",
"381 70 OFFCURVE",
"295 70 CURVE SMOOTH"
);
}
);
width = 557;
},
{
associatedMasterId = "7C863538-AAB4-42AD-A9FE-7240E615272A";
layerId = "BF3E487D-3491-4022-8CC4-B1B1580201E8";
name = "Bold Sep 7 16, 14:04";
paths = (
{
closed = 1;
nodes = (
"182 -242 LINE",
"182 24 LINE",
"215 2 OFFCURVE",
"247 -10 OFFCURVE",
"299 -10 CURVE SMOOTH",
"459 -10 OFFCURVE",
"544 109 OFFCURVE",
"544 249 CURVE SMOOTH",
"544 389 OFFCURVE",
"459 508 OFFCURVE",
"299 508 CURVE SMOOTH",
"244 508 OFFCURVE",
"210 494 OFFCURVE",
"176 471 CURVE",
"166 500 LINE",
"58 500 LINE",
"58 -242 LINE"
);
},
{
closed = 1;
nodes = (
"211 92 OFFCURVE",
"176 156 OFFCURVE",
"176 249 CURVE SMOOTH",
"176 342 OFFCURVE",
"211 406 OFFCURVE",
"291 406 CURVE",
"371 406 OFFCURVE",
"417 342 OFFCURVE",
"417 249 CURVE SMOOTH",
"417 156 OFFCURVE",
"371 92 OFFCURVE",
"291 92 CURVE SMOOTH"
);
}
);
width = 572;
}
);
leftKerningGroup = n;
rightKerningGroup = o;
unicode = 0070;
},
{
color = 4;
glyphname = q;
layers = (
{
layerId = UUID0;
paths = (
{
closed = 1;
nodes = (
"496 -242 LINE",
"496 490 LINE",
"426 490 LINE",
"410 378 LINE",
"435 396 LINE",
"394 462 OFFCURVE",
"343 500 OFFCURVE",
"251 500 CURVE SMOOTH",
"114 500 OFFCURVE",
"33 379 OFFCURVE",
"33 245 CURVE SMOOTH",
"33 102 OFFCURVE",
"107 -10 OFFCURVE",
"252 -10 CURVE SMOOTH",
"330 -10 OFFCURVE",
"394 22 OFFCURVE",
"421 87 CURVE",
"406 105 LINE",
"406 -242 LINE"
);
},
{
closed = 1;
nodes = (
"177 70 OFFCURVE",
"125 135 OFFCURVE",
"125 245 CURVE SMOOTH",
"125 355 OFFCURVE",
"177 420 OFFCURVE",
"264 420 CURVE SMOOTH",
"345 420 OFFCURVE",
"411 363 OFFCURVE",
"411 245 CURVE SMOOTH",
"411 122 OFFCURVE",
"345 70 OFFCURVE",
"264 70 CURVE SMOOTH"
);
}
);
width = 557;
},
{
layerId = "7C863538-AAB4-42AD-A9FE-7240E615272A";
paths = (
{
closed = 1;
nodes = (
"514 -242 LINE",
"514 500 LINE",
"406 500 LINE",
"377 417 LINE",
"427 430 LINE",
"386 477 OFFCURVE",
"335 508 OFFCURVE",
"258 508 CURVE SMOOTH",
"108 508 OFFCURVE",
"28 389 OFFCURVE",
"28 249 CURVE SMOOTH",
"28 109 OFFCURVE",
"108 -10 OFFCURVE",
"258 -10 CURVE SMOOTH",
"332 -10 OFFCURVE",
"379 15 OFFCURVE",
"422 59 CURVE",
"390 82 LINE",
"390 -242 LINE"
);
},
{
closed = 1;
nodes = (
"200 92 OFFCURVE",
"155 156 OFFCURVE",
"155 249 CURVE SMOOTH",
"155 342 OFFCURVE",
"200 406 OFFCURVE",
"278 406 CURVE SMOOTH",
"360 406 OFFCURVE",
"396 342 OFFCURVE",
"396 249 CURVE SMOOTH",
"396 156 OFFCURVE",
"360 92 OFFCURVE",
"278 92 CURVE SMOOTH"
);
}
);
width = 572;
},
{
associatedMasterId = UUID0;
layerId = "502659CC-C806-4AB8-8F42-C3D825E64481";
name = "Regular Sep 7 16, 14:04";
paths = (
{
closed = 1;
nodes = (
"496 -242 LINE",
"496 490 LINE",
"426 490 LINE",
"416 420 LINE",
"374 471 OFFCURVE",
"331 500 OFFCURVE",
"251 500 CURVE SMOOTH",
"114 500 OFFCURVE",
"33 379 OFFCURVE",
"33 245 CURVE SMOOTH",
"33 102 OFFCURVE",
"107 -10 OFFCURVE",
"252 -10 CURVE",
"296 -10 OFFCURVE",
"369 14 OFFCURVE",
"406 62 CURVE",
"406 -242 LINE"
);
},
{
closed = 1;
nodes = (
"176 70 OFFCURVE",
"125 149 OFFCURVE",
"125 245 CURVE SMOOTH",
"125 345 OFFCURVE",
"176 420 OFFCURVE",
"262 420 CURVE",
"334 420 OFFCURVE",
"411 363 OFFCURVE",
"411 245 CURVE SMOOTH",
"411 122 OFFCURVE",
"334 70 OFFCURVE",
"262 70 CURVE SMOOTH"
);
}
);
width = 557;
},
{
associatedMasterId = "7C863538-AAB4-42AD-A9FE-7240E615272A";
layerId = "29FF95F6-2EF4-4F39-8636-DD5E29CCB0E4";
name = "Bold Sep 7 16, 14:04";
paths = (
{
closed = 1;
nodes = (
"514 -242 LINE",
"514 500 LINE",
"406 500 LINE",
"396 471 LINE",
"362 494 OFFCURVE",
"328 508 OFFCURVE",
"273 508 CURVE SMOOTH",
"113 508 OFFCURVE",
"28 389 OFFCURVE",
"28 249 CURVE SMOOTH",
"28 109 OFFCURVE",
"113 -10 OFFCURVE",
"273 -10 CURVE",
"325 -10 OFFCURVE",
"357 2 OFFCURVE",
"390 24 CURVE",
"390 -242 LINE"
);
},
{
closed = 1;
nodes = (
"201 92 OFFCURVE",
"155 156 OFFCURVE",
"155 249 CURVE SMOOTH",
"155 342 OFFCURVE",
"201 406 OFFCURVE",
"281 406 CURVE",
"361 406 OFFCURVE",
"396 342 OFFCURVE",
"396 249 CURVE SMOOTH",
"396 156 OFFCURVE",
"361 92 OFFCURVE",
"281 92 CURVE SMOOTH"
);
}
);
width = 572;
}
);
leftKerningGroup = o;
rightKerningGroup = u;
unicode = 0071;
},
{
glyphname = r;
layers = (
{
anchors = (
{
name = bottom;
position = "{109, 0}";
},
{
name = top;
position = "{211, 490}";
}
);
layerId = UUID0;
paths = (
{
closed = 1;
nodes = (
"157 0 LINE",
"157 346 LINE",
"174 377 OFFCURVE",
"228 409 OFFCURVE",
"269 409 CURVE SMOOTH",
"300 409 LINE",
"320 508 LINE",
"312 508 LINE SMOOTH",
"252 508 OFFCURVE",
"205 476 OFFCURVE",
"146 409 CURVE",
"135 490 LINE",
"61 490 LINE",
"61 0 LINE"
);
}
);
width = 321;
},
{
anchors = (
{
name = bottom;
position = "{120, 0}";
},
{
name = top;
position = "{217, 500}";
}
);
layerId = "7C863538-AAB4-42AD-A9FE-7240E615272A";
paths = (
{
closed = 1;
nodes = (
"182 0 LINE",
"182 341 LINE",
"196 369 OFFCURVE",
"232 391 OFFCURVE",
"273 391 CURVE SMOOTH",
"319 391 LINE",
"343 508 LINE",
"310 508 LINE SMOOTH",
"253 508 OFFCURVE",
"203 474 OFFCURVE",
"177 447 CURVE",
"174 500 LINE",
"58 500 LINE",
"58 0 LINE"
);
}
);
width = 342;
},
{
anchors = (
{
name = bottom;
position = "{109, 0}";
},
{
name = top;
position = "{211, 490}";
}
);
associatedMasterId = UUID0;
layerId = "6A8D7EDF-A206-44AB-8068-FEFF8997340B";
name = "Regular Sep 7 16, 14:04";
paths = (
{
closed = 1;
nodes = (
"157 0 LINE",
"157 346 LINE",
"174 377 OFFCURVE",
"228 409 OFFCURVE",
"269 409 CURVE SMOOTH",
"300 409 LINE",
"320 508 LINE",
"312 508 LINE SMOOTH",
"252 508 OFFCURVE",
"205 476 OFFCURVE",
"146 409 CURVE",
"135 490 LINE",
"61 490 LINE",
"61 0 LINE"
);
}
);
width = 321;
},
{
anchors = (
{
name = bottom;
position = "{116.131, 0}";
},
{
name = top;
position = "{224.804, 490}";
}
);
associatedMasterId = "7C863538-AAB4-42AD-A9FE-7240E615272A";
layerId = "0CEF1719-92F1-4866-86FD-9D3D06D30D5B";
name = "Bold Sep 7 16, 14:04";
paths = (
{
closed = 1;
nodes = (
"182 0 LINE",
"182 341 LINE",
"196 369 OFFCURVE",
"232 391 OFFCURVE",
"273 391 CURVE SMOOTH",
"319 391 LINE",
"343 508 LINE",
"310 508 LINE SMOOTH",
"253 508 OFFCURVE",
"203 474 OFFCURVE",
"177 447 CURVE",
"174 500 LINE",
"58 500 LINE",
"58 0 LINE"
);
}
);
width = 342;
}
);
leftKerningGroup = n;
unicode = 0072;
},
{
glyphname = s;
layers = (
{
anchors = (
{
name = bottom;
position = "{198, 0}";
},
{
name = top;
position = "{227, 490}";
}
);
layerId = UUID0;
paths = (
{
closed = 1;
nodes = (
"350 -10 OFFCURVE",
"387 71 OFFCURVE",
"387 136 CURVE SMOOTH",
"387 238 OFFCURVE",
"295 268 OFFCURVE",
"247 282 CURVE SMOOTH",
"170 305 OFFCURVE",
"133 317 OFFCURVE",
"133 363 CURVE SMOOTH",
"133 409 OFFCURVE",
"172 429 OFFCURVE",
"228 429 CURVE SMOOTH",
"283 429 OFFCURVE",
"319 410 OFFCURVE",
"348 386 CURVE",
"359 468 LINE",
"329 483 OFFCURVE",
"291 500 OFFCURVE",
"226 500 CURVE SMOOTH",
"92 500 OFFCURVE",
"42 428 OFFCURVE",
"42 353 CURVE SMOOTH",
"42 254 OFFCURVE",
"129 230 OFFCURVE",
"196 212 CURVE SMOOTH",
"236 201 OFFCURVE",
"294 182 OFFCURVE",
"294 131 CURVE SMOOTH",
"294 92 OFFCURVE",
"259 70 OFFCURVE",
"196 70 CURVE SMOOTH",
"121 70 OFFCURVE",
"64 101 OFFCURVE",
"43 120 CURVE",
"32 33 LINE",
"55 17 OFFCURVE",
"113 -10 OFFCURVE",
"200 -10 CURVE SMOOTH"
);
}
);
width = 414;
},
{
anchors = (
{
name = bottom;
position = "{198, 0}";
},
{
name = top;
position = "{224, 500}";
}
);
layerId = "7C863538-AAB4-42AD-A9FE-7240E615272A";
paths = (
{
closed = 1;
nodes = (
"371 -10 OFFCURVE",
"396 76 OFFCURVE",
"396 137 CURVE SMOOTH",
"396 240 OFFCURVE",
"326 271 OFFCURVE",
"259 290 CURVE SMOOTH",
"196 308 OFFCURVE",
"145 316 OFFCURVE",
"145 364 CURVE SMOOTH",
"145 404 OFFCURVE",
"185 419 OFFCURVE",
"228 419 CURVE SMOOTH",
"282 419 OFFCURVE",
"340 390 OFFCURVE",
"365 365 CURVE",
"376 471 LINE",
"349 489 OFFCURVE",
"284 508 OFFCURVE",
"219 508 CURVE SMOOTH",
"78 508 OFFCURVE",
"36 419 OFFCURVE",
"36 349 CURVE SMOOTH",
"36 253 OFFCURVE",
"110 230 OFFCURVE",
"180 209 CURVE SMOOTH",
"229 194 OFFCURVE",
"272 180 OFFCURVE",
"272 138 CURVE SMOOTH",
"272 113 OFFCURVE",
"256 83 OFFCURVE",
"196 83 CURVE SMOOTH",
"140 83 OFFCURVE",
"73 109 OFFCURVE",
"42 133 CURVE",
"31 27 LINE",
"60 8 OFFCURVE",
"122 -10 OFFCURVE",
"200 -10 CURVE SMOOTH"
);
}
);
width = 423;
},
{
associatedMasterId = UUID0;
layerId = "34BB8A4E-8694-442C-9FE0-138B031A0A89";
name = "Regular Sep 7 16, 14:04";
paths = (
{
closed = 1;
nodes = (
"350 -10 OFFCURVE",
"387 71 OFFCURVE",
"387 136 CURVE SMOOTH",
"387 238 OFFCURVE",
"295 268 OFFCURVE",
"247 282 CURVE SMOOTH",
"170 305 OFFCURVE",
"133 317 OFFCURVE",
"133 363 CURVE SMOOTH",
"133 409 OFFCURVE",
"172 429 OFFCURVE",
"228 429 CURVE SMOOTH",
"283 429 OFFCURVE",
"319 410 OFFCURVE",
"348 386 CURVE",
"359 468 LINE",
"329 483 OFFCURVE",
"291 500 OFFCURVE",
"226 500 CURVE SMOOTH",
"92 500 OFFCURVE",
"42 428 OFFCURVE",
"42 353 CURVE SMOOTH",
"42 254 OFFCURVE",
"129 230 OFFCURVE",
"196 212 CURVE SMOOTH",
"236 201 OFFCURVE",
"294 182 OFFCURVE",
"294 131 CURVE SMOOTH",
"294 92 OFFCURVE",
"259 70 OFFCURVE",
"196 70 CURVE SMOOTH",
"121 70 OFFCURVE",
"64 101 OFFCURVE",
"43 120 CURVE",
"32 33 LINE",
"55 17 OFFCURVE",
"113 -10 OFFCURVE",
"200 -10 CURVE"
);
}
);
width = 414;
},
{
associatedMasterId = "7C863538-AAB4-42AD-A9FE-7240E615272A";
layerId = "6F945BE6-4F93-4A56-BDF8-2747F37B95B4";
name = "Bold Sep 7 16, 14:04";
paths = (
{
closed = 1;
nodes = (
"371 -10 OFFCURVE",
"396 76 OFFCURVE",
"396 137 CURVE SMOOTH",
"396 240 OFFCURVE",
"326 271 OFFCURVE",
"259 290 CURVE SMOOTH",
"196 308 OFFCURVE",
"145 316 OFFCURVE",
"145 364 CURVE SMOOTH",
"145 404 OFFCURVE",
"185 419 OFFCURVE",
"228 419 CURVE SMOOTH",
"282 419 OFFCURVE",
"340 390 OFFCURVE",
"365 365 CURVE",
"376 471 LINE",
"349 489 OFFCURVE",
"284 508 OFFCURVE",
"219 508 CURVE SMOOTH",
"78 508 OFFCURVE",
"36 419 OFFCURVE",
"36 349 CURVE SMOOTH",
"36 253 OFFCURVE",
"110 230 OFFCURVE",
"180 209 CURVE SMOOTH",
"229 194 OFFCURVE",
"272 180 OFFCURVE",
"272 138 CURVE SMOOTH",
"272 113 OFFCURVE",
"256 83 OFFCURVE",
"196 83 CURVE SMOOTH",
"140 83 OFFCURVE",
"73 109 OFFCURVE",
"42 133 CURVE",
"31 27 LINE",
"60 8 OFFCURVE",
"122 -10 OFFCURVE",
"200 -10 CURVE"
);
}
);
width = 423;
}
);
leftKerningGroup = s;
rightKerningGroup = s;
unicode = 0073;
},
{
glyphname = t;
layers = (
{
layerId = UUID0;
paths = (
{
closed = 1;
nodes = (
"311 -10 LINE",
"318 62 LINE",
"295 62 LINE SMOOTH",
"198 62 OFFCURVE",
"192 68 OFFCURVE",
"192 162 CURVE SMOOTH",
"192 420 LINE",
"321 420 LINE",
"321 490 LINE",
"192 490 LINE",
"192 620 LINE",
"102 611 LINE",
"102 490 LINE",
"26 490 LINE",
"18 420 LINE",
"102 420 LINE",
"102 107 LINE SMOOTH",
"102 48 OFFCURVE",
"137 -10 OFFCURVE",
"230 -10 CURVE SMOOTH"
);
}
);
width = 337;
},
{
layerId = "7C863538-AAB4-42AD-A9FE-7240E615272A";
paths = (
{
closed = 1;
nodes = (
"310 -10 LINE",
"321 92 LINE",
"287 92 LINE SMOOTH",
"217 92 OFFCURVE",
"211 96 OFFCURVE",
"211 172 CURVE SMOOTH",
"211 398 LINE",
"321 398 LINE",
"321 500 LINE",
"211 500 LINE",
"211 623 LINE",
"87 610 LINE",
"87 500 LINE",
"27 500 LINE",
"16 398 LINE",
"87 398 LINE",
"87 121 LINE SMOOTH",
"87 56 OFFCURVE",
"127 -10 OFFCURVE",
"221 -10 CURVE SMOOTH"
);
}
);
width = 344;
},
{
associatedMasterId = UUID0;
layerId = "92B1C302-D485-4CA8-AE74-F9CD59F9751E";
name = "Regular Sep 7 16, 14:04";
paths = (
{
closed = 1;
nodes = (
"311 -10 LINE",
"318 62 LINE",
"295 62 LINE SMOOTH",
"198 62 OFFCURVE",
"192 68 OFFCURVE",
"192 162 CURVE SMOOTH",
"192 420 LINE",
"321 420 LINE",
"321 490 LINE",
"192 490 LINE",
"192 620 LINE",
"102 611 LINE",
"102 490 LINE",
"26 490 LINE",
"18 420 LINE",
"102 420 LINE",
"102 107 LINE SMOOTH",
"102 48 OFFCURVE",
"137 -10 OFFCURVE",
"230 -10 CURVE SMOOTH"
);
}
);
width = 337;
},
{
associatedMasterId = "7C863538-AAB4-42AD-A9FE-7240E615272A";
layerId = "7767114A-B70B-4839-B849-CC7FF2C57846";
name = "Bold Sep 7 16, 14:04";
paths = (
{
closed = 1;
nodes = (
"310 -10 LINE",
"321 92 LINE",
"287 92 LINE SMOOTH",
"217 92 OFFCURVE",
"211 96 OFFCURVE",
"211 172 CURVE SMOOTH",
"211 398 LINE",
"321 398 LINE",
"321 500 LINE",
"211 500 LINE",
"211 623 LINE",
"87 610 LINE",
"87 500 LINE",
"27 500 LINE",
"16 398 LINE",
"87 398 LINE",
"87 121 LINE SMOOTH",
"87 56 OFFCURVE",
"127 -10 OFFCURVE",
"221 -10 CURVE SMOOTH"
);
}
);
width = 344;
}
);
unicode = 0074;
},
{
glyphname = u;
layers = (
{
anchors = (
{
name = bottom;
position = "{262, 0}";
},
{
name = ogonek;
position = "{472, 10}";
},
{
name = top;
position = "{262, 490}";
},
{
name = topright;
position = "{504, 490}";
}
);
layerId = UUID0;
paths = (
{
closed = 1;
nodes = (
"301 -10 OFFCURVE",
"342 11 OFFCURVE",
"373 54 CURVE",
"383 0 LINE",
"463 0 LINE",
"463 490 LINE",
"373 490 LINE",
"373 126 LINE",
"349 87 OFFCURVE",
"305 70 OFFCURVE",
"260 70 CURVE SMOOTH",
"179 70 OFFCURVE",
"146 126 OFFCURVE",
"146 230 CURVE SMOOTH",
"146 490 LINE",
"56 490 LINE",
"56 205 LINE SMOOTH",
"56 58 OFFCURVE",
"122 -10 OFFCURVE",
"237 -10 CURVE SMOOTH"
);
}
);
width = 524;
},
{
anchors = (
{
name = bottom;
position = "{276, 0}";
},
{
name = ogonek;
position = "{497, 10}";
},
{
name = top;
position = "{276, 500}";
},
{
name = topright;
position = "{521, 500}";
}
);
layerId = "7C863538-AAB4-42AD-A9FE-7240E615272A";
paths = (
{
closed = 1;
nodes = (
"304 -10 OFFCURVE",
"347 8 OFFCURVE",
"376 30 CURVE",
"378 0 LINE",
"494 0 LINE",
"494 500 LINE",
"370 500 LINE",
"370 136 LINE",
"347 109 OFFCURVE",
"317 94 OFFCURVE",
"276 94 CURVE SMOOTH",
"206 94 OFFCURVE",
"177 138 OFFCURVE",
"177 231 CURVE SMOOTH",
"177 500 LINE",
"53 500 LINE",
"53 231 LINE SMOOTH",
"53 90 OFFCURVE",
"109 -10 OFFCURVE",
"265 -10 CURVE SMOOTH"
);
}
);
width = 552;
},
{
anchors = (
{
name = bottom;
position = "{262, 0}";
},
{
name = ogonek;
position = "{472, 10}";
},
{
name = top;
position = "{262, 490}";
},
{
name = topright;
position = "{504, 490}";
}
);
associatedMasterId = UUID0;
layerId = "4D940DC3-4923-4B2E-8349-503162641D71";
name = "Regular Sep 7 16, 14:04";
paths = (
{
closed = 1;
nodes = (
"301 -10 OFFCURVE",
"342 11 OFFCURVE",
"373 54 CURVE",
"383 0 LINE",
"463 0 LINE",
"463 490 LINE",
"373 490 LINE",
"373 126 LINE",
"349 87 OFFCURVE",
"305 70 OFFCURVE",
"260 70 CURVE SMOOTH",
"179 70 OFFCURVE",
"146 126 OFFCURVE",
"146 230 CURVE SMOOTH",
"146 490 LINE",
"56 490 LINE",
"56 205 LINE SMOOTH",
"56 58 OFFCURVE",
"122 -10 OFFCURVE",
"237 -10 CURVE SMOOTH"
);
}
);
width = 524;
},
{
anchors = (
{
name = bottom;
position = "{276, 0}";
},
{
name = ogonek;
position = "{497, 10}";
},
{
name = top;
position = "{276, 500}";
},
{
name = topright;
position = "{521, 500}";
}
);
associatedMasterId = "7C863538-AAB4-42AD-A9FE-7240E615272A";
layerId = "13D09E5D-3C45-4FE6-9C5D-1B22434B55C2";
name = "Bold Sep 7 16, 14:04";
paths = (
{
closed = 1;
nodes = (
"304 -10 OFFCURVE",
"347 8 OFFCURVE",
"376 30 CURVE",
"378 0 LINE",
"494 0 LINE",
"494 500 LINE",
"370 500 LINE",
"370 136 LINE",
"347 109 OFFCURVE",
"317 94 OFFCURVE",
"276 94 CURVE SMOOTH",
"206 94 OFFCURVE",
"177 138 OFFCURVE",
"177 231 CURVE SMOOTH",
"177 500 LINE",
"53 500 LINE",
"53 231 LINE SMOOTH",
"53 90 OFFCURVE",
"109 -10 OFFCURVE",
"265 -10 CURVE SMOOTH"
);
}
);
width = 552;
}
);
leftKerningGroup = u;
rightKerningGroup = u;
unicode = 0075;
},
{
glyphname = v;
layers = (
{
layerId = UUID0;
paths = (
{
closed = 1;
nodes = (
"297 0 LINE",
"483 490 LINE",
"382 490 LINE",
"246 99 LINE",
"109 490 LINE",
"9 490 LINE",
"196 0 LINE"
);
}
);
width = 492;
},
{
layerId = "7C863538-AAB4-42AD-A9FE-7240E615272A";
paths = (
{
closed = 1;
nodes = (
"301 0 LINE",
"493 500 LINE",
"371 500 LINE",
"248 154 LINE",
"125 500 LINE",
"3 500 LINE",
"195 0 LINE"
);
}
);
width = 496;
},
{
associatedMasterId = UUID0;
layerId = "68FF6C81-3FC1-40F1-BE41-E66DA11804DF";
name = "Regular Sep 7 16, 14:04";
paths = (
{
closed = 1;
nodes = (
"297 0 LINE",
"483 490 LINE",
"382 490 LINE",
"246 99 LINE",
"109 490 LINE",
"9 490 LINE",
"196 0 LINE"
);
}
);
width = 492;
},
{
associatedMasterId = "7C863538-AAB4-42AD-A9FE-7240E615272A";
layerId = "AF5DF823-AA00-4B52-93AB-4C32E8A31A66";
name = "Bold Sep 7 16, 14:04";
paths = (
{
closed = 1;
nodes = (
"301 0 LINE",
"493 500 LINE",
"371 500 LINE",
"248 154 LINE",
"125 500 LINE",
"3 500 LINE",
"195 0 LINE"
);
}
);
width = 496;
}
);
unicode = 0076;
},
{
glyphname = w;
layers = (
{
anchors = (
{
name = bottom;
position = "{363, 0}";
},
{
name = top;
position = "{363, 490}";
}
);
layerId = UUID0;
paths = (
{
closed = 1;
nodes = (
"260 0 LINE",
"363 362 LINE",
"465 0 LINE",
"566 0 LINE",
"714 490 LINE",
"608 490 LINE",
"514 99 LINE",
"409 475 LINE",
"316 475 LINE",
"212 99 LINE",
"118 490 LINE",
"12 490 LINE",
"159 0 LINE"
);
}
);
width = 725;
},
{
anchors = (
{
name = bottom;
position = "{363, 0}";
},
{
name = top;
position = "{363, 500}";
}
);
layerId = "7C863538-AAB4-42AD-A9FE-7240E615272A";
paths = (
{
closed = 1;
nodes = (
"260 0 LINE",
"363 326 LINE",
"466 0 LINE",
"570 0 LINE",
"716 500 LINE",
"595 500 LINE",
"508 151 LINE",
"415 490 LINE",
"311 490 LINE",
"217 151 LINE",
"131 500 LINE",
"10 500 LINE",
"156 0 LINE"
);
}
);
width = 726;
},
{
associatedMasterId = UUID0;
layerId = "8366C413-9A35-44EA-A31B-7BDC1AC302AC";
name = "Regular Sep 7 16, 14:04";
paths = (
{
closed = 1;
nodes = (
"260 0 LINE",
"363 362 LINE",
"465 0 LINE",
"566 0 LINE",
"714 490 LINE",
"608 490 LINE",
"514 99 LINE",
"409 475 LINE",
"316 475 LINE",
"212 99 LINE",
"118 490 LINE",
"12 490 LINE",
"159 0 LINE"
);
}
);
width = 725;
},
{
associatedMasterId = "7C863538-AAB4-42AD-A9FE-7240E615272A";
layerId = "AEB115F5-9BBF-4A2D-B9CA-26252BD11922";
name = "Bold Sep 7 16, 14:04";
paths = (
{
closed = 1;
nodes = (
"260 0 LINE",
"363 326 LINE",
"466 0 LINE",
"570 0 LINE",
"716 500 LINE",
"595 500 LINE",
"508 151 LINE",
"415 490 LINE",
"311 490 LINE",
"217 151 LINE",
"131 500 LINE",
"10 500 LINE",
"156 0 LINE"
);
}
);
width = 726;
}
);
unicode = 0077;
},
{
glyphname = x;
layers = (
{
layerId = UUID0;
paths = (
{
closed = 1;
nodes = (
"112 0 LINE",
"238 193 LINE",
"362 0 LINE",
"463 0 LINE",
"296 252 LINE",
"457 490 LINE",
"352 490 LINE",
"239 296 LINE",
"116 490 LINE",
"15 490 LINE",
"182 244 LINE",
"11 0 LINE"
);
}
);
width = 474;
},
{
layerId = "7C863538-AAB4-42AD-A9FE-7240E615272A";
paths = (
{
closed = 1;
nodes = (
"158 0 LINE",
"242 141 LINE",
"333 0 LINE",
"481 0 LINE",
"319 250 LINE",
"481 500 LINE",
"333 500 LINE",
"249 359 LINE",
"158 500 LINE",
"10 500 LINE",
"171 250 LINE",
"10 0 LINE"
);
}
);
width = 491;
},
{
associatedMasterId = UUID0;
layerId = "ADF86A32-AD9F-4DB7-819C-51F452CE9E11";
name = "Regular Sep 7 16, 14:04";
paths = (
{
closed = 1;
nodes = (
"112 0 LINE",
"238 193 LINE",
"362 0 LINE",
"463 0 LINE",
"296 252 LINE",
"457 490 LINE",
"352 490 LINE",
"239 296 LINE",
"116 490 LINE",
"15 490 LINE",
"182 244 LINE",
"11 0 LINE"
);
}
);
width = 474;
},
{
associatedMasterId = "7C863538-AAB4-42AD-A9FE-7240E615272A";
layerId = "6274D7D0-EB75-42D4-B3CF-6D66AC4CF649";
name = "Bold Sep 7 16, 14:04";
paths = (
{
closed = 1;
nodes = (
"158 0 LINE",
"242 141 LINE",
"333 0 LINE",
"481 0 LINE",
"319 250 LINE",
"481 500 LINE",
"333 500 LINE",
"249 359 LINE",
"158 500 LINE",
"10 500 LINE",
"171 250 LINE",
"10 0 LINE"
);
}
);
width = 491;
}
);
unicode = 0078;
},
{
glyphname = y;
layers = (
{
anchors = (
{
name = bottom;
position = "{347, 0}";
},
{
name = top;
position = "{253, 490}";
}
);
layerId = UUID0;
paths = (
{
closed = 1;
nodes = (
"198 -242 LINE",
"498 490 LINE",
"398 490 LINE",
"260 126 LINE",
"107 490 LINE",
"7 490 LINE",
"211 22 LINE",
"98 -242 LINE"
);
}
);
width = 505;
},
{
anchors = (
{
name = bottom;
position = "{400, 0}";
},
{
name = top;
position = "{268, 500}";
}
);
layerId = "7C863538-AAB4-42AD-A9FE-7240E615272A";
paths = (
{
closed = 1;
nodes = (
"222 -242 LINE",
"535 500 LINE",
"397 500 LINE",
"267 178 LINE",
"139 500 LINE",
"1 500 LINE",
"209 33 LINE",
"98 -242 LINE"
);
}
);
width = 537;
},
{
anchors = (
{
name = bottom;
position = "{347, 0}";
},
{
name = top;
position = "{253, 490}";
}
);
associatedMasterId = UUID0;
layerId = "4C9D187D-BC1A-42A4-BDD3-9FE0F85827AB";
name = "Regular Sep 7 16, 14:04";
paths = (
{
closed = 1;
nodes = (
"198 -242 LINE",
"498 490 LINE",
"398 490 LINE",
"260 126 LINE",
"107 490 LINE",
"7 490 LINE",
"211 22 LINE",
"98 -242 LINE"
);
}
);
width = 505;
},
{
anchors = (
{
name = bottom;
position = "{400, 0}";
},
{
name = top;
position = "{269, 500}";
}
);
associatedMasterId = "7C863538-AAB4-42AD-A9FE-7240E615272A";
layerId = "C55204CE-5725-4E5B-9E52-9ABA2A8DF1D2";
name = "Bold Sep 7 16, 14:04";
paths = (
{
closed = 1;
nodes = (
"222 -242 LINE",
"535 500 LINE",
"397 500 LINE",
"267 178 LINE",
"139 500 LINE",
"1 500 LINE",
"209 33 LINE",
"98 -242 LINE"
);
}
);
width = 537;
}
);
leftKerningGroup = y;
rightKerningGroup = y;
unicode = 0079;
},
{
glyphname = z;
layers = (
{
anchors = (
{
name = bottom;
position = "{235.5, 0}";
},
{
name = top;
position = "{241.487, 500}";
}
);
layerId = UUID0;
paths = (
{
closed = 1;
nodes = (
"441 0 LINE",
"441 79 LINE",
"132 79 LINE",
"143 34 LINE",
"446 490 LINE",
"38 490 LINE",
"38 411 LINE",
"336 411 LINE",
"325 456 LINE",
"22 0 LINE"
);
}
);
width = 471;
},
{
anchors = (
{
name = bottom;
position = "{239, 0}";
},
{
name = top;
position = "{242, 500}";
}
);
layerId = "7C863538-AAB4-42AD-A9FE-7240E615272A";
paths = (
{
closed = 1;
nodes = (
"457 0 LINE",
"457 105 LINE",
"165 105 LINE",
"184 60 LINE",
"455 500 LINE",
"41 500 LINE",
"41 395 LINE",
"303 395 LINE",
"289 440 LINE",
"18 0 LINE"
);
}
);
width = 472;
},
{
anchors = (
{
name = bottom;
position = "{235.5, 0}";
},
{
name = top;
position = "{241.487, 500}";
}
);
associatedMasterId = UUID0;
layerId = "D717091D-7186-463A-AE70-62626B7F8545";
name = "Regular Sep 7 16, 14:04";
paths = (
{
closed = 1;
nodes = (
"441 0 LINE",
"441 70 LINE",
"185 70 LINE",
"446 490 LINE",
"32 490 LINE",
"32 420 LINE",
"283 420 LINE",
"22 0 LINE"
);
}
);
width = 471;
},
{
anchors = (
{
name = bottom;
position = "{236, 0}";
},
{
name = top;
position = "{242, 500}";
}
);
associatedMasterId = "7C863538-AAB4-42AD-A9FE-7240E615272A";
layerId = "0384A139-73D8-4DF4-A1A8-44D76C2EA3A0";
name = "Bold Sep 7 16, 14:04";
paths = (
{
closed = 1;
nodes = (
"441 0 LINE",
"441 110 LINE",
"231 110 LINE",
"452 500 LINE",
"31 500 LINE",
"31 390 LINE",
"242 390 LINE",
"21 0 LINE"
);
}
);
width = 472;
}
);
leftKerningGroup = z;
rightKerningGroup = z;
unicode = 007A;
},
{
glyphname = AE;
layers = (
{
layerId = UUID0;
paths = (
{
closed = 1;
nodes = (
"86 0 LINE",
"178 180 LINE",
"392 180 LINE",
"392 0 LINE",
"828 0 LINE",
"828 86 LINE",
"506 86 LINE",
"506 323 LINE",
"747 323 LINE",
"747 409 LINE",
"506 409 LINE",
"506 613 LINE",
"818 613 LINE",
"818 700 LINE",
"335 700 LINE",
"-7 0 LINE"
);
},
{
closed = 1;
nodes = (
"392 611 LINE",
"392 272 LINE",
"221 272 LINE"
);
}
);
width = 865;
},
{
layerId = "7C863538-AAB4-42AD-A9FE-7240E615272A";
paths = (
{
closed = 1;
nodes = (
"122 0 LINE",
"203 169 LINE",
"397 169 LINE",
"397 0 LINE",
"833 0 LINE",
"833 124 LINE",
"528 124 LINE",
"528 303 LINE",
"756 303 LINE",
"756 427 LINE",
"528 427 LINE",
"528 576 LINE",
"824 576 LINE",
"824 700 LINE",
"330 700 LINE",
"-11 0 LINE"
);
},
{
closed = 1;
nodes = (
"397 573 LINE",
"397 293 LINE",
"262 293 LINE"
);
}
);
width = 867;
}
);
rightKerningGroup = E;
unicode = 00C6;
},
{
glyphname = ae;
layers = (
{
layerId = UUID0;
paths = (
{
closed = 1;
nodes = (
"264 -14 OFFCURVE",
"345 25 OFFCURVE",
"380 103 CURVE",
"417 22 OFFCURVE",
"487 -10 OFFCURVE",
"581 -10 CURVE SMOOTH",
"647 -10 OFFCURVE",
"695 8 OFFCURVE",
"744 30 CURVE",
"727 99 LINE",
"673 76 OFFCURVE",
"641 62 OFFCURVE",
"593 62 CURVE SMOOTH",
"497 62 OFFCURVE",
"428 122 OFFCURVE",
"428 245 CURVE",
"764 245 LINE",
"766 261 OFFCURVE",
"768 279 OFFCURVE",
"768 300 CURVE SMOOTH",
"768 429 OFFCURVE",
"691 500 OFFCURVE",
"577 500 CURVE SMOOTH",
"501 500 OFFCURVE",
"419 469 OFFCURVE",
"390 380 CURVE",
"372 481 OFFCURVE",
"277 500 OFFCURVE",
"231 500 CURVE SMOOTH",
"185 500 OFFCURVE",
"131 487 OFFCURVE",
"75 461 CURVE",
"83 391 LINE",
"127 410 OFFCURVE",
"163 420 OFFCURVE",
"205 420 CURVE SMOOTH",
"280 420 OFFCURVE",
"311 387 OFFCURVE",
"323 307 CURVE",
"202 301 OFFCURVE",
"22 270 OFFCURVE",
"22 118 CURVE SMOOTH",
"22 38 OFFCURVE",
"71 -14 OFFCURVE",
"172 -14 CURVE SMOOTH"
);
},
{
closed = 1;
nodes = (
"148 62 OFFCURVE",
"114 79 OFFCURVE",
"114 126 CURVE SMOOTH",
"114 215 OFFCURVE",
"238 245 OFFCURVE",
"331 245 CURVE",
"333 227 OFFCURVE",
"333 211 OFFCURVE",
"333 198 CURVE SMOOTH",
"333 97 OFFCURVE",
"256 62 OFFCURVE",
"192 62 CURVE SMOOTH"
);
},
{
closed = 1;
nodes = (
"457 387 OFFCURVE",
"505 420 OFFCURVE",
"573 420 CURVE SMOOTH",
"642 420 OFFCURVE",
"682 386 OFFCURVE",
"682 307 CURVE",
"436 307 LINE"
);
}
);
width = 798;
},
{
layerId = "7C863538-AAB4-42AD-A9FE-7240E615272A";
paths = (
{
closed = 1;
nodes = (
"277 -15 OFFCURVE",
"334 28 OFFCURVE",
"378 84 CURVE",
"409 28 OFFCURVE",
"477 -10 OFFCURVE",
"578 -10 CURVE SMOOTH",
"648 -10 OFFCURVE",
"706 8 OFFCURVE",
"744 28 CURVE",
"738 133 LINE",
"697 111 OFFCURVE",
"631 92 OFFCURVE",
"584 92 CURVE SMOOTH",
"518 92 OFFCURVE",
"455 130 OFFCURVE",
"441 223 CURVE",
"758 223 LINE",
"763 247 OFFCURVE",
"766 268 OFFCURVE",
"766 293 CURVE SMOOTH",
"766 424 OFFCURVE",
"684 508 OFFCURVE",
"568 508 CURVE SMOOTH",
"482 508 OFFCURVE",
"411 462 OFFCURVE",
"395 419 CURVE",
"371 488 OFFCURVE",
"320 508 OFFCURVE",
"244 508 CURVE SMOOTH",
"184 508 OFFCURVE",
"123 493 OFFCURVE",
"63 464 CURVE",
"74 363 LINE",
"127 389 OFFCURVE",
"166 401 OFFCURVE",
"211 401 CURVE SMOOTH",
"277 401 OFFCURVE",
"299 375 OFFCURVE",
"302 314 CURVE",
"203 309 OFFCURVE",
"20 281 OFFCURVE",
"20 127 CURVE SMOOTH",
"20 40 OFFCURVE",
"79 -15 OFFCURVE",
"184 -15 CURVE SMOOTH"
);
},
{
closed = 1;
nodes = (
"177 81 OFFCURVE",
"150 103 OFFCURVE",
"150 138 CURVE SMOOTH",
"150 204 OFFCURVE",
"243 229 OFFCURVE",
"310 230 CURVE",
"311 219 OFFCURVE",
"311 213 OFFCURVE",
"311 202 CURVE SMOOTH",
"311 122 OFFCURVE",
"255 81 OFFCURVE",
"210 81 CURVE SMOOTH"
);
},
{
closed = 1;
nodes = (
"456 365 OFFCURVE",
"503 406 OFFCURVE",
"564 406 CURVE SMOOTH",
"633 406 OFFCURVE",
"655 352 OFFCURVE",
"655 307 CURVE",
"444 307 LINE"
);
}
);
width = 794;
}
);
leftKerningGroup = a;
rightKerningGroup = e;
unicode = 00E6;
},
{
color = 4;
glyphname = Eth;
layers = (
{
layerId = UUID0;
paths = (
{
closed = 1;
nodes = (
"345 0 LINE SMOOTH",
"546 0 OFFCURVE",
"690 129 OFFCURVE",
"690 350 CURVE SMOOTH",
"690 571 OFFCURVE",
"546 700 OFFCURVE",
"345 700 CURVE SMOOTH",
"89 700 LINE",
"89 387 LINE",
"-8 387 LINE",
"-8 323 LINE",
"89 323 LINE",
"89 0 LINE"
);
},
{
closed = 1;
nodes = (
"179 323 LINE",
"312 323 LINE",
"312 387 LINE",
"179 387 LINE",
"179 614 LINE",
"345 614 LINE SMOOTH",
"506 614 OFFCURVE",
"588 509 OFFCURVE",
"588 350 CURVE SMOOTH",
"588 191 OFFCURVE",
"506 87 OFFCURVE",
"345 87 CURVE SMOOTH",
"179 87 LINE"
);
}
);
width = 730;
},
{
layerId = "7C863538-AAB4-42AD-A9FE-7240E615272A";
paths = (
{
closed = 1;
nodes = (
"350 0 LINE SMOOTH",
"550 0 OFFCURVE",
"695 130 OFFCURVE",
"695 350 CURVE SMOOTH",
"695 570 OFFCURVE",
"550 700 OFFCURVE",
"350 700 CURVE SMOOTH",
"88 700 LINE",
"88 393 LINE",
"-4 393 LINE",
"-4 299 LINE",
"88 299 LINE",
"88 0 LINE"
);
},
{
closed = 1;
nodes = (
"216 299 LINE",
"338 299 LINE",
"338 393 LINE",
"216 393 LINE",
"216 577 LINE",
"350 577 LINE SMOOTH",
"486 577 OFFCURVE",
"555 490 OFFCURVE",
"555 350 CURVE SMOOTH",
"555 210 OFFCURVE",
"486 123 OFFCURVE",
"350 123 CURVE SMOOTH",
"216 123 LINE"
);
}
);
width = 731;
}
);
leftKerningGroup = I;
rightKerningGroup = D;
unicode = 00D0;
},
{
color = 0;
glyphname = eth;
layers = (
{
layerId = UUID0;
paths = (
{
closed = 1;
nodes = (
"347 -12 OFFCURVE",
"484 42 OFFCURVE",
"484 257 CURVE SMOOTH",
"484 394 OFFCURVE",
"427 535 OFFCURVE",
"341 614 CURVE",
"372 648 OFFCURVE",
"391 670 OFFCURVE",
"410 698 CURVE",
"364 710 LINE",
"348 689 OFFCURVE",
"334 672 OFFCURVE",
"305 646 CURVE",
"250 685 OFFCURVE",
"195 701 OFFCURVE",
"156 701 CURVE",
"124 659 LINE",
"164 659 OFFCURVE",
"206 640 OFFCURVE",
"245 605 CURVE",
"192 570 OFFCURVE",
"152 558 OFFCURVE",
"117 553 CURVE",
"147 498 LINE",
"193 504 OFFCURVE",
"237 524 OFFCURVE",
"288 560 CURVE",
"332 524 OFFCURVE",
"366 429 OFFCURVE",
"374 371 CURVE",
"352 395 OFFCURVE",
"307 426 OFFCURVE",
"239 426 CURVE SMOOTH",
"92 426 OFFCURVE",
"28 302 OFFCURVE",
"28 201 CURVE SMOOTH",
"28 78 OFFCURVE",
"123 -12 OFFCURVE",
"249 -12 CURVE"
);
},
{
closed = 1;
nodes = (
"176 71 OFFCURVE",
"128 134 OFFCURVE",
"128 210 CURVE SMOOTH",
"128 279 OFFCURVE",
"175 343 OFFCURVE",
"254 343 CURVE SMOOTH",
"327 343 OFFCURVE",
"373 287 OFFCURVE",
"373 208 CURVE SMOOTH",
"373 129 OFFCURVE",
"325 71 OFFCURVE",
"253 71 CURVE SMOOTH"
);
}
);
width = 517;
},
{
layerId = "7C863538-AAB4-42AD-A9FE-7240E615272A";
paths = (
{
closed = 1;
nodes = (
"345 -13 OFFCURVE",
"472 45 OFFCURVE",
"472 258 CURVE SMOOTH",
"472 397 OFFCURVE",
"418 520 OFFCURVE",
"343 601 CURVE",
"368 629 OFFCURVE",
"390 661 OFFCURVE",
"412 695 CURVE",
"345 711 LINE",
"331 690 OFFCURVE",
"311 669 OFFCURVE",
"289 649 CURVE",
"243 682 OFFCURVE",
"193 700 OFFCURVE",
"144 701 CURVE",
"103 648 LINE",
"144 647 OFFCURVE",
"185 628 OFFCURVE",
"221 598 CURVE",
"179 571 OFFCURVE",
"135 554 OFFCURVE",
"101 554 CURVE",
"140 481 LINE",
"190 486 OFFCURVE",
"236 507 OFFCURVE",
"277 538 CURVE",
"311 516 OFFCURVE",
"341 424 OFFCURVE",
"345 387 CURVE",
"318 408 OFFCURVE",
"284 426 OFFCURVE",
"228 426 CURVE SMOOTH",
"87 426 OFFCURVE",
"16 313 OFFCURVE",
"16 205 CURVE SMOOTH",
"16 78 OFFCURVE",
"114 -13 OFFCURVE",
"242 -13 CURVE"
);
},
{
closed = 1;
nodes = (
"169 88 OFFCURVE",
"134 152 OFFCURVE",
"134 220 CURVE SMOOTH",
"134 270 OFFCURVE",
"168 329 OFFCURVE",
"241 329 CURVE SMOOTH",
"314 329 OFFCURVE",
"352 283 OFFCURVE",
"352 207 CURVE SMOOTH",
"352 122 OFFCURVE",
"298 88 OFFCURVE",
"244 88 CURVE SMOOTH"
);
}
);
width = 501;
}
);
unicode = 00F0;
},
{
color = 4;
glyphname = Hbar;
layers = (
{
layerId = UUID0;
paths = (
{
closed = 1;
nodes = (
"706 492 LINE",
"706 564 LINE",
"40 564 LINE",
"40 492 LINE"
);
},
{
closed = 1;
nodes = (
"175 0 LINE",
"175 321 LINE",
"571 321 LINE",
"571 0 LINE",
"666 0 LINE",
"666 700 LINE",
"571 700 LINE",
"571 411 LINE",
"175 411 LINE",
"175 700 LINE",
"80 700 LINE",
"80 0 LINE"
);
}
);
width = 746;
},
{
layerId = "7C863538-AAB4-42AD-A9FE-7240E615272A";
paths = (
{
closed = 1;
nodes = (
"709 486 LINE",
"709 572 LINE",
"31 572 LINE",
"31 486 LINE"
);
},
{
closed = 1;
nodes = (
"205 0 LINE",
"205 303 LINE",
"535 303 LINE",
"535 0 LINE",
"663 0 LINE",
"663 700 LINE",
"535 700 LINE",
"535 427 LINE",
"205 427 LINE",
"205 700 LINE",
"77 700 LINE",
"77 0 LINE"
);
}
);
width = 740;
}
);
unicode = 0126;
},
{
color = 4;
glyphname = hbar;
layers = (
{
layerId = UUID0;
paths = (
{
closed = 1;
nodes = (
"275 587 LINE",
"275 650 LINE",
"0 650 LINE",
"0 587 LINE"
);
},
{
closed = 1;
nodes = (
"151 0 LINE",
"151 356 LINE",
"179 400 OFFCURVE",
"219 420 OFFCURVE",
"279 420 CURVE SMOOTH",
"366 420 OFFCURVE",
"396 378 OFFCURVE",
"396 262 CURVE SMOOTH",
"396 0 LINE",
"486 0 LINE",
"486 262 LINE SMOOTH",
"486 403 OFFCURVE",
"436 500 OFFCURVE",
"302 500 CURVE SMOOTH",
"234 500 OFFCURVE",
"187 480 OFFCURVE",
"151 437 CURVE",
"151 750 LINE",
"60 750 LINE",
"60 0 LINE"
);
}
);
width = 542;
},
{
layerId = "7C863538-AAB4-42AD-A9FE-7240E615272A";
paths = (
{
closed = 1;
nodes = (
"301 580 LINE",
"301 663 LINE",
"-9 663 LINE",
"-9 580 LINE"
);
},
{
closed = 1;
nodes = (
"181 0 LINE",
"181 363 LINE",
"205 390 OFFCURVE",
"235 406 OFFCURVE",
"278 406 CURVE SMOOTH",
"346 406 OFFCURVE",
"374 362 OFFCURVE",
"374 269 CURVE SMOOTH",
"374 0 LINE",
"498 0 LINE",
"498 278 LINE SMOOTH",
"498 414 OFFCURVE",
"442 508 OFFCURVE",
"310 508 CURVE SMOOTH",
"256 508 OFFCURVE",
"216 490 OFFCURVE",
"181 468 CURVE",
"181 750 LINE",
"57 750 LINE",
"57 0 LINE"
);
}
);
width = 551;
}
);
rightMetricsKey = n;
unicode = 0127;
},
{
glyphname = idotless;
layers = (
{
anchors = (
{
name = bottom;
position = "{120, 0}";
},
{
name = ogonek;
position = "{216, 10}";
},
{
name = top;
position = "{120, 490}";
}
);
layerId = UUID0;
paths = (
{
closed = 1;
nodes = (
"165 0 LINE",
"165 490 LINE",
"75 490 LINE",
"75 0 LINE"
);
}
);
width = 240;
},
{
anchors = (
{
name = bottom;
position = "{120, 0}";
},
{
name = ogonek;
position = "{216, 10}";
},
{
name = top;
position = "{120, 500}";
}
);
layerId = "7C863538-AAB4-42AD-A9FE-7240E615272A";
paths = (
{
closed = 1;
nodes = (
"182 0 LINE",
"182 500 LINE",
"58 500 LINE",
"58 0 LINE"
);
}
);
width = 240;
}
);
leftKerningGroup = i;
rightKerningGroup = i;
unicode = 0131;
},
{
glyphname = jdotless;
layers = (
{
anchors = (
{
name = top;
position = "{120, 490}";
}
);
layerId = UUID0;
paths = (
{
closed = 1;
nodes = (
"42 -237 LINE SMOOTH",
"93 -229 OFFCURVE",
"165 -201 OFFCURVE",
"165 -107 CURVE SMOOTH",
"165 490 LINE",
"75 490 LINE",
"75 -73 LINE SMOOTH",
"75 -152 OFFCURVE",
"61 -167 OFFCURVE",
"2 -173 CURVE",
"12 -242 LINE"
);
}
);
width = 240;
},
{
anchors = (
{
name = top;
position = "{120, 500}";
}
);
layerId = "7C863538-AAB4-42AD-A9FE-7240E615272A";
paths = (
{
closed = 1;
nodes = (
"54 -242 LINE SMOOTH",
"143 -242 OFFCURVE",
"182 -183 OFFCURVE",
"182 -111 CURVE SMOOTH",
"182 500 LINE",
"58 500 LINE",
"58 -60 LINE SMOOTH",
"58 -139 OFFCURVE",
"51 -140 OFFCURVE",
"-2 -140 CURVE",
"9 -242 LINE"
);
}
);
width = 240;
}
);
unicode = 0237;
},
{
color = 4;
glyphname = kgreenlandic;
layers = (
{
layerId = UUID0;
paths = (
{
closed = 1;
nodes = (
"150 0 LINE",
"150 242 LINE",
"385 0 LINE",
"495 0 LINE",
"238 254 LINE",
"490 490 LINE",
"380 490 LINE",
"150 262 LINE",
"150 490 LINE",
"60 490 LINE",
"60 0 LINE"
);
}
);
width = 501;
},
{
layerId = "7C863538-AAB4-42AD-A9FE-7240E615272A";
paths = (
{
closed = 1;
nodes = (
"181 0 LINE",
"181 219 LINE",
"370 0 LINE",
"510 0 LINE",
"281 260 LINE",
"510 500 LINE",
"370 500 LINE",
"181 292 LINE",
"181 500 LINE",
"57 500 LINE",
"57 0 LINE"
);
}
);
width = 516;
}
);
unicode = 0138;
},
{
color = 4;
glyphname = Lslash;
layers = (
{
layerId = UUID0;
paths = (
{
closed = 1;
nodes = (
"496 0 LINE",
"496 86 LINE",
"175 86 LINE",
"175 700 LINE",
"80 700 LINE",
"80 0 LINE"
);
},
{
closed = 1;
nodes = (
"386 454 LINE",
"386 531 LINE",
"20 434 LINE",
"20 357 LINE"
);
}
);
width = 501;
},
{
layerId = "7C863538-AAB4-42AD-A9FE-7240E615272A";
paths = (
{
closed = 1;
nodes = (
"493 0 LINE",
"493 124 LINE",
"205 124 LINE",
"205 700 LINE",
"77 700 LINE",
"77 0 LINE"
);
},
{
closed = 1;
nodes = (
"389 457 LINE",
"389 549 LINE",
"11 452 LINE",
"11 360 LINE"
);
}
);
width = 500;
}
);
unicode = 0141;
},
{
color = 4;
glyphname = lslash;
layers = (
{
layerId = UUID0;
paths = (
{
closed = 1;
nodes = (
"216 -10 LINE",
"229 62 LINE",
"160 62 OFFCURVE",
"150 76 OFFCURVE",
"150 160 CURVE SMOOTH",
"150 750 LINE",
"60 750 LINE",
"60 108 LINE SMOOTH",
"60 49 OFFCURVE",
"92 -10 OFFCURVE",
"187 -10 CURVE SMOOTH"
);
},
{
closed = 1;
nodes = (
"230 460 LINE",
"230 528 LINE",
"0 464 LINE",
"0 396 LINE"
);
}
);
width = 236;
},
{
layerId = "7C863538-AAB4-42AD-A9FE-7240E615272A";
paths = (
{
closed = 1;
nodes = (
"231 -10 LINE",
"242 92 LINE",
"193 92 OFFCURVE",
"182 92 OFFCURVE",
"182 172 CURVE SMOOTH",
"182 750 LINE",
"58 750 LINE",
"58 121 LINE SMOOTH",
"58 49 OFFCURVE",
"97 -10 OFFCURVE",
"186 -10 CURVE SMOOTH"
);
},
{
closed = 1;
nodes = (
"271 457 LINE",
"271 544 LINE",
"0 467 LINE",
"0 380 LINE"
);
}
);
width = 263;
}
);
unicode = 0142;
},
{
color = 4;
glyphname = Eng;
layers = (
{
layerId = UUID0;
paths = (
{
closed = 1;
nodes = (
"626 460 LINE SMOOTH",
"626 612 OFFCURVE",
"540 714 OFFCURVE",
"368 714 CURVE SMOOTH",
"283 714 OFFCURVE",
"205 686 OFFCURVE",
"148 633 CURVE",
"142 700 LINE",
"61 700 LINE",
"61 0 LINE",
"157 0 LINE",
"157 556 LINE",
"195 599 OFFCURVE",
"259 628 OFFCURVE",
"347 628 CURVE SMOOTH",
"468 628 OFFCURVE",
"530 564 OFFCURVE",
"530 450 CURVE SMOOTH",
"530 40 LINE SMOOTH",
"530 -53 OFFCURVE",
"477 -99 OFFCURVE",
"397 -99 CURVE SMOOTH",
"372 -99 OFFCURVE",
"347 -96 OFFCURVE",
"323 -90 CURVE",
"310 -174 LINE",
"335 -181 OFFCURVE",
"363 -185 OFFCURVE",
"391 -185 CURVE SMOOTH",
"528 -185 OFFCURVE",
"626 -109 OFFCURVE",
"626 50 CURVE SMOOTH"
);
}
);
width = 690;
},
{
layerId = "7C863538-AAB4-42AD-A9FE-7240E615272A";
paths = (
{
closed = 1;
nodes = (
"650 418 LINE SMOOTH",
"650 595 OFFCURVE",
"565 714 OFFCURVE",
"394 714 CURVE SMOOTH",
"316 714 OFFCURVE",
"244 686 OFFCURVE",
"192 633 CURVE",
"186 700 LINE",
"77 700 LINE",
"77 0 LINE",
"205 0 LINE",
"205 519 LINE",
"237 562 OFFCURVE",
"290 591 OFFCURVE",
"363 591 CURVE SMOOTH",
"468 591 OFFCURVE",
"522 522 OFFCURVE",
"522 398 CURVE SMOOTH",
"522 42 LINE SMOOTH",
"522 -41 OFFCURVE",
"473 -82 OFFCURVE",
"400 -82 CURVE SMOOTH",
"375 -82 OFFCURVE",
"350 -80 OFFCURVE",
"326 -75 CURVE",
"313 -193 LINE",
"340 -201 OFFCURVE",
"369 -205 OFFCURVE",
"399 -205 CURVE SMOOTH",
"545 -205 OFFCURVE",
"650 -123 OFFCURVE",
"650 50 CURVE SMOOTH"
);
}
);
width = 720;
}
);
unicode = 014A;
},
{
color = 4;
glyphname = eng;
layers = (
{
layerId = UUID0;
paths = (
{
closed = 1;
nodes = (
"503 270 LINE SMOOTH",
"503 411 OFFCURVE",
"446 500 OFFCURVE",
"303 500 CURVE SMOOTH",
"251 500 OFFCURVE",
"197 488 OFFCURVE",
"141 438 CURVE",
"131 490 LINE",
"61 490 LINE",
"61 0 LINE",
"151 0 LINE",
"151 356 LINE",
"176 400 OFFCURVE",
"229 420 OFFCURVE",
"285 420 CURVE SMOOTH",
"378 420 OFFCURVE",
"413 374 OFFCURVE",
"413 270 CURVE SMOOTH",
"413 14 LINE SMOOTH",
"413 -62 OFFCURVE",
"370 -99 OFFCURVE",
"306 -99 CURVE SMOOTH",
"281 -99 OFFCURVE",
"256 -96 OFFCURVE",
"232 -90 CURVE",
"219 -168 LINE",
"244 -175 OFFCURVE",
"272 -179 OFFCURVE",
"300 -179 CURVE SMOOTH",
"418 -179 OFFCURVE",
"503 -113 OFFCURVE",
"503 24 CURVE SMOOTH"
);
}
);
width = 559;
},
{
layerId = "7C863538-AAB4-42AD-A9FE-7240E615272A";
paths = (
{
closed = 1;
nodes = (
"499 279 LINE SMOOTH",
"499 414 OFFCURVE",
"438 508 OFFCURVE",
"310 508 CURVE SMOOTH",
"255 508 OFFCURVE",
"211 489 OFFCURVE",
"176 465 CURVE",
"174 500 LINE",
"58 500 LINE",
"58 0 LINE",
"182 0 LINE",
"182 363 LINE",
"205 390 OFFCURVE",
"234 406 OFFCURVE",
"276 406 CURVE SMOOTH",
"346 406 OFFCURVE",
"375 362 OFFCURVE",
"375 269 CURVE SMOOTH",
"375 7 LINE SMOOTH",
"375 -49 OFFCURVE",
"340 -77 OFFCURVE",
"289 -77 CURVE SMOOTH",
"266 -77 OFFCURVE",
"244 -74 OFFCURVE",
"222 -68 CURVE",
"209 -168 LINE",
"234 -175 OFFCURVE",
"262 -179 OFFCURVE",
"290 -179 CURVE SMOOTH",
"411 -179 OFFCURVE",
"499 -115 OFFCURVE",
"499 17 CURVE SMOOTH"
);
}
);
width = 552;
}
);
unicode = 014B;
},
{
glyphname = Oslash;
layers = (
{
layerId = UUID0;
paths = (
{
closed = 1;
nodes = (
"165 -30 LINE",
"207 31 LINE",
"269 0 OFFCURVE",
"324 -12 OFFCURVE",
"383 -12 CURVE",
"584 -12 OFFCURVE",
"729 129 OFFCURVE",
"729 349 CURVE SMOOTH",
"729 462 OFFCURVE",
"691 554 OFFCURVE",
"618 627 CURVE",
"679 716 LINE",
"587 716 LINE",
"556 672 LINE",
"495 702 OFFCURVE",
"442 714 OFFCURVE",
"384 714 CURVE SMOOTH",
"184 714 OFFCURVE",
"39 572 OFFCURVE",
"39 350 CURVE SMOOTH",
"39 240 OFFCURVE",
"75 150 OFFCURVE",
"145 75 CURVE",
"72 -30 LINE"
);
},
{
closed = 1;
nodes = (
"159 231 OFFCURVE",
"147 288 OFFCURVE",
"147 349 CURVE SMOOTH",
"147 505 OFFCURVE",
"225 625 OFFCURVE",
"383 625 CURVE",
"421 625 OFFCURVE",
"453 618 OFFCURVE",
"503 597 CURVE",
"202 156 LINE"
);
},
{
closed = 1;
nodes = (
"346 76 OFFCURVE",
"311 83 OFFCURVE",
"260 105 CURVE",
"563 548 LINE",
"608 493 OFFCURVE",
"621 415 OFFCURVE",
"621 352 CURVE SMOOTH",
"621 196 OFFCURVE",
"543 76 OFFCURVE",
"384 76 CURVE SMOOTH"
);
}
);
width = 767;
},
{
layerId = "7C863538-AAB4-42AD-A9FE-7240E615272A";
paths = (
{
closed = 1;
nodes = (
"183 -31 LINE",
"219 22 LINE",
"266 -1 OFFCURVE",
"321 -14 OFFCURVE",
"380 -14 CURVE",
"580 -14 OFFCURVE",
"725 130 OFFCURVE",
"725 350 CURVE SMOOTH",
"725 460 OFFCURVE",
"688 552 OFFCURVE",
"626 615 CURVE",
"695 716 LINE",
"561 716 LINE",
"536 680 LINE",
"490 702 OFFCURVE",
"437 714 OFFCURVE",
"380 714 CURVE SMOOTH",
"180 714 OFFCURVE",
"35 570 OFFCURVE",
"35 350 CURVE SMOOTH",
"35 241 OFFCURVE",
"70 151 OFFCURVE",
"130 87 CURVE",
"49 -31 LINE"
);
},
{
closed = 1;
nodes = (
"186 242 OFFCURVE",
"175 293 OFFCURVE",
"175 350 CURVE SMOOTH",
"175 490 OFFCURVE",
"244 591 OFFCURVE",
"380 591 CURVE",
"412 591 OFFCURVE",
"440 585 OFFCURVE",
"464 575 CURVE",
"209 202 LINE"
);
},
{
closed = 1;
nodes = (
"346 109 OFFCURVE",
"316 115 OFFCURVE",
"291 126 CURVE",
"548 502 LINE",
"573 461 OFFCURVE",
"585 409 OFFCURVE",
"585 350 CURVE SMOOTH",
"585 210 OFFCURVE",
"516 109 OFFCURVE",
"380 109 CURVE SMOOTH"
);
}
);
width = 760;
}
);
leftKerningGroup = O;
rightKerningGroup = O;
unicode = 00D8;
},
{
glyphname = oslash;
layers = (
{
layerId = UUID0;
paths = (
{
closed = 1;
nodes = (
"181 -35 LINE",
"200 3 LINE",
"237 -5 OFFCURVE",
"261 -8 OFFCURVE",
"286 -8 CURVE",
"446 -8 OFFCURVE",
"539 108 OFFCURVE",
"539 248 CURVE SMOOTH",
"539 335 OFFCURVE",
"503 411 OFFCURVE",
"428 468 CURVE",
"462 534 LINE",
"388 534 LINE",
"369 494 LINE",
"333 503 OFFCURVE",
"310 506 OFFCURVE",
"285 506 CURVE SMOOTH",
"126 506 OFFCURVE",
"33 389 OFFCURVE",
"33 249 CURVE SMOOTH",
"33 163 OFFCURVE",
"68 86 OFFCURVE",
"142 31 CURVE",
"110 -35 LINE"
);
},
{
closed = 1;
nodes = (
"139 165 OFFCURVE",
"130 205 OFFCURVE",
"130 248 CURVE SMOOTH",
"130 354 OFFCURVE",
"185 436 OFFCURVE",
"284 436 CURVE",
"295 436 OFFCURVE",
"303 435 OFFCURVE",
"337 429 CURVE",
"176 100 LINE"
);
},
{
closed = 1;
nodes = (
"276 62 OFFCURVE",
"267 63 OFFCURVE",
"232 68 CURVE",
"395 398 LINE",
"431 372 OFFCURVE",
"442 294 OFFCURVE",
"442 248 CURVE SMOOTH",
"442 145 OFFCURVE",
"387 62 OFFCURVE",
"287 62 CURVE SMOOTH"
);
}
);
width = 570;
},
{
layerId = "7C863538-AAB4-42AD-A9FE-7240E615272A";
paths = (
{
closed = 1;
nodes = (
"195 -36 LINE",
"211 -2 LINE",
"233 -7 OFFCURVE",
"256 -10 OFFCURVE",
"281 -10 CURVE",
"441 -10 OFFCURVE",
"534 109 OFFCURVE",
"534 249 CURVE SMOOTH",
"534 334 OFFCURVE",
"499 411 OFFCURVE",
"436 459 CURVE",
"473 534 LINE",
"364 534 LINE",
"348 500 LINE",
"327 505 OFFCURVE",
"305 508 OFFCURVE",
"281 508 CURVE SMOOTH",
"121 508 OFFCURVE",
"28 389 OFFCURVE",
"28 249 CURVE SMOOTH",
"28 164 OFFCURVE",
"62 86 OFFCURVE",
"125 39 CURVE",
"89 -36 LINE"
);
},
{
closed = 1;
nodes = (
"163 176 OFFCURVE",
"155 210 OFFCURVE",
"155 249 CURVE SMOOTH",
"155 342 OFFCURVE",
"201 406 OFFCURVE",
"281 406 CURVE",
"288 406 OFFCURVE",
"295 405 OFFCURVE",
"301 404 CURVE",
"178 149 LINE"
);
},
{
closed = 1;
nodes = (
"273 92 OFFCURVE",
"265 93 OFFCURVE",
"258 94 CURVE",
"383 349 LINE",
"398 322 OFFCURVE",
"407 288 OFFCURVE",
"407 249 CURVE SMOOTH",
"407 156 OFFCURVE",
"361 92 OFFCURVE",
"281 92 CURVE SMOOTH"
);
}
);
width = 562;
}
);
leftKerningGroup = o;
rightKerningGroup = o;
unicode = 00F8;
},
{
color = 4;
glyphname = OE;
layers = (
{
layerId = UUID0;
paths = (
{
closed = 1;
nodes = (
"700 572 OFFCURVE",
"551 714 OFFCURVE",
"372 714 CURVE SMOOTH",
"179 714 OFFCURVE",
"40 572 OFFCURVE",
"40 350 CURVE SMOOTH",
"40 128 OFFCURVE",
"179 -14 OFFCURVE",
"372 -14 CURVE SMOOTH",
"551 -14 OFFCURVE",
"700 128 OFFCURVE",
"700 350 CURVE SMOOTH"
);
},
{
closed = 1;
nodes = (
"218 72 OFFCURVE",
"140 193 OFFCURVE",
"140 350 CURVE SMOOTH",
"140 507 OFFCURVE",
"218 628 OFFCURVE",
"378 628 CURVE SMOOTH",
"537 628 OFFCURVE",
"615 507 OFFCURVE",
"615 350 CURVE SMOOTH",
"615 193 OFFCURVE",
"537 72 OFFCURVE",
"378 72 CURVE SMOOTH"
);
},
{
closed = 1;
nodes = (
"624 0 LINE",
"1034 0 LINE",
"1034 86 LINE",
"715 86 LINE",
"715 323 LINE",
"953 323 LINE",
"953 409 LINE",
"715 409 LINE",
"715 614 LINE",
"1025 614 LINE",
"1025 699 LINE",
"624 699 LINE"
);
}
);
width = 1071;
},
{
layerId = "7C863538-AAB4-42AD-A9FE-7240E615272A";
paths = (
{
closed = 1;
nodes = (
"699 570 OFFCURVE",
"556 714 OFFCURVE",
"380 714 CURVE SMOOTH",
"180 714 OFFCURVE",
"35 570 OFFCURVE",
"35 350 CURVE SMOOTH",
"35 130 OFFCURVE",
"180 -14 OFFCURVE",
"380 -14 CURVE SMOOTH",
"556 -14 OFFCURVE",
"699 130 OFFCURVE",
"699 350 CURVE SMOOTH"
);
},
{
closed = 1;
nodes = (
"244 109 OFFCURVE",
"175 210 OFFCURVE",
"175 350 CURVE SMOOTH",
"175 490 OFFCURVE",
"244 591 OFFCURVE",
"380 591 CURVE SMOOTH",
"516 591 OFFCURVE",
"585 490 OFFCURVE",
"585 350 CURVE SMOOTH",
"585 210 OFFCURVE",
"516 109 OFFCURVE",
"380 109 CURVE SMOOTH"
);
},
{
closed = 1;
nodes = (
"593 0 LINE",
"1029 0 LINE",
"1029 124 LINE",
"724 124 LINE",
"724 303 LINE",
"952 303 LINE",
"952 427 LINE",
"724 427 LINE",
"724 576 LINE",
"1020 576 LINE",
"1020 700 LINE",
"593 700 LINE"
);
}
);
width = 1063;
},
{
associatedMasterId = UUID0;
layerId = "68E1AC4C-5243-4D86-9B48-7D5FCEF9918E";
name = "Regular Sep 7 16, 18:52";
paths = (
{
closed = 1;
nodes = (
"459 -14 OFFCURVE",
"530 11 OFFCURVE",
"624 83 CURVE",
"624 0 LINE",
"1034 0 LINE",
"1034 86 LINE",
"715 86 LINE",
"715 323 LINE",
"953 323 LINE",
"953 409 LINE",
"715 409 LINE",
"715 614 LINE",
"1025 614 LINE",
"1025 699 LINE",
"624 699 LINE",
"624 617 LINE",
"530 689 OFFCURVE",
"459 714 OFFCURVE",
"378 714 CURVE SMOOTH",
"182 714 OFFCURVE",
"40 572 OFFCURVE",
"40 350 CURVE SMOOTH",
"40 128 OFFCURVE",
"182 -14 OFFCURVE",
"378 -14 CURVE SMOOTH"
);
},
{
closed = 1;
nodes = (
"218 72 OFFCURVE",
"140 193 OFFCURVE",
"140 350 CURVE SMOOTH",
"140 507 OFFCURVE",
"218 628 OFFCURVE",
"378 628 CURVE",
"537 628 OFFCURVE",
"615 507 OFFCURVE",
"615 350 CURVE SMOOTH",
"615 193 OFFCURVE",
"537 72 OFFCURVE",
"378 72 CURVE SMOOTH"
);
}
);
width = 1071;
},
{
associatedMasterId = "7C863538-AAB4-42AD-A9FE-7240E615272A";
layerId = "A679C019-821F-4AB7-A8EC-ADCCFA97B1C6";
name = "Bold Sep 7 16, 18:52";
paths = (
{
closed = 1;
nodes = (
"462 -14 OFFCURVE",
"535 11 OFFCURVE",
"593 55 CURVE",
"593 0 LINE",
"1029 0 LINE",
"1029 124 LINE",
"724 124 LINE",
"724 303 LINE",
"952 303 LINE",
"952 427 LINE",
"724 427 LINE",
"724 576 LINE",
"1020 576 LINE",
"1020 700 LINE",
"593 700 LINE",
"593 645 LINE",
"535 689 OFFCURVE",
"462 714 OFFCURVE",
"380 714 CURVE SMOOTH",
"180 714 OFFCURVE",
"35 570 OFFCURVE",
"35 350 CURVE SMOOTH",
"35 130 OFFCURVE",
"180 -14 OFFCURVE",
"380 -14 CURVE SMOOTH"
);
},
{
closed = 1;
nodes = (
"244 109 OFFCURVE",
"175 210 OFFCURVE",
"175 350 CURVE SMOOTH",
"175 490 OFFCURVE",
"244 591 OFFCURVE",
"380 591 CURVE",
"516 591 OFFCURVE",
"585 490 OFFCURVE",
"585 350 CURVE SMOOTH",
"585 210 OFFCURVE",
"516 109 OFFCURVE",
"380 109 CURVE SMOOTH"
);
}
);
width = 1063;
}
);
leftKerningGroup = O;
rightKerningGroup = E;
unicode = 0152;
},
{
glyphname = oe;
layers = (
{
layerId = UUID0;
paths = (
{
closed = 1;
nodes = (
"363 -10 OFFCURVE",
"447 27 OFFCURVE",
"477 97 CURVE",
"507 27 OFFCURVE",
"568 -10 OFFCURVE",
"695 -10 CURVE SMOOTH",
"759 -10 OFFCURVE",
"811 5 OFFCURVE",
"848 22 CURVE",
"838 99 LINE",
"797 78 OFFCURVE",
"739 62 OFFCURVE",
"683 62 CURVE SMOOTH",
"626 62 OFFCURVE",
"525 88 OFFCURVE",
"525 245 CURVE",
"868 245 LINE",
"871 262 OFFCURVE",
"872 277 OFFCURVE",
"872 296 CURVE SMOOTH",
"872 425 OFFCURVE",
"785 500 OFFCURVE",
"659 500 CURVE SMOOTH",
"593 500 OFFCURVE",
"511 468 OFFCURVE",
"473 398 CURVE",
"443 468 OFFCURVE",
"355 500 OFFCURVE",
"282 500 CURVE SMOOTH",
"123 500 OFFCURVE",
"32 391 OFFCURVE",
"32 250 CURVE SMOOTH",
"32 106 OFFCURVE",
"124 -10 OFFCURVE",
"278 -10 CURVE SMOOTH"
);
},
{
closed = 1;
nodes = (
"177 70 OFFCURVE",
"124 135 OFFCURVE",
"124 245 CURVE SMOOTH",
"124 355 OFFCURVE",
"178 420 OFFCURVE",
"282 420 CURVE SMOOTH",
"379 420 OFFCURVE",
"433 348 OFFCURVE",
"433 248 CURVE SMOOTH",
"433 148 OFFCURVE",
"385 70 OFFCURVE",
"281 70 CURVE SMOOTH"
);
},
{
closed = 1;
nodes = (
"544 388 OFFCURVE",
"588 420 OFFCURVE",
"658 420 CURVE SMOOTH",
"728 420 OFFCURVE",
"774 379 OFFCURVE",
"780 307 CURVE",
"527 307 LINE"
);
}
);
width = 902;
},
{
layerId = "7C863538-AAB4-42AD-A9FE-7240E615272A";
paths = (
{
closed = 1;
nodes = (
"363 -10 OFFCURVE",
"428 21 OFFCURVE",
"471 71 CURVE",
"516 21 OFFCURVE",
"585 -10 OFFCURVE",
"679 -10 CURVE SMOOTH",
"750 -10 OFFCURVE",
"808 8 OFFCURVE",
"846 28 CURVE",
"840 133 LINE",
"799 111 OFFCURVE",
"733 92 OFFCURVE",
"686 92 CURVE SMOOTH",
"620 92 OFFCURVE",
"551 130 OFFCURVE",
"537 223 CURVE",
"860 223 LINE",
"865 247 OFFCURVE",
"868 269 OFFCURVE",
"868 291 CURVE SMOOTH",
"868 423 OFFCURVE",
"774 508 OFFCURVE",
"648 508 CURVE SMOOTH",
"570 508 OFFCURVE",
"510 477 OFFCURVE",
"469 429 CURVE",
"426 477 OFFCURVE",
"362 508 OFFCURVE",
"281 508 CURVE SMOOTH",
"121 508 OFFCURVE",
"28 389 OFFCURVE",
"28 249 CURVE SMOOTH",
"28 109 OFFCURVE",
"121 -10 OFFCURVE",
"281 -10 CURVE SMOOTH"
);
},
{
closed = 1;
nodes = (
"201 92 OFFCURVE",
"155 156 OFFCURVE",
"155 249 CURVE SMOOTH",
"155 342 OFFCURVE",
"201 406 OFFCURVE",
"281 406 CURVE SMOOTH",
"361 406 OFFCURVE",
"407 342 OFFCURVE",
"407 249 CURVE SMOOTH",
"407 156 OFFCURVE",
"361 92 OFFCURVE",
"281 92 CURVE SMOOTH"
);
},
{
closed = 1;
nodes = (
"552 364 OFFCURVE",
"588 406 OFFCURVE",
"652 406 CURVE SMOOTH",
"719 406 OFFCURVE",
"742 352 OFFCURVE",
"742 307 CURVE",
"540 307 LINE"
);
}
);
width = 895;
}
);
leftKerningGroup = o;
rightKerningGroup = e;
unicode = 0153;
},
{
color = 4;
glyphname = Germandbls;
layers = (
{
layerId = UUID0;
paths = (
{
closed = 1;
nodes = (
"175 0 LINE",
"175 493 LINE SMOOTH",
"175 581 OFFCURVE",
"238 634 OFFCURVE",
"335 634 CURVE SMOOTH",
"399 634 OFFCURVE",
"447 619 OFFCURVE",
"479 603 CURVE",
"487 645 LINE",
"295 411 LINE",
"295 335 LINE",
"319 335 LINE SMOOTH",
"423 335 OFFCURVE",
"476 285 OFFCURVE",
"476 197 CURVE SMOOTH",
"476 119 OFFCURVE",
"427 72 OFFCURVE",
"350 72 CURVE SMOOTH",
"317 72 OFFCURVE",
"287 75 OFFCURVE",
"257 82 CURVE",
"257 0 LINE",
"290 -9 OFFCURVE",
"321 -14 OFFCURVE",
"357 -14 CURVE SMOOTH",
"470 -14 OFFCURVE",
"576 54 OFFCURVE",
"576 198 CURVE SMOOTH",
"576 349 OFFCURVE",
"465 407 OFFCURVE",
"341 407 CURVE",
"363 365 LINE",
"541 579 LINE",
"541 655 LINE",
"492 689 OFFCURVE",
"421 714 OFFCURVE",
"335 714 CURVE SMOOTH",
"184 714 OFFCURVE",
"80 641 OFFCURVE",
"80 491 CURVE SMOOTH",
"80 0 LINE"
);
}
);
width = 615;
},
{
layerId = "7C863538-AAB4-42AD-A9FE-7240E615272A";
paths = (
{
closed = 1;
nodes = (
"175 0 LINE",
"175 453 LINE SMOOTH",
"175 545 OFFCURVE",
"238 601 OFFCURVE",
"335 601 CURVE SMOOTH",
"406 601 OFFCURVE",
"459 581 OFFCURVE",
"494 560 CURVE",
"505 643 LINE",
"295 424 LINE",
"295 318 LINE",
"342 318 LINE SMOOTH",
"431 318 OFFCURVE",
"476 280 OFFCURVE",
"476 212 CURVE SMOOTH",
"476 148 OFFCURVE",
"430 109 OFFCURVE",
"358 109 CURVE SMOOTH",
"323 109 OFFCURVE",
"290 112 OFFCURVE",
"257 119 CURVE",
"257 0 LINE",
"294 -9 OFFCURVE",
"334 -14 OFFCURVE",
"377 -14 CURVE SMOOTH",
"510 -14 OFFCURVE",
"616 57 OFFCURVE",
"616 205 CURVE SMOOTH",
"616 360 OFFCURVE",
"500 420 OFFCURVE",
"341 420 CURVE",
"363 348 LINE",
"556 549 LINE",
"556 655 LINE",
"503 689 OFFCURVE",
"427 714 OFFCURVE",
"335 714 CURVE SMOOTH",
"164 714 OFFCURVE",
"47 628 OFFCURVE",
"47 451 CURVE SMOOTH",
"47 0 LINE"
);
}
);
width = 640;
}
);
unicode = 1E9E;
},
{
color = 4;
glyphname = germandbls;
layers = (
{
layerId = UUID0;
paths = (
{
closed = 1;
nodes = (
"179 0 LINE",
"179 552 LINE SMOOTH",
"179 634 OFFCURVE",
"220 684 OFFCURVE",
"302 684 CURVE SMOOTH",
"368 684 OFFCURVE",
"404 649 OFFCURVE",
"404 597 CURVE SMOOTH",
"404 559 OFFCURVE",
"387 539 OFFCURVE",
"355 506 CURVE SMOOTH",
"303 452 OFFCURVE",
"280 423 OFFCURVE",
"280 375 CURVE SMOOTH",
"280 257 OFFCURVE",
"461 263 OFFCURVE",
"461 144 CURVE SMOOTH",
"461 89 OFFCURVE",
"417 56 OFFCURVE",
"347 56 CURVE SMOOTH",
"310 56 OFFCURVE",
"276 61 OFFCURVE",
"242 70 CURVE",
"242 0 LINE",
"277 -10 OFFCURVE",
"309 -14 OFFCURVE",
"346 -14 CURVE SMOOTH",
"452 -14 OFFCURVE",
"551 38 OFFCURVE",
"551 149 CURVE SMOOTH",
"551 299 OFFCURVE",
"370 305 OFFCURVE",
"370 386 CURVE SMOOTH",
"370 417 OFFCURVE",
"395 439 OFFCURVE",
"436 485 CURVE SMOOTH",
"465 517 OFFCURVE",
"491 550 OFFCURVE",
"491 613 CURVE SMOOTH",
"491 706 OFFCURVE",
"417 764 OFFCURVE",
"304 764 CURVE SMOOTH",
"179 764 OFFCURVE",
"93 694 OFFCURVE",
"93 550 CURVE SMOOTH",
"93 490 LINE",
"26 490 LINE",
"18 420 LINE",
"93 420 LINE",
"93 0 LINE"
);
}
);
width = 577;
},
{
layerId = "7C863538-AAB4-42AD-A9FE-7240E615272A";
paths = (
{
closed = 1;
nodes = (
"187 0 LINE",
"187 532 LINE SMOOTH",
"187 613 OFFCURVE",
"226 662 OFFCURVE",
"305 662 CURVE SMOOTH",
"368 662 OFFCURVE",
"402 634 OFFCURVE",
"402 592 CURVE SMOOTH",
"402 554 OFFCURVE",
"385 535 OFFCURVE",
"351 502 CURVE SMOOTH",
"301 454 OFFCURVE",
"278 430 OFFCURVE",
"278 388 CURVE SMOOTH",
"278 282 OFFCURVE",
"459 274 OFFCURVE",
"459 167 CURVE SMOOTH",
"459 117 OFFCURVE",
"417 88 OFFCURVE",
"351 88 CURVE SMOOTH",
"316 88 OFFCURVE",
"284 91 OFFCURVE",
"251 97 CURVE",
"251 -5 LINE",
"285 -11 OFFCURVE",
"315 -14 OFFCURVE",
"350 -14 CURVE SMOOTH",
"472 -14 OFFCURVE",
"586 44 OFFCURVE",
"586 169 CURVE SMOOTH",
"586 313 OFFCURVE",
"405 328 OFFCURVE",
"405 397 CURVE SMOOTH",
"405 417 OFFCURVE",
"416 433 OFFCURVE",
"446 461 CURVE SMOOTH",
"494 505 OFFCURVE",
"526 533 OFFCURVE",
"526 603 CURVE SMOOTH",
"526 702 OFFCURVE",
"439 764 OFFCURVE",
"307 764 CURVE SMOOTH",
"162 764 OFFCURVE",
"63 687 OFFCURVE",
"63 530 CURVE SMOOTH",
"63 500 LINE",
"3 500 LINE",
"-8 398 LINE",
"63 398 LINE",
"63 0 LINE"
);
}
);
width = 622;
},
{
associatedMasterId = UUID0;
layerId = "BC5295D8-2305-4304-999A-BD52724EAD51";
name = "Regular Sep 7 16, 15:17";
paths = (
{
closed = 1;
nodes = (
"176 -136 LINE",
"176 573 LINE SMOOTH",
"176 635 OFFCURVE",
"214 685 OFFCURVE",
"285 685 CURVE SMOOTH",
"338 685 OFFCURVE",
"405 657 OFFCURVE",
"405 570 CURVE SMOOTH",
"405 455 OFFCURVE",
"287 407 OFFCURVE",
"287 364 CURVE SMOOTH",
"287 312 OFFCURVE",
"458 259 OFFCURVE",
"458 144 CURVE SMOOTH",
"458 67 OFFCURVE",
"382 50 OFFCURVE",
"267 48 CURVE",
"267 -12 LINE",
"284 -13 OFFCURVE",
"292 -15 OFFCURVE",
"317 -15 CURVE",
"432 -15 OFFCURVE",
"540 34 OFFCURVE",
"540 140 CURVE SMOOTH",
"540 275 OFFCURVE",
"362 338 OFFCURVE",
"362 371 CURVE SMOOTH",
"362 398 OFFCURVE",
"476 457 OFFCURVE",
"476 578 CURVE SMOOTH",
"476 697 OFFCURVE",
"365 750 OFFCURVE",
"285 750 CURVE SMOOTH",
"192 750 OFFCURVE",
"90 679 OFFCURVE",
"90 568 CURVE SMOOTH",
"90 500 LINE",
"23 500 LINE",
"16 439 LINE",
"90 439 LINE",
"90 -136 LINE"
);
}
);
width = 557;
},
{
associatedMasterId = "7C863538-AAB4-42AD-A9FE-7240E615272A";
layerId = "F42354A3-AF7F-42E1-A2A7-8A87AC9DA86F";
name = "Bold Sep 7 16, 15:17";
paths = (
{
closed = 1;
nodes = (
"210 -136 LINE",
"210 560 LINE SMOOTH",
"210 609 OFFCURVE",
"238 644 OFFCURVE",
"287 644 CURVE SMOOTH",
"326 644 OFFCURVE",
"366 622 OFFCURVE",
"366 556 CURVE SMOOTH",
"366 457 OFFCURVE",
"278 415 OFFCURVE",
"278 360 CURVE SMOOTH",
"278 291 OFFCURVE",
"415 256 OFFCURVE",
"415 150 CURVE SMOOTH",
"415 86 OFFCURVE",
"365 83 OFFCURVE",
"263 83 CURVE",
"263 -10 LINE",
"285 -14 OFFCURVE",
"305 -15 OFFCURVE",
"323 -15 CURVE",
"441 -15 OFFCURVE",
"544 27 OFFCURVE",
"544 149 CURVE SMOOTH",
"544 288 OFFCURVE",
"409 327 OFFCURVE",
"409 367 CURVE SMOOTH",
"409 397 OFFCURVE",
"485 453 OFFCURVE",
"485 562 CURVE SMOOTH",
"485 697 OFFCURVE",
"367 750 OFFCURVE",
"288 750 CURVE SMOOTH",
"194 750 OFFCURVE",
"88 675 OFFCURVE",
"88 555 CURVE SMOOTH",
"88 500 LINE",
"28 500 LINE",
"17 398 LINE",
"88 398 LINE",
"88 -136 LINE"
);
}
);
width = 565;
}
);
leftKerningGroup = f;
unicode = 00DF;
},
{
color = 4;
glyphname = Tbar;
layers = (
{
layerId = UUID0;
paths = (
{
closed = 1;
nodes = (
"314 0 LINE",
"314 614 LINE",
"518 614 LINE",
"518 700 LINE",
"15 700 LINE",
"15 614 LINE",
"219 614 LINE",
"219 0 LINE"
);
},
{
closed = 1;
nodes = (
"444 327 LINE",
"444 390 LINE",
"89 390 LINE",
"89 327 LINE"
);
}
);
width = 533;
},
{
layerId = "7C863538-AAB4-42AD-A9FE-7240E615272A";
paths = (
{
closed = 1;
nodes = (
"341 0 LINE",
"341 576 LINE",
"539 576 LINE",
"539 700 LINE",
"15 700 LINE",
"15 576 LINE",
"213 576 LINE",
"213 0 LINE"
);
},
{
closed = 1;
nodes = (
"481 306 LINE",
"481 389 LINE",
"73 389 LINE",
"73 306 LINE"
);
}
);
width = 554;
}
);
leftMetricsKey = T;
rightMetricsKey = T;
unicode = 0166;
},
{
color = 4;
glyphname = tbar;
layers = (
{
layerId = UUID0;
paths = (
{
closed = 1;
nodes = (
"311 -10 LINE",
"318 62 LINE",
"295 62 LINE SMOOTH",
"198 62 OFFCURVE",
"192 68 OFFCURVE",
"192 162 CURVE SMOOTH",
"192 420 LINE",
"321 420 LINE",
"321 490 LINE",
"192 490 LINE",
"192 620 LINE",
"102 611 LINE",
"102 490 LINE",
"26 490 LINE",
"18 420 LINE",
"102 420 LINE",
"102 107 LINE SMOOTH",
"102 48 OFFCURVE",
"137 -10 OFFCURVE",
"230 -10 CURVE SMOOTH"
);
},
{
closed = 1;
nodes = (
"316 242 LINE",
"316 305 LINE",
"18 305 LINE",
"18 242 LINE"
);
}
);
width = 337;
},
{
layerId = "7C863538-AAB4-42AD-A9FE-7240E615272A";
paths = (
{
closed = 1;
nodes = (
"310 -10 LINE",
"321 92 LINE",
"287 92 LINE SMOOTH",
"217 92 OFFCURVE",
"211 96 OFFCURVE",
"211 172 CURVE SMOOTH",
"211 398 LINE",
"321 398 LINE",
"321 500 LINE",
"211 500 LINE",
"211 623 LINE",
"87 610 LINE",
"87 500 LINE",
"27 500 LINE",
"16 398 LINE",
"87 398 LINE",
"87 121 LINE SMOOTH",
"87 56 OFFCURVE",
"127 -10 OFFCURVE",
"221 -10 CURVE SMOOTH"
);
},
{
closed = 1;
nodes = (
"316 224 LINE",
"316 307 LINE",
"16 307 LINE",
"16 224 LINE"
);
}
);
width = 344;
}
);
leftMetricsKey = t;
rightMetricsKey = t;
unicode = 0167;
},
{
glyphname = Thorn;
layers = (
{
layerId = UUID0;
paths = (
{
closed = 1;
nodes = (
"180 0 LINE",
"180 206 LINE",
"248 206 LINE SMOOTH",
"463 206 OFFCURVE",
"550 254 OFFCURVE",
"550 392 CURVE SMOOTH",
"550 534 OFFCURVE",
"458 560 OFFCURVE",
"248 560 CURVE SMOOTH",
"180 560 LINE",
"180 700 LINE",
"80 700 LINE",
"80 0 LINE"
);
},
{
closed = 1;
nodes = (
"180 503 LINE",
"284 503 LINE SMOOTH",
"402 503 OFFCURVE",
"455 471 OFFCURVE",
"455 385 CURVE SMOOTH",
"455 304 OFFCURVE",
"403 261 OFFCURVE",
"284 261 CURVE SMOOTH",
"180 261 LINE"
);
}
);
width = 570;
},
{
layerId = "7C863538-AAB4-42AD-A9FE-7240E615272A";
paths = (
{
closed = 1;
nodes = (
"205 0 LINE",
"205 193 LINE",
"251 193 LINE SMOOTH",
"447 193 OFFCURVE",
"547 239 OFFCURVE",
"547 389 CURVE SMOOTH",
"547 545 OFFCURVE",
"439 569 OFFCURVE",
"251 569 CURVE SMOOTH",
"205 569 LINE",
"205 700 LINE",
"77 700 LINE",
"77 0 LINE"
);
},
{
closed = 1;
nodes = (
"205 471 LINE",
"284 471 LINE SMOOTH",
"387 471 OFFCURVE",
"417 445 OFFCURVE",
"417 383 CURVE SMOOTH",
"417 324 OFFCURVE",
"385 289 OFFCURVE",
"284 289 CURVE SMOOTH",
"205 289 LINE"
);
}
);
width = 564;
}
);
leftKerningGroup = I;
unicode = 00DE;
},
{
glyphname = thorn;
layers = (
{
layerId = UUID0;
paths = (
{
closed = 1;
nodes = (
"150 -241 LINE",
"150 99 LINE",
"135 85 LINE",
"169 22 OFFCURVE",
"232 -10 OFFCURVE",
"318 -10 CURVE SMOOTH",
"467 -10 OFFCURVE",
"548 108 OFFCURVE",
"548 245 CURVE SMOOTH",
"548 383 OFFCURVE",
"463 500 OFFCURVE",
"318 500 CURVE SMOOTH",
"242 500 OFFCURVE",
"179 471 OFFCURVE",
"130 405 CURVE",
"150 395 LINE",
"150 750 LINE",
"60 750 LINE",
"60 -241 LINE"
);
},
{
closed = 1;
nodes = (
"204 62 OFFCURVE",
"143 135 OFFCURVE",
"143 245 CURVE SMOOTH",
"143 354 OFFCURVE",
"204 420 OFFCURVE",
"303 420 CURVE SMOOTH",
"404 420 OFFCURVE",
"457 349 OFFCURVE",
"457 245 CURVE SMOOTH",
"457 140 OFFCURVE",
"404 62 OFFCURVE",
"303 62 CURVE SMOOTH"
);
}
);
width = 580;
},
{
layerId = "7C863538-AAB4-42AD-A9FE-7240E615272A";
paths = (
{
closed = 1;
nodes = (
"181 -242 LINE",
"181 82 LINE",
"149 59 LINE",
"202 15 OFFCURVE",
"241 -10 OFFCURVE",
"319 -10 CURVE SMOOTH",
"472 -10 OFFCURVE",
"553 109 OFFCURVE",
"553 249 CURVE SMOOTH",
"553 389 OFFCURVE",
"472 508 OFFCURVE",
"319 508 CURVE SMOOTH",
"241 508 OFFCURVE",
"199 483 OFFCURVE",
"151 441 CURVE",
"181 417 LINE",
"181 750 LINE",
"57 750 LINE",
"57 -242 LINE"
);
},
{
closed = 1;
nodes = (
"214 92 OFFCURVE",
"175 156 OFFCURVE",
"175 249 CURVE SMOOTH",
"175 342 OFFCURVE",
"214 406 OFFCURVE",
"303 406 CURVE SMOOTH",
"381 406 OFFCURVE",
"426 342 OFFCURVE",
"426 249 CURVE SMOOTH",
"426 156 OFFCURVE",
"381 92 OFFCURVE",
"303 92 CURVE SMOOTH"
);
}
);
width = 581;
},
{
associatedMasterId = "7C863538-AAB4-42AD-A9FE-7240E615272A";
layerId = "5C0F4110-32F8-4475-9440-4873E5DCF183";
name = "Bold Sep 7 16, 19:01";
paths = (
{
closed = 1;
nodes = (
"181 -242 LINE",
"181 24 LINE",
"214 2 OFFCURVE",
"246 -10 OFFCURVE",
"298 -10 CURVE SMOOTH",
"458 -10 OFFCURVE",
"543 109 OFFCURVE",
"543 249 CURVE SMOOTH",
"543 389 OFFCURVE",
"458 508 OFFCURVE",
"298 508 CURVE SMOOTH",
"246 508 OFFCURVE",
"213 496 OFFCURVE",
"181 475 CURVE",
"181 750 LINE",
"57 750 LINE",
"57 -242 LINE"
);
},
{
closed = 1;
nodes = (
"210 92 OFFCURVE",
"175 156 OFFCURVE",
"175 249 CURVE SMOOTH",
"175 342 OFFCURVE",
"210 406 OFFCURVE",
"290 406 CURVE SMOOTH",
"370 406 OFFCURVE",
"416 342 OFFCURVE",
"416 249 CURVE SMOOTH",
"416 156 OFFCURVE",
"370 92 OFFCURVE",
"290 92 CURVE SMOOTH"
);
}
);
width = 571;
visible = 1;
},
{
associatedMasterId = UUID0;
layerId = "F0C0B6C8-097E-47FF-8254-4387917BB635";
name = "Regular Sep 7 16, 19:01";
paths = (
{
closed = 1;
nodes = (
"150 -241 LINE",
"150 56 LINE",
"183 12 OFFCURVE",
"235 -10 OFFCURVE",
"302 -10 CURVE SMOOTH",
"461 -10 OFFCURVE",
"548 108 OFFCURVE",
"548 245 CURVE SMOOTH",
"548 383 OFFCURVE",
"459 500 OFFCURVE",
"308 500 CURVE SMOOTH",
"246 500 OFFCURVE",
"193 481 OFFCURVE",
"150 438 CURVE",
"150 750 LINE",
"60 750 LINE",
"60 -241 LINE"
);
},
{
closed = 1;
nodes = (
"185 62 OFFCURVE",
"143 144 OFFCURVE",
"143 245 CURVE SMOOTH",
"143 346 OFFCURVE",
"185 420 OFFCURVE",
"294 420 CURVE",
"401 420 OFFCURVE",
"457 349 OFFCURVE",
"457 245 CURVE SMOOTH",
"457 140 OFFCURVE",
"401 62 OFFCURVE",
"294 62 CURVE SMOOTH"
);
}
);
width = 580;
}
);
leftKerningGroup = n;
rightKerningGroup = b;
unicode = 00FE;
},
{
color = 4;
glyphname = Schwa;
layers = (
{
layerId = UUID0;
paths = (
{
closed = 1;
nodes = (
"555 175 OFFCURVE",
"471 72 OFFCURVE",
"335 72 CURVE SMOOTH",
"197 72 OFFCURVE",
"134 148 OFFCURVE",
"134 267 CURVE",
"599 267 LINE",
"599 351 LINE",
"36 351 LINE",
"31 326 OFFCURVE",
"30 302 OFFCURVE",
"30 282 CURVE SMOOTH",
"30 93 OFFCURVE",
"157 -14 OFFCURVE",
"332 -14 CURVE SMOOTH",
"539 -14 OFFCURVE",
"659 147 OFFCURVE",
"659 340 CURVE SMOOTH",
"659 571 OFFCURVE",
"528 714 OFFCURVE",
"319 714 CURVE SMOOTH",
"221 714 OFFCURVE",
"132 689 OFFCURVE",
"61 655 CURVE",
"79 575 LINE",
"151 606 OFFCURVE",
"227 628 OFFCURVE",
"308 628 CURVE SMOOTH",
"468 628 OFFCURVE",
"555 520 OFFCURVE",
"555 342 CURVE SMOOTH"
);
}
);
width = 699;
},
{
layerId = "7C863538-AAB4-42AD-A9FE-7240E615272A";
paths = (
{
closed = 1;
nodes = (
"539 188 OFFCURVE",
"465 109 OFFCURVE",
"345 109 CURVE SMOOTH",
"233 109 OFFCURVE",
"176 176 OFFCURVE",
"170 262 CURVE",
"609 262 LINE",
"609 376 LINE",
"38 376 LINE",
"32 347 OFFCURVE",
"30 318 OFFCURVE",
"30 294 CURVE SMOOTH",
"30 107 OFFCURVE",
"155 -14 OFFCURVE",
"341 -14 CURVE SMOOTH",
"554 -14 OFFCURVE",
"679 140 OFFCURVE",
"679 340 CURVE SMOOTH",
"679 550 OFFCURVE",
"549 714 OFFCURVE",
"319 714 CURVE SMOOTH",
"225 714 OFFCURVE",
"138 690 OFFCURVE",
"71 655 CURVE",
"79 535 LINE",
"148 568 OFFCURVE",
"227 591 OFFCURVE",
"308 591 CURVE SMOOTH",
"458 591 OFFCURVE",
"539 497 OFFCURVE",
"539 342 CURVE SMOOTH"
);
}
);
width = 714;
}
);
unicode = 018F;
},
{
glyphname = ampersand;
layers = (
{
layerId = UUID0;
paths = (
{
closed = 1;
nodes = (
"339 -23 OFFCURVE",
"394 -6 OFFCURVE",
"457 46 CURVE",
"501 0 LINE",
"593 0 LINE",
"506 100 LINE",
"559 184 OFFCURVE",
"569 292 OFFCURVE",
"571 351 CURVE",
"490 351 LINE",
"488 309 OFFCURVE",
"480 197 OFFCURVE",
"451 161 CURVE",
"261 356 LINE",
"349 417 OFFCURVE",
"430 478 OFFCURVE",
"430 565 CURVE SMOOTH",
"430 643 OFFCURVE",
"379 703 OFFCURVE",
"265 703 CURVE SMOOTH",
"168 703 OFFCURVE",
"87 641 OFFCURVE",
"87 536 CURVE SMOOTH",
"87 490 OFFCURVE",
"104 437 OFFCURVE",
"162 366 CURVE",
"73 303 OFFCURVE",
"36 239 OFFCURVE",
"36 162 CURVE SMOOTH",
"36 60 OFFCURVE",
"118 -23 OFFCURVE",
"259 -23 CURVE SMOOTH"
);
},
{
closed = 1;
nodes = (
"165 45 OFFCURVE",
"123 101 OFFCURVE",
"123 169 CURVE SMOOTH",
"123 228 OFFCURVE",
"157 280 OFFCURVE",
"204 313 CURVE",
"412 105 LINE",
"379 69 OFFCURVE",
"333 45 OFFCURVE",
"261 45 CURVE SMOOTH"
);
},
{
closed = 1;
nodes = (
"178 461 OFFCURVE",
"168 504 OFFCURVE",
"168 534 CURVE SMOOTH",
"168 601 OFFCURVE",
"214 634 OFFCURVE",
"264 634 CURVE SMOOTH",
"316 634 OFFCURVE",
"349 607 OFFCURVE",
"349 559 CURVE SMOOTH",
"349 498 OFFCURVE",
"305 463 OFFCURVE",
"223 406 CURVE"
);
}
);
width = 611;
},
{
layerId = "7C863538-AAB4-42AD-A9FE-7240E615272A";
paths = (
{
closed = 1;
nodes = (
"346 -24 OFFCURVE",
"405 -1 OFFCURVE",
"449 34 CURVE",
"480 0 LINE",
"624 0 LINE",
"519 120 LINE",
"561 200 OFFCURVE",
"568 295 OFFCURVE",
"568 352 CURVE",
"449 352 LINE",
"448 309 OFFCURVE",
"448 258 OFFCURVE",
"439 211 CURVE",
"299 371 LINE",
"370 422 OFFCURVE",
"441 471 OFFCURVE",
"441 559 CURVE SMOOTH",
"441 644 OFFCURVE",
"381 703 OFFCURVE",
"273 703 CURVE SMOOTH",
"173 703 OFFCURVE",
"79 642 OFFCURVE",
"79 538 CURVE SMOOTH",
"79 475 OFFCURVE",
"114 417 OFFCURVE",
"154 367 CURVE",
"89 319 OFFCURVE",
"32 260 OFFCURVE",
"32 168 CURVE SMOOTH",
"32 68 OFFCURVE",
"103 -24 OFFCURVE",
"265 -24 CURVE SMOOTH"
);
},
{
closed = 1;
nodes = (
"185 71 OFFCURVE",
"161 127 OFFCURVE",
"161 179 CURVE SMOOTH",
"161 229 OFFCURVE",
"182 267 OFFCURVE",
"213 300 CURVE",
"386 105 LINE",
"362 84 OFFCURVE",
"329 71 OFFCURVE",
"282 71 CURVE SMOOTH"
);
},
{
closed = 1;
nodes = (
"216 471 OFFCURVE",
"201 500 OFFCURVE",
"201 533 CURVE SMOOTH",
"201 580 OFFCURVE",
"231 604 OFFCURVE",
"271 604 CURVE SMOOTH",
"308 604 OFFCURVE",
"332 586 OFFCURVE",
"332 546 CURVE SMOOTH",
"332 500 OFFCURVE",
"295 466 OFFCURVE",
"247 432 CURVE"
);
}
);
width = 627;
}
);
unicode = 0026;
},
{
glyphname = at;
layers = (
{
layerId = UUID0;
paths = (
{
closed = 1;
nodes = (
"436 -87 OFFCURVE",
"562 -8 OFFCURVE",
"625 106 CURVE",
"593 73 OFFCURVE",
"531 42 OFFCURVE",
"495 42 CURVE SMOOTH",
"450 42 OFFCURVE",
"437 89 OFFCURVE",
"437 121 CURVE SMOOTH",
"437 136 OFFCURVE",
"440 149 OFFCURVE",
"440 156 CURVE",
"397 81 OFFCURVE",
"318 40 OFFCURVE",
"260 40 CURVE SMOOTH",
"193 40 OFFCURVE",
"169 95 OFFCURVE",
"169 153 CURVE SMOOTH",
"169 289 OFFCURVE",
"299 432 OFFCURVE",
"424 432 CURVE SMOOTH",
"479 432 OFFCURVE",
"520 405 OFFCURVE",
"545 379 CURVE",
"520 272 OFFCURVE",
"490 204 OFFCURVE",
"490 145 CURVE SMOOTH",
"490 100 OFFCURVE",
"508 94 OFFCURVE",
"533 94 CURVE SMOOTH",
"636 94 OFFCURVE",
"675 199 OFFCURVE",
"675 300 CURVE SMOOTH",
"675 454 OFFCURVE",
"583 553 OFFCURVE",
"426 553 CURVE SMOOTH",
"224 553 OFFCURVE",
"49 388 OFFCURVE",
"49 170 CURVE SMOOTH",
"49 8 OFFCURVE",
"145 -87 OFFCURVE",
"297 -87 CURVE SMOOTH"
);
},
{
closed = 1;
nodes = (
"360 106 OFFCURVE",
"459 242 OFFCURVE",
"478 349 CURVE",
"470 370 OFFCURVE",
"444 371 OFFCURVE",
"433 371 CURVE SMOOTH",
"359 371 OFFCURVE",
"249 282 OFFCURVE",
"249 173 CURVE SMOOTH",
"249 135 OFFCURVE",
"262 106 OFFCURVE",
"293 106 CURVE SMOOTH"
);
}
);
width = 722;
},
{
layerId = "7C863538-AAB4-42AD-A9FE-7240E615272A";
paths = (
{
closed = 1;
nodes = (
"432 -87 OFFCURVE",
"558 -8 OFFCURVE",
"621 106 CURVE",
"589 73 OFFCURVE",
"527 42 OFFCURVE",
"491 42 CURVE SMOOTH",
"446 42 OFFCURVE",
"433 89 OFFCURVE",
"433 121 CURVE SMOOTH",
"433 136 OFFCURVE",
"436 149 OFFCURVE",
"436 156 CURVE",
"393 81 OFFCURVE",
"314 40 OFFCURVE",
"256 40 CURVE SMOOTH",
"189 40 OFFCURVE",
"165 95 OFFCURVE",
"165 153 CURVE SMOOTH",
"165 289 OFFCURVE",
"295 432 OFFCURVE",
"420 432 CURVE SMOOTH",
"475 432 OFFCURVE",
"516 405 OFFCURVE",
"541 379 CURVE",
"516 272 OFFCURVE",
"486 204 OFFCURVE",
"486 145 CURVE SMOOTH",
"486 100 OFFCURVE",
"504 94 OFFCURVE",
"529 94 CURVE SMOOTH",
"632 94 OFFCURVE",
"671 199 OFFCURVE",
"671 300 CURVE SMOOTH",
"671 454 OFFCURVE",
"579 553 OFFCURVE",
"422 553 CURVE SMOOTH",
"220 553 OFFCURVE",
"45 388 OFFCURVE",
"45 170 CURVE SMOOTH",
"45 8 OFFCURVE",
"141 -87 OFFCURVE",
"293 -87 CURVE SMOOTH"
);
},
{
closed = 1;
nodes = (
"356 106 OFFCURVE",
"455 242 OFFCURVE",
"474 349 CURVE",
"466 370 OFFCURVE",
"440 371 OFFCURVE",
"429 371 CURVE SMOOTH",
"355 371 OFFCURVE",
"245 282 OFFCURVE",
"245 173 CURVE SMOOTH",
"245 135 OFFCURVE",
"258 106 OFFCURVE",
"289 106 CURVE SMOOTH"
);
}
);
width = 714;
}
);
unicode = 0040;
},
{
glyphname = asterisk;
layers = (
{
layerId = UUID0;
paths = (
{
closed = 1;
nodes = (
"213 560 LINE",
"315 427 LINE",
"348 459 LINE",
"235 574 LINE",
"393 637 LINE",
"370 679 LINE",
"221 593 LINE",
"237 749 LINE",
"191 749 LINE",
"204 593 LINE",
"56 679 LINE",
"33 638 LINE",
"189 573 LINE",
"81 456 LINE",
"113 424 LINE"
);
}
);
width = 426;
},
{
layerId = "7C863538-AAB4-42AD-A9FE-7240E615272A";
paths = (
{
closed = 1;
nodes = (
"225 549 LINE",
"309 412 LINE",
"376 477 LINE",
"256 567 LINE",
"415 617 LINE",
"368 699 LINE",
"234 592 LINE",
"270 749 LINE",
"176 749 LINE",
"211 592 LINE",
"78 699 LINE",
"31 617 LINE",
"193 565 LINE",
"72 474 LINE",
"139 409 LINE"
);
}
);
width = 446;
}
);
unicode = 002A;
},
{
glyphname = copyright;
layers = (
{
layerId = UUID0;
paths = (
{
closed = 1;
nodes = (
"540 37 OFFCURVE",
"670 167 OFFCURVE",
"670 365 CURVE SMOOTH",
"670 564 OFFCURVE",
"540 693 OFFCURVE",
"360 693 CURVE SMOOTH",
"180 693 OFFCURVE",
"49 564 OFFCURVE",
"49 365 CURVE SMOOTH",
"49 167 OFFCURVE",
"180 37 OFFCURVE",
"360 37 CURVE SMOOTH",
"360 37 LINE"
);
},
{
closed = 1;
nodes = (
"400 197 OFFCURVE",
"434 204 OFFCURVE",
"459 217 CURVE",
"452 276 LINE",
"425 264 OFFCURVE",
"398 256 OFFCURVE",
"369 256 CURVE SMOOTH",
"308 256 OFFCURVE",
"278 303 OFFCURVE",
"278 363 CURVE SMOOTH",
"278 425 OFFCURVE",
"308 470 OFFCURVE",
"369 470 CURVE SMOOTH",
"398 470 OFFCURVE",
"425 462 OFFCURVE",
"452 451 CURVE",
"459 511 LINE",
"434 522 OFFCURVE",
"400 530 OFFCURVE",
"369 530 CURVE SMOOTH",
"277 530 OFFCURVE",
"211 465 OFFCURVE",
"211 363 CURVE SMOOTH",
"211 262 OFFCURVE",
"277 197 OFFCURVE",
"369 197 CURVE SMOOTH",
"369 197 LINE"
);
},
{
closed = 1;
nodes = (
"186 81 OFFCURVE",
"101 205 OFFCURVE",
"101 365 CURVE SMOOTH",
"101 525 OFFCURVE",
"186 648 OFFCURVE",
"360 648 CURVE SMOOTH",
"360 648 LINE",
"533 648 OFFCURVE",
"618 525 OFFCURVE",
"618 365 CURVE SMOOTH",
"618 205 OFFCURVE",
"533 81 OFFCURVE",
"360 81 CURVE SMOOTH"
);
}
);
width = 720;
},
{
layerId = "7C863538-AAB4-42AD-A9FE-7240E615272A";
paths = (
{
closed = 1;
nodes = (
"531 37 OFFCURVE",
"661 168 OFFCURVE",
"661 365 CURVE SMOOTH",
"661 563 OFFCURVE",
"531 693 OFFCURVE",
"351 693 CURVE SMOOTH",
"171 693 OFFCURVE",
"40 563 OFFCURVE",
"40 365 CURVE SMOOTH",
"40 168 OFFCURVE",
"171 37 OFFCURVE",
"351 37 CURVE SMOOTH",
"351 37 LINE"
);
},
{
closed = 1;
nodes = (
"394 190 OFFCURVE",
"433 199 OFFCURVE",
"461 215 CURVE",
"451 299 LINE",
"420 284 OFFCURVE",
"392 274 OFFCURVE",
"359 274 CURVE SMOOTH",
"312 274 OFFCURVE",
"286 310 OFFCURVE",
"286 363 CURVE SMOOTH",
"286 418 OFFCURVE",
"312 452 OFFCURVE",
"359 452 CURVE SMOOTH",
"392 452 OFFCURVE",
"420 442 OFFCURVE",
"451 429 CURVE",
"461 514 LINE",
"433 527 OFFCURVE",
"395 537 OFFCURVE",
"359 537 CURVE SMOOTH",
"263 537 OFFCURVE",
"195 468 OFFCURVE",
"195 363 CURVE SMOOTH",
"195 259 OFFCURVE",
"264 190 OFFCURVE",
"359 190 CURVE SMOOTH",
"359 190 LINE"
);
},
{
closed = 1;
nodes = (
"194 106 OFFCURVE",
"117 217 OFFCURVE",
"117 365 CURVE SMOOTH",
"117 513 OFFCURVE",
"194 623 OFFCURVE",
"351 623 CURVE SMOOTH",
"351 623 LINE",
"507 623 OFFCURVE",
"584 513 OFFCURVE",
"584 365 CURVE SMOOTH",
"584 217 OFFCURVE",
"507 106 OFFCURVE",
"351 106 CURVE SMOOTH"
);
}
);
width = 701;
}
);
unicode = 00A9;
},
{
glyphname = registered;
layers = (
{
layerId = UUID0;
paths = (
{
closed = 1;
nodes = (
"540 37 OFFCURVE",
"670 167 OFFCURVE",
"670 365 CURVE SMOOTH",
"670 564 OFFCURVE",
"540 693 OFFCURVE",
"360 693 CURVE SMOOTH",
"180 693 OFFCURVE",
"49 564 OFFCURVE",
"49 365 CURVE SMOOTH",
"49 167 OFFCURVE",
"180 37 OFFCURVE",
"360 37 CURVE SMOOTH",
"360 37 LINE"
);
},
{
closed = 1;
nodes = (
"186 80 OFFCURVE",
"100 205 OFFCURVE",
"100 365 CURVE SMOOTH",
"100 525 OFFCURVE",
"186 649 OFFCURVE",
"360 649 CURVE SMOOTH",
"360 649 LINE",
"533 649 OFFCURVE",
"619 525 OFFCURVE",
"619 365 CURVE SMOOTH",
"619 205 OFFCURVE",
"533 80 OFFCURVE",
"360 80 CURVE SMOOTH"
);
},
{
closed = 1;
nodes = (
"306 210 LINE",
"306 327 LINE",
"361 327 LINE",
"426 210 LINE",
"489 210 LINE",
"418 344 LINE",
"451 366 OFFCURVE",
"472 396 OFFCURVE",
"472 431 CURVE SMOOTH",
"472 509 OFFCURVE",
"429 531 OFFCURVE",
"362 531 CURVE SMOOTH",
"244 531 LINE",
"244 210 LINE"
);
},
{
closed = 1;
nodes = (
"306 482 LINE",
"348 482 LINE SMOOTH",
"394 482 OFFCURVE",
"407 463 OFFCURVE",
"407 433 CURVE SMOOTH",
"407 405 OFFCURVE",
"394 383 OFFCURVE",
"346 383 CURVE SMOOTH",
"306 383 LINE"
);
}
);
width = 720;
},
{
layerId = "7C863538-AAB4-42AD-A9FE-7240E615272A";
paths = (
{
closed = 1;
nodes = (
"531 37 OFFCURVE",
"661 168 OFFCURVE",
"661 365 CURVE SMOOTH",
"661 563 OFFCURVE",
"531 693 OFFCURVE",
"351 693 CURVE SMOOTH",
"171 693 OFFCURVE",
"40 563 OFFCURVE",
"40 365 CURVE SMOOTH",
"40 168 OFFCURVE",
"171 37 OFFCURVE",
"351 37 CURVE SMOOTH",
"351 37 LINE"
);
},
{
closed = 1;
nodes = (
"195 107 OFFCURVE",
"118 218 OFFCURVE",
"118 365 CURVE SMOOTH",
"118 513 OFFCURVE",
"195 622 OFFCURVE",
"351 622 CURVE SMOOTH",
"351 622 LINE",
"507 622 OFFCURVE",
"583 513 OFFCURVE",
"583 365 CURVE SMOOTH",
"583 218 OFFCURVE",
"507 107 OFFCURVE",
"351 107 CURVE SMOOTH"
);
},
{
closed = 1;
nodes = (
"313 203 LINE",
"313 315 LINE",
"343 315 LINE",
"405 203 LINE",
"498 203 LINE",
"424 341 LINE",
"448 356 OFFCURVE",
"471 389 OFFCURVE",
"471 428 CURVE SMOOTH",
"471 513 OFFCURVE",
"421 538 OFFCURVE",
"352 538 CURVE SMOOTH",
"225 538 LINE",
"225 203 LINE"
);
},
{
closed = 1;
nodes = (
"313 463 LINE",
"339 463 LINE SMOOTH",
"376 463 OFFCURVE",
"381 450 OFFCURVE",
"381 430 CURVE SMOOTH",
"381 411 OFFCURVE",
"375 396 OFFCURVE",
"337 396 CURVE SMOOTH",
"313 396 LINE"
);
}
);
width = 701;
}
);
unicode = 00AE;
},
{
glyphname = trademark;
layers = (
{
layerId = UUID0;
paths = (
{
closed = 1;
nodes = (
"358 337 LINE",
"391 606 LINE",
"483 443 LINE",
"489 443 LINE",
"583 605 LINE",
"614 337 LINE",
"668 337 LINE",
"620 700 LINE",
"591 700 LINE",
"487 521 LINE",
"382 700 LINE",
"353 700 LINE",
"306 337 LINE"
);
},
{
closed = 1;
nodes = (
"184 337 LINE",
"184 650 LINE",
"284 650 LINE",
"290 700 LINE",
"31 700 LINE",
"31 650 LINE",
"133 650 LINE",
"133 337 LINE"
);
}
);
width = 727;
},
{
layerId = "7C863538-AAB4-42AD-A9FE-7240E615272A";
paths = (
{
closed = 1;
nodes = (
"388 337 LINE",
"415 549 LINE",
"490 425 LINE",
"501 425 LINE",
"577 549 LINE",
"603 337 LINE",
"686 337 LINE",
"637 700 LINE",
"586 700 LINE",
"496 552 LINE",
"405 700 LINE",
"355 700 LINE",
"306 337 LINE"
);
},
{
closed = 1;
nodes = (
"209 337 LINE",
"209 622 LINE",
"303 622 LINE",
"313 700 LINE",
"32 700 LINE",
"32 622 LINE",
"129 622 LINE",
"129 337 LINE"
);
}
);
width = 739;
}
);
unicode = 2122;
},
{
glyphname = asciicircum;
layers = (
{
layerId = UUID0;
paths = (
{
closed = 1;
nodes = (
"255 653 LINE",
"461 437 LINE",
"461 543 LINE",
"255 759 LINE",
"49 543 LINE",
"49 437 LINE"
);
}
);
width = 511;
},
{
layerId = "7C863538-AAB4-42AD-A9FE-7240E615272A";
paths = (
{
closed = 1;
nodes = (
"255 612 LINE",
"461 400 LINE",
"461 547 LINE",
"255 759 LINE",
"49 547 LINE",
"49 400 LINE"
);
}
);
width = 511;
}
);
unicode = 005E;
},
{
glyphname = asciitilde;
layers = (
{
layerId = UUID0;
paths = (
{
closed = 1;
nodes = (
"343 259 OFFCURVE",
"385 295 OFFCURVE",
"400 353 CURVE",
"366 362 LINE",
"349 330 OFFCURVE",
"329 311 OFFCURVE",
"297 311 CURVE SMOOTH",
"262 311 OFFCURVE",
"198 360 OFFCURVE",
"157 360 CURVE SMOOTH",
"122 360 OFFCURVE",
"70 336 OFFCURVE",
"54 270 CURVE",
"90 261 LINE",
"101 291 OFFCURVE",
"123 310 OFFCURVE",
"161 310 CURVE SMOOTH",
"193 310 OFFCURVE",
"256 259 OFFCURVE",
"293 259 CURVE SMOOTH"
);
}
);
width = 455;
},
{
layerId = "7C863538-AAB4-42AD-A9FE-7240E615272A";
paths = (
{
closed = 1;
nodes = (
"372 246 OFFCURVE",
"414 298 OFFCURVE",
"422 348 CURVE",
"346 368 LINE",
"342 348 OFFCURVE",
"320 321 OFFCURVE",
"289 321 CURVE SMOOTH",
"251 321 OFFCURVE",
"231 363 OFFCURVE",
"171 363 CURVE SMOOTH",
"116 363 OFFCURVE",
"53 328 OFFCURVE",
"46 261 CURVE",
"129 241 LINE",
"133 261 OFFCURVE",
"147 288 OFFCURVE",
"177 288 CURVE SMOOTH",
"215 288 OFFCURVE",
"250 246 OFFCURVE",
"304 246 CURVE SMOOTH"
);
}
);
width = 466;
}
);
unicode = 007E;
},
{
glyphname = caron;
layers = (
{
layerId = UUID0;
paths = (
{
closed = 1;
nodes = (
"370 699 LINE",
"370 740 LINE",
"223 664 LINE",
"76 740 LINE",
"76 699 LINE",
"223 600 LINE"
);
}
);
width = 446;
},
{
layerId = "7C863538-AAB4-42AD-A9FE-7240E615272A";
paths = (
{
closed = 1;
nodes = (
"370 676 LINE",
"370 750 LINE",
"223 679 LINE",
"76 750 LINE",
"76 676 LINE",
"223 585 LINE"
);
}
);
width = 446;
}
);
unicode = 02C7;
},
{
glyphname = dieresis;
layers = (
{
layerId = UUID0;
paths = (
{
closed = 1;
nodes = (
"335 600 LINE",
"335 700 LINE",
"265 700 LINE",
"265 600 LINE"
);
},
{
closed = 1;
nodes = (
"157 600 LINE",
"157 700 LINE",
"87 700 LINE",
"87 600 LINE"
);
}
);
width = 422;
},
{
layerId = "7C863538-AAB4-42AD-A9FE-7240E615272A";
paths = (
{
closed = 1;
nodes = (
"335 594 LINE",
"335 700 LINE",
"238 700 LINE",
"238 594 LINE"
);
},
{
closed = 1;
nodes = (
"184 594 LINE",
"184 700 LINE",
"87 700 LINE",
"87 594 LINE"
);
}
);
width = 422;
}
);
unicode = 00A8;
},
{
glyphname = ring;
layers = (
{
layerId = UUID0;
paths = (
{
closed = 1;
nodes = (
"216 576 OFFCURVE",
"250 619 OFFCURVE",
"250 665 CURVE SMOOTH",
"250 711 OFFCURVE",
"215 755 OFFCURVE",
"146 755 CURVE SMOOTH",
"78 755 OFFCURVE",
"42 711 OFFCURVE",
"42 665 CURVE SMOOTH",
"42 619 OFFCURVE",
"77 576 OFFCURVE",
"146 576 CURVE SMOOTH"
);
},
{
closed = 1;
nodes = (
"115 605 OFFCURVE",
"86 628 OFFCURVE",
"86 665 CURVE SMOOTH",
"86 700 OFFCURVE",
"114 724 OFFCURVE",
"146 724 CURVE SMOOTH",
"178 724 OFFCURVE",
"206 700 OFFCURVE",
"206 665 CURVE SMOOTH",
"206 628 OFFCURVE",
"177 605 OFFCURVE",
"146 605 CURVE SMOOTH"
);
}
);
width = 292;
},
{
layerId = "7C863538-AAB4-42AD-A9FE-7240E615272A";
paths = (
{
closed = 1;
nodes = (
"211 576 OFFCURVE",
"250 616 OFFCURVE",
"250 665 CURVE SMOOTH",
"250 714 OFFCURVE",
"211 755 OFFCURVE",
"146 755 CURVE SMOOTH",
"82 755 OFFCURVE",
"42 714 OFFCURVE",
"42 665 CURVE SMOOTH",
"42 616 OFFCURVE",
"82 576 OFFCURVE",
"146 576 CURVE SMOOTH"
);
},
{
closed = 1;
nodes = (
"121 624 OFFCURVE",
"102 640 OFFCURVE",
"102 665 CURVE SMOOTH",
"102 689 OFFCURVE",
"121 706 OFFCURVE",
"146 706 CURVE SMOOTH",
"171 706 OFFCURVE",
"190 689 OFFCURVE",
"190 665 CURVE SMOOTH",
"190 640 OFFCURVE",
"171 624 OFFCURVE",
"146 624 CURVE SMOOTH"
);
}
);
width = 292;
}
);
unicode = 02DA;
},
{
glyphname = cedilla;
layers = (
{
layerId = UUID0;
paths = (
{
closed = 1;
nodes = (
"190 -187 LINE",
"278 -54 LINE",
"212 -60 LINE",
"144 -192 LINE"
);
}
);
width = 303;
},
{
layerId = "7C863538-AAB4-42AD-A9FE-7240E615272A";
paths = (
{
closed = 1;
nodes = (
"203 -185 LINE",
"303 -52 LINE",
"199 -61 LINE",
"129 -194 LINE"
);
}
);
width = 303;
}
);
unicode = 00B8;
},
{
color = 4;
glyphname = gravecomb;
layers = (
{
anchors = (
{
name = _top;
position = "{0, 490}";
},
{
name = top;
position = "{0, 732}";
}
);
layerId = UUID0;
paths = (
{
closed = 1;
nodes = (
"93 637 LINE",
"-94 747 LINE",
"-94 649 LINE",
"93 576 LINE"
);
}
);
width = 0;
},
{
anchors = (
{
name = _top;
position = "{0, 500}";
},
{
name = top;
position = "{0, 750}";
}
);
layerId = "7C863538-AAB4-42AD-A9FE-7240E615272A";
paths = (
{
closed = 1;
nodes = (
"98 649 LINE",
"-99 761 LINE",
"-99 646 LINE",
"98 570 LINE"
);
}
);
width = 0;
}
);
unicode = 0300;
},
{
color = 4;
glyphname = acutecomb;
layers = (
{
anchors = (
{
name = _top;
position = "{0, 490}";
},
{
name = top;
position = "{0, 732}";
}
);
layerId = UUID0;
paths = (
{
closed = 1;
nodes = (
"94 649 LINE",
"94 747 LINE",
"-93 637 LINE",
"-93 576 LINE"
);
}
);
width = 0;
},
{
anchors = (
{
name = _top;
position = "{0, 500}";
},
{
name = top;
position = "{0, 750}";
}
);
layerId = "7C863538-AAB4-42AD-A9FE-7240E615272A";
paths = (
{
closed = 1;
nodes = (
"99 646 LINE",
"99 761 LINE",
"-98 649 LINE",
"-98 570 LINE"
);
}
);
width = 0;
},
{
anchors = (
{
name = _top;
position = "{0, 490}";
},
{
name = top;
position = "{0, 732}";
}
);
associatedMasterId = UUID0;
layerId = "BA40F915-2A8C-4AEC-A05E-E9E9EAABDD2A";
name = "Regular Sep 15 16, 03:00";
paths = (
{
closed = 1;
nodes = (
"93 660 LINE",
"93 732 LINE",
"-94 637 LINE",
"-94 596 LINE"
);
}
);
width = 0;
},
{
anchors = (
{
name = _top;
position = "{152, 500}";
},
{
name = top;
position = "{152, 750}";
}
);
associatedMasterId = "7C863538-AAB4-42AD-A9FE-7240E615272A";
layerId = "2264C204-575B-4EC8-85A9-F40BBEC060E1";
name = "Bold Sep 15 16, 03:00";
paths = (
{
closed = 1;
nodes = (
"245 646 LINE",
"245 750 LINE",
"58 659 LINE",
"58 585 LINE"
);
}
);
width = 303;
}
);
unicode = 0301;
},
{
color = 4;
glyphname = circumflexcomb;
layers = (
{
anchors = (
{
name = _top;
position = "{0, 490}";
},
{
name = top;
position = "{0, 732}";
}
);
layerId = UUID0;
paths = (
{
closed = 1;
nodes = (
"-127 615 LINE",
"-127 554 LINE",
"0 634 LINE",
"127 554 LINE",
"127 615 LINE",
"0 725 LINE"
);
}
);
width = 0;
},
{
anchors = (
{
name = _top;
position = "{0, 500}";
},
{
name = top;
position = "{0, 750}";
}
);
layerId = "7C863538-AAB4-42AD-A9FE-7240E615272A";
paths = (
{
closed = 1;
nodes = (
"-132 623 LINE",
"-132 544 LINE",
"0 627 LINE",
"132 544 LINE",
"132 623 LINE",
"0 735 LINE"
);
}
);
width = 0;
},
{
anchors = (
{
name = _top;
position = "{223, 490}";
},
{
name = top;
position = "{223, 745}";
}
);
associatedMasterId = UUID0;
layerId = "39E66255-F9DE-4914-BD48-7103116503BA";
name = "Regular Sep 15 16, 03:05";
paths = (
{
closed = 1;
nodes = (
"223 685 LINE",
"350 603 LINE",
"350 639 LINE",
"223 745 LINE",
"96 639 LINE",
"96 603 LINE"
);
}
);
width = 446;
visible = 1;
},
{
anchors = (
{
name = _top;
position = "{223, 500}";
},
{
name = top;
position = "{223, 750}";
}
);
associatedMasterId = "7C863538-AAB4-42AD-A9FE-7240E615272A";
layerId = "A7314F4A-E81B-4428-B29E-88E972FED635";
name = "Bold Sep 15 16, 03:05";
paths = (
{
closed = 1;
nodes = (
"223 656 LINE",
"350 585 LINE",
"350 659 LINE",
"223 750 LINE",
"96 659 LINE",
"96 585 LINE"
);
}
);
width = 446;
}
);
unicode = 0302;
},
{
color = 4;
glyphname = tildecomb;
layers = (
{
anchors = (
{
name = _top;
position = "{0, 490}";
},
{
name = top;
position = "{0, 702}";
}
);
layerId = UUID0;
paths = (
{
closed = 1;
nodes = (
"134 580 OFFCURVE",
"163 619 OFFCURVE",
"166 691 CURVE",
"91 691 LINE",
"91 667 OFFCURVE",
"78 652 OFFCURVE",
"57 652 CURVE SMOOTH",
"15 652 OFFCURVE",
"-30 699 OFFCURVE",
"-80 699 CURVE SMOOTH",
"-134 699 OFFCURVE",
"-163 660 OFFCURVE",
"-166 588 CURVE",
"-91 588 LINE",
"-91 612 OFFCURVE",
"-78 627 OFFCURVE",
"-57 627 CURVE SMOOTH",
"-15 627 OFFCURVE",
"30 580 OFFCURVE",
"80 580 CURVE SMOOTH"
);
}
);
width = 0;
},
{
anchors = (
{
name = _top;
position = "{0, 500}";
},
{
name = top;
position = "{0, 721}";
}
);
layerId = "7C863538-AAB4-42AD-A9FE-7240E615272A";
paths = (
{
closed = 1;
nodes = (
"139 578 OFFCURVE",
"168 621 OFFCURVE",
"171 699 CURVE",
"86 699 LINE",
"86 677 OFFCURVE",
"73 663 OFFCURVE",
"52 663 CURVE SMOOTH",
"10 663 OFFCURVE",
"-35 707 OFFCURVE",
"-85 707 CURVE SMOOTH",
"-139 707 OFFCURVE",
"-168 664 OFFCURVE",
"-171 586 CURVE",
"-86 586 LINE",
"-86 608 OFFCURVE",
"-73 622 OFFCURVE",
"-52 622 CURVE SMOOTH",
"-10 622 OFFCURVE",
"35 578 OFFCURVE",
"85 578 CURVE SMOOTH"
);
}
);
width = 0;
},
{
anchors = (
{
name = _top;
position = "{0, 490}";
},
{
name = top;
position = "{0, 702}";
}
);
associatedMasterId = UUID0;
layerId = "89AF964C-2884-4A10-9A46-53DEB66438CE";
name = "Regular Sep 15 16, 03:39";
paths = (
{
closed = 1;
nodes = (
"116 599 OFFCURVE",
"158 635 OFFCURVE",
"173 693 CURVE",
"139 702 LINE",
"122 670 OFFCURVE",
"102 651 OFFCURVE",
"70 651 CURVE SMOOTH",
"35 651 OFFCURVE",
"-29 700 OFFCURVE",
"-70 700 CURVE SMOOTH",
"-105 700 OFFCURVE",
"-157 676 OFFCURVE",
"-173 610 CURVE",
"-137 601 LINE",
"-126 631 OFFCURVE",
"-104 650 OFFCURVE",
"-66 650 CURVE SMOOTH",
"-34 650 OFFCURVE",
"29 599 OFFCURVE",
"66 599 CURVE SMOOTH"
);
}
);
width = 0;
visible = 1;
},
{
anchors = (
{
name = _top;
position = "{264, 500}";
},
{
name = top;
position = "{264, 721}";
}
);
associatedMasterId = "7C863538-AAB4-42AD-A9FE-7240E615272A";
layerId = "14BB730D-A8EE-4545-A5B3-A9B63F208D49";
name = "Bold Sep 15 16, 03:39";
paths = (
{
closed = 1;
nodes = (
"402 599 OFFCURVE",
"444 651 OFFCURVE",
"452 701 CURVE",
"376 721 LINE",
"372 701 OFFCURVE",
"350 674 OFFCURVE",
"319 674 CURVE SMOOTH",
"281 674 OFFCURVE",
"261 716 OFFCURVE",
"201 716 CURVE SMOOTH",
"146 716 OFFCURVE",
"83 681 OFFCURVE",
"76 614 CURVE",
"159 594 LINE",
"163 614 OFFCURVE",
"177 641 OFFCURVE",
"207 641 CURVE SMOOTH",
"245 641 OFFCURVE",
"280 599 OFFCURVE",
"334 599 CURVE SMOOTH"
);
}
);
width = 528;
}
);
unicode = 0303;
},
{
glyphname = brevecomb;
layers = (
{
anchors = (
{
name = _top;
position = "{205, 490}";
},
{
name = top;
position = "{205, 648}";
}
);
layerId = UUID0;
paths = (
{
closed = 1;
nodes = (
"274 557 OFFCURVE",
"320 589 OFFCURVE",
"322 648 CURVE",
"284 648 LINE",
"281 627 OFFCURVE",
"260 596 OFFCURVE",
"205 596 CURVE SMOOTH",
"150 596 OFFCURVE",
"129 627 OFFCURVE",
"126 648 CURVE",
"88 648 LINE",
"90 589 OFFCURVE",
"136 557 OFFCURVE",
"205 557 CURVE SMOOTH"
);
}
);
width = 410;
},
{
anchors = (
{
name = _top;
position = "{217, 500}";
},
{
name = top;
position = "{217, 668}";
}
);
layerId = "7C863538-AAB4-42AD-A9FE-7240E615272A";
paths = (
{
closed = 1;
nodes = (
"286 567 OFFCURVE",
"352 599 OFFCURVE",
"354 678 CURVE",
"286 678 LINE",
"283 657 OFFCURVE",
"262 626 OFFCURVE",
"217 626 CURVE SMOOTH",
"172 626 OFFCURVE",
"151 657 OFFCURVE",
"148 678 CURVE",
"80 678 LINE",
"82 599 OFFCURVE",
"148 567 OFFCURVE",
"217 567 CURVE SMOOTH"
);
}
);
width = 434;
}
);
unicode = 0306;
},
{
glyphname = hookabovecomb;
layers = (
{
anchors = (
{
name = _top;
position = "{170, 490}";
},
{
name = top;
position = "{170, 710}";
}
);
layerId = UUID0;
paths = (
{
closed = 1;
nodes = (
"201 557 OFFCURVE",
"254 596 OFFCURVE",
"254 632 CURVE SMOOTH",
"254 685 OFFCURVE",
"215 710 OFFCURVE",
"170 710 CURVE SMOOTH",
"123 710 OFFCURVE",
"105 683 OFFCURVE",
"85 652 CURVE",
"111 633 LINE",
"129 655 OFFCURVE",
"142 668 OFFCURVE",
"169 668 CURVE SMOOTH",
"193 668 OFFCURVE",
"210 654 OFFCURVE",
"210 632 CURVE SMOOTH",
"210 603 OFFCURVE",
"181 578 OFFCURVE",
"166 563 CURVE",
"186 541 LINE"
);
}
);
width = 333;
},
{
anchors = (
{
name = _top;
position = "{183, 500}";
},
{
name = top;
position = "{183, 715}";
}
);
layerId = "7C863538-AAB4-42AD-A9FE-7240E615272A";
paths = (
{
closed = 1;
nodes = (
"222 564 OFFCURVE",
"269 601 OFFCURVE",
"269 632 CURVE SMOOTH",
"269 685 OFFCURVE",
"230 715 OFFCURVE",
"185 715 CURVE SMOOTH",
"138 715 OFFCURVE",
"116 688 OFFCURVE",
"96 657 CURVE",
"131 624 LINE",
"149 646 OFFCURVE",
"163 659 OFFCURVE",
"184 659 CURVE SMOOTH",
"208 659 OFFCURVE",
"215 642 OFFCURVE",
"215 627 CURVE SMOOTH",
"215 606 OFFCURVE",
"196 586 OFFCURVE",
"181 571 CURVE",
"207 548 LINE"
);
}
);
width = 369;
}
);
unicode = 0309;
},
{
glyphname = horncomb;
layers = (
{
anchors = (
{
name = _topright;
position = "{175, 490}";
},
{
name = topright;
position = "{175, 490}";
}
);
layerId = UUID0;
paths = (
{
closed = 1;
nodes = (
"194 421 OFFCURVE",
"266 488 OFFCURVE",
"266 564 CURVE",
"180 564 LINE",
"180 511 OFFCURVE",
"150 490 OFFCURVE",
"100 490 CURVE",
"100 421 LINE"
);
}
);
width = 350;
},
{
anchors = (
{
name = _topright;
position = "{175, 500}";
},
{
name = topright;
position = "{175, 500}";
}
);
layerId = "7C863538-AAB4-42AD-A9FE-7240E615272A";
paths = (
{
closed = 1;
nodes = (
"194 408 OFFCURVE",
"286 468 OFFCURVE",
"286 564 CURVE",
"180 564 LINE",
"180 511 OFFCURVE",
"150 490 OFFCURVE",
"100 490 CURVE",
"100 408 LINE"
);
}
);
width = 386;
}
);
unicode = 031B;
},
{
glyphname = softhyphen;
layers = (
{
layerId = UUID0;
paths = (
{
closed = 1;
nodes = (
"377 230 LINE",
"377 324 LINE",
"67 324 LINE",
"67 230 LINE"
);
}
);
width = 444;
},
{
layerId = "7C863538-AAB4-42AD-A9FE-7240E615272A";
paths = (
{
closed = 1;
nodes = (
"377 230 LINE",
"377 324 LINE",
"67 324 LINE",
"67 230 LINE"
);
}
);
width = 444;
}
);
unicode = 00AD;
},
{
glyphname = hyphen;
layers = (
{
layerId = UUID0;
paths = (
{
closed = 1;
nodes = (
"367 238 LINE",
"367 324 LINE",
"57 324 LINE",
"57 238 LINE"
);
}
);
width = 424;
},
{
layerId = "7C863538-AAB4-42AD-A9FE-7240E615272A";
paths = (
{
closed = 1;
nodes = (
"364 230 LINE",
"364 324 LINE",
"54 324 LINE",
"54 230 LINE"
);
}
);
width = 418;
}
);
leftKerningGroup = hyphen;
rightKerningGroup = hyphen;
unicode = 002D;
},
{
glyphname = endash;
layers = (
{
layerId = UUID0;
paths = (
{
closed = 1;
nodes = (
"544 268 LINE",
"544 354 LINE",
"0 354 LINE",
"0 268 LINE"
);
}
);
width = 544;
},
{
layerId = "7C863538-AAB4-42AD-A9FE-7240E615272A";
paths = (
{
closed = 1;
nodes = (
"553 260 LINE",
"553 354 LINE",
"0 354 LINE",
"0 260 LINE"
);
}
);
width = 553;
}
);
leftKerningGroup = hyphen;
rightKerningGroup = hyphen;
unicode = 2013;
},
{
glyphname = emdash;
layers = (
{
layerId = UUID0;
paths = (
{
closed = 1;
nodes = (
"716 268 LINE",
"716 354 LINE",
"0 354 LINE",
"0 268 LINE"
);
}
);
width = 716;
},
{
layerId = "7C863538-AAB4-42AD-A9FE-7240E615272A";
paths = (
{
closed = 1;
nodes = (
"745 260 LINE",
"745 354 LINE",
"0 354 LINE",
"0 260 LINE"
);
}
);
width = 745;
}
);
leftKerningGroup = hyphen;
rightKerningGroup = hyphen;
unicode = 2014;
},
{
glyphname = underscore;
layers = (
{
layerId = UUID0;
paths = (
{
closed = 1;
nodes = (
"563 -122 LINE",
"563 -36 LINE",
"3 -36 LINE",
"3 -122 LINE"
);
}
);
width = 566;
},
{
layerId = "7C863538-AAB4-42AD-A9FE-7240E615272A";
paths = (
{
closed = 1;
nodes = (
"559 -130 LINE",
"559 -36 LINE",
"-1 -36 LINE",
"-1 -130 LINE"
);
}
);
width = 558;
}
);
unicode = 005F;
},
{
glyphname = period;
layers = (
{
layerId = UUID0;
paths = (
{
closed = 1;
nodes = (
"147 0 LINE",
"147 86 LINE",
"57 86 LINE",
"57 0 LINE"
);
}
);
width = 204;
},
{
layerId = "7C863538-AAB4-42AD-A9FE-7240E615272A";
paths = (
{
closed = 1;
nodes = (
"178 0 LINE",
"178 130 LINE",
"54 130 LINE",
"54 0 LINE"
);
}
);
width = 232;
}
);
leftKerningGroup = period;
unicode = 002E;
},
{
glyphname = comma;
layers = (
{
layerId = UUID0;
paths = (
{
closed = 1;
nodes = (
"158 0 LINE",
"158 86 LINE",
"58 86 LINE",
"58 0 LINE",
"92 -9 LINE",
"57 -96 LINE",
"80 -109 LINE"
);
}
);
width = 216;
},
{
layerId = "7C863538-AAB4-42AD-A9FE-7240E615272A";
paths = (
{
closed = 1;
nodes = (
"178 0 LINE",
"178 130 LINE",
"54 130 LINE",
"54 0 LINE",
"87 -10 LINE",
"54 -96 LINE",
"80 -110 LINE"
);
}
);
width = 232;
}
);
unicode = 002C;
},
{
glyphname = colon;
layers = (
{
layerId = UUID0;
paths = (
{
closed = 1;
nodes = (
"147 354 LINE",
"147 440 LINE",
"57 440 LINE",
"57 354 LINE"
);
},
{
closed = 1;
nodes = (
"147 0 LINE",
"147 86 LINE",
"57 86 LINE",
"57 0 LINE"
);
}
);
width = 204;
},
{
layerId = "7C863538-AAB4-42AD-A9FE-7240E615272A";
paths = (
{
closed = 1;
nodes = (
"178 310 LINE",
"178 440 LINE",
"54 440 LINE",
"54 310 LINE"
);
},
{
closed = 1;
nodes = (
"178 0 LINE",
"178 130 LINE",
"54 130 LINE",
"54 0 LINE"
);
}
);
width = 232;
}
);
unicode = 003A;
},
{
glyphname = semicolon;
layers = (
{
layerId = UUID0;
paths = (
{
closed = 1;
nodes = (
"158 -1 LINE",
"158 86 LINE",
"58 86 LINE",
"58 0 LINE",
"92 -9 LINE",
"57 -96 LINE",
"80 -109 LINE"
);
},
{
closed = 1;
nodes = (
"158 354 LINE",
"158 440 LINE",
"58 440 LINE",
"58 354 LINE"
);
}
);
width = 216;
},
{
layerId = "7C863538-AAB4-42AD-A9FE-7240E615272A";
paths = (
{
closed = 1;
nodes = (
"180 0 LINE",
"180 130 LINE",
"56 130 LINE",
"56 0 LINE",
"89 -10 LINE",
"56 -96 LINE",
"82 -110 LINE"
);
},
{
closed = 1;
nodes = (
"193 310 LINE",
"193 440 LINE",
"56 440 LINE",
"56 310 LINE"
);
}
);
width = 247;
}
);
unicode = 003B;
},
{
glyphname = exclam;
layers = (
{
layerId = UUID0;
paths = (
{
closed = 1;
nodes = (
"153 200 LINE",
"183 750 LINE",
"59 750 LINE",
"89 200 LINE"
);
},
{
closed = 1;
nodes = (
"163 0 LINE",
"163 86 LINE",
"79 86 LINE",
"79 0 LINE"
);
}
);
width = 242;
},
{
layerId = "7C863538-AAB4-42AD-A9FE-7240E615272A";
paths = (
{
closed = 1;
nodes = (
"167 200 LINE",
"187 750 LINE",
"63 750 LINE",
"83 200 LINE"
);
},
{
closed = 1;
nodes = (
"187 0 LINE",
"187 124 LINE",
"63 124 LINE",
"63 0 LINE"
);
}
);
width = 250;
}
);
unicode = 0021;
},
